<svg xmlns="http://www.w3.org/2000/svg" width="1280" viewBox="0 0 960 540" height="720" version="1.0"><defs><clipPath id="a"><path d="M1 0h958v539H1Zm0 0"/></clipPath><clipPath id="b"><path d="M520 116h34v44h-34Zm0 0"/></clipPath><clipPath id="c"><path d="M453 146h58v19h-58Zm0 0"/></clipPath><clipPath id="d"><path d="M453 133h59v19h-59Zm0 0"/></clipPath><clipPath id="e"><path d="M453 119h59v19h-59Zm0 0"/></clipPath><clipPath id="f"><path d="M453 105h59v19h-59Zm0 0"/></clipPath><clipPath id="g"><path d="M453 93h59v18h-59Zm0 0"/></clipPath><clipPath id="h"><path d="M699 308h62v21h-62Zm0 0"/></clipPath><clipPath id="i"><path d="M699 322h63v26h-63Zm0 0"/></clipPath><clipPath id="j"><path d="M699 341h63v26h-63Zm0 0"/></clipPath><clipPath id="k"><path d="M699 360h63v26h-63Zm0 0"/></clipPath><clipPath id="l"><path d="M197 325h63v63h-63Zm0 0"/></clipPath></defs><g clip-path="url(#a)" fill="#FFF"><path d="M1 0h958v10922H1Zm0 0"/><path d="M1 0h958v539H1Zm0 0"/><path d="M1 0h958v539H1Zm0 0"/><path d="M1 0h958v539H1Zm0 0"/></g><g clip-path="url(#b)"><path fill="#424242" d="M554 151v9h-34v-44h30v16l4 2v4h-3l-1 1v8l1 1Zm-8 3v-14l-1-1h-20l-1 1v14l1 1h20l1-1Zm-1-25v-8l-1-1-1 1v8a1 1 0 0 0 2 0Zm-6 0v-8a1 1 0 0 0-2 0v8a1 1 0 1 0 2 0Zm-6 0v-8a1 1 0 0 0-2 0v8a1 1 0 1 0 2 0Zm-6 0v-8l-1-1-1 1v8a1 1 0 0 0 2 0" fill-rule="evenodd"/></g><path fill="#424242" d="M526 153h18v-11h-18v11" fill-rule="evenodd"/><g clip-path="url(#c)"><path fill="#424242" d="M511 147v9c0 4-12 9-29 9s-29-5-29-9v-9l7 3c13 5 40 5 51-3" fill-rule="evenodd"/></g><g clip-path="url(#d)"><path fill="#424242" d="M511 133v9c0 5-12 9-29 9s-29-4-29-9v-9l7 4c13 4 40 5 51-4" fill-rule="evenodd"/></g><g clip-path="url(#e)"><path fill="#424242" d="M511 119v10c0 4-12 9-29 9s-29-5-29-9v-10l7 4c13 4 40 5 51-4" fill-rule="evenodd"/></g><g clip-path="url(#f)"><path fill="#424242" d="M511 106v9c0 4-12 9-29 9s-29-5-29-9v-9l7 4c13 4 40 4 51-4" fill-rule="evenodd"/></g><g clip-path="url(#g)"><path fill="#424242" d="M482 93c17 0 29 4 29 9 0 4-12 8-29 8s-29-4-29-8c0-5 12-9 29-9" fill-rule="evenodd"/></g><g clip-path="url(#h)"><path fill="#545454" d="M725 309c-13 0-22 4-25 8v3c2 3 9 6 18 8h12l14-1c13-2 19-7 15-11-3-4-10-6-21-7h-13Zm0 0"/></g><g clip-path="url(#i)"><path fill="#545454" d="m700 322-1 8 1 8 4 4c11 7 36 8 50 1 4-2 6-4 7-7v-14l-1 1c-1 4-10 7-21 8h-14c-13 0-23-4-25-8v-1Zm0 0"/></g><g clip-path="url(#j)"><path fill="#545454" d="m700 342-1 6v7c3 8 22 14 40 11 12-1 20-6 22-11v-13l-1-1c-3 4-10 8-19 9h-20c-7-1-13-2-17-5a17 17 0 0 1-4-4v1Zm0 0"/></g><g clip-path="url(#k)"><path fill="#545454" d="m700 361-1 7v7l1 1c2 4 9 8 19 9l11 1c8 0 13 0 19-2 7-3 11-6 12-9v-13l-1-1-1 1c-4 4-11 7-20 8h-20c-9-2-16-5-18-9h-1Zm0 0"/></g><path fill="#899AA5" d="M202 326h53c3 0 4 2 4 4v39c0 2-1 3-4 3h-53c-2 0-3-1-3-3v-39c0-2 1-4 3-4"/><path fill="#E9EFF4" d="M222 382h14v-10h-14v10"/><path fill="#F8FCFB" d="M214 382h30c1 0 2 1 2 3l-2 2h-30c-2 0-3-1-3-2 0-2 1-3 3-3"/><path fill="#DAE9ED" d="M226 372v4c0 2 1 3 3 3s3-1 3-3v-4h-6"/><path fill="#F8FCFB" d="M202 329v36h53l1-1v-34l-1-1h-53"/><path fill="#E9EFF4" d="M238 382c1 0 3 1 3 3l-3 2h6l2-2c0-2-1-3-2-3h-6M207 329h44v36h-44v-36"/><path fill="#BEE59E" d="M207 338h44v-9h-44v9"/><path fill="#AADE7E" d="M207 335h13l6-6h-19v6"/><path fill="#AFE4EB" d="M214 358h8a2 2 0 1 1 0 4h-8l-2-2c0-2 1-2 2-2"/><path fill="#DAE9ED" d="M244 329v36h7v-36h-7"/><path fill="#AADE7E" d="M244 329v9h7v-9h-7"/><path fill="#29314F" d="m213 354 1 1 1-1c2-1 3-2 3-4l-1-2 1-2c0-2-1-3-3-4a1 1 0 0 0-2 0h-2a1 1 0 1 0 0 3v2a1 1 0 1 0 0 2v3a1 1 0 1 0 0 2Zm0-9h1l2 1-2 1h-1Zm0 4h1l2 1-2 2h-1v-3M226 344h9l1-1-1-1h-9l-1 1 1 1M235 345h-9l-1 1 1 1h9l1-1-1-1M235 349h-9l-1 1 1 1h9l1-1-1-1M235 352h-9l-1 1 1 2h9l1-2-1-1M221 344h1a1 1 0 1 0 0-2h-1l-1 1 1 1M221 347h1l2-1-2-1h-1a1 1 0 1 0 0 2M221 351h1a1 1 0 1 0 0-2h-1a1 1 0 1 0 0 2M221 355h1a1 1 0 1 0 0-3h-1l-1 1 1 2M222 356h-8c-2 0-3 2-3 4 0 1 1 3 3 3h8c2 0 3-2 3-3 0-2-1-4-3-4Zm0 4h-9l1-1h8a1 1 0 1 1 0 1"/><g clip-path="url(#l)"><path fill="#29314F" d="M255 374c3 0 5-3 5-5v-39c0-3-2-5-5-5h-53c-2 0-5 2-5 5v39c0 2 3 5 5 5h19v7h-7c-2 0-4 2-4 4s2 3 4 3h30c2 0 3-1 3-3s-1-4-3-4h-7v-7Zm-28 0h4v2a2 2 0 0 1-4 0Zm-27-5v-39c0-2 1-3 2-3h53c2 0 3 1 3 3v39c0 1-1 2-3 2h-53l-2-2Zm45 16-1 1h-30l-2-1 2-2h30l1 2Zm-22-4v-7h2v2a4 4 0 0 0 8 0v-2h2v7h-12"/></g><path fill="#29314F" d="m255 366 2-2v-34l-2-2h-53l-1 2v34l1 2h53Zm-14-2v-25h9v25Zm14 0h-3v-34h3Zm-5-27h-42v-1h13l5-6h24Zm-27-7-3 4h-12v-4Zm-20 0h3v34h-3Zm5 9h31v25h-31v-25"/><path fill="#29314F" d="M230 335h15a1 1 0 1 0 0-2h-15a1 1 0 1 0 0 2M247 344h-3a1 1 0 1 0 0 3h3l1-1-1-2M247 350h-3a1 1 0 1 0 0 2h3l1-1-1-1M247 355h-3a1 1 0 1 0 0 2h3l1-1-1-1"/><path d="m602 132-2 6-6 2c-3 0-5-1-7-3l-2-8v-2l1-5a8 8 0 0 1 8-5c3 0 4 0 6 2l2 5h-3l-1-4-4-1-4 2-2 6v2c0 3 0 5 2 6 1 2 2 2 4 2l4-1 1-4ZM616 140v-2l-5 2-4-1-1-4c0-2 0-3 2-4l5-2h3v-1l-1-2-3-1-2 1-1 1h-3l1-2 2-2 4-1 4 2 2 4v8l1 3v1Zm-4-3h2l2-2v-4h-2c-4 0-6 1-6 4l1 2h3ZM630 138l3-1 1-3h3l-1 3-3 2-3 1-5-2c-2-2-2-4-2-7l1-5a7 7 0 0 1 6-4l5 2 2 5h-3l-1-3-3-1-3 1-1 5v1l1 4 3 2ZM643 125c1-2 3-3 5-3 4 0 5 2 5 6v12h-2v-12l-1-2-3-1-2 1-2 2v12h-3v-24h3ZM665 140l-6-2-2-6v-1l1-4 3-3 3-2c3 0 4 1 6 3l1 6v1h-11l1 4 4 2 2-1 2-2 2 2c-1 2-3 3-6 3Zm-1-15-3 1-1 4h8v-1l-1-3-3-1ZM164 421h-10l-2 5h-3l9-22h2l9 22h-3Zm-9-3h8l-4-11ZM186 418l-2 6c-1 2-3 3-5 3l-5-2v8h-2v-23h2v1l5-2c2 0 4 1 5 3l2 6Zm-3 0-1-5-4-1-4 2v8c1 2 3 2 4 2l4-1 1-5ZM204 418l-2 6c-1 2-3 3-5 3l-5-2v8h-3v-23h3v1l5-2c2 0 4 1 5 3l2 6Zm-3 0-1-5-4-1-4 2v8c1 2 3 2 4 2l4-1 1-5ZM210 426h-2v-23h2ZM218 426h-3v-16h3Zm-3-21 1-1 1-1 1 1 1 1-1 1-1 1-1-1-1-1ZM230 424l2-1 2-2h2l-1 3-2 2-3 1c-3 0-5-1-6-3l-2-6 1-5a7 7 0 0 1 7-4l4 2c2 1 2 3 2 4h-2l-2-2-2-1-4 1-1 5 1 5 4 1ZM250 426v-1l-5 2-4-2-2-3 2-4 6-2h3v-1l-1-2-3-1h-3l-1 2h-3l1-2 3-2 3-1 5 2 1 4v8l1 3Zm-5-2h3l2-2v-4h-3c-3 0-5 1-5 3l1 3h2ZM261 406v4h3v2h-3v12h3v2l-2 1-3-1-1-4v-10h-3v-2h3v-4ZM270 426h-2v-16h2Zm-3-21 1-1 1-1 1 1 1 1-1 1-1 1-1-1-1-1ZM274 418l1-5 3-3 4-1 6 3 2 6-1 5a7 7 0 0 1-7 4l-6-3-2-6Zm3 0 2 5 3 1 4-1 1-5-1-5-4-1-3 1-2 5ZM296 410v2c1-2 3-3 5-3 4 0 6 2 6 6v11h-3v-11l-1-2-3-1h-2l-2 2v12h-3v-16ZM667 426v-22h6l5 1 4 4 1 5v2l-1 5-4 4-5 1Zm3-20v18h3l5-2 2-6v-2l-2-6-5-2ZM697 426v-1l-5 2-4-2-1-3c0-2 0-3 2-4l5-2h3v-1l-1-2-3-1h-2l-1 2h-3l1-2 2-2 4-1 4 2 2 4v8l1 3Zm-4-2h2l2-2v-4h-2c-4 0-6 1-6 3l1 3h3ZM708 406v4h4v2h-4v10l1 2h3v2l-3 1-3-1-1-4v-10h-3v-2h3v-4ZM725 426v-1l-5 2-4-2-2-3 2-4 6-2h3v-1l-1-2-3-1h-2l-1 2h-3l1-2 2-2 3-1 5 2 2 4v11Zm-4-2h2l2-2v-4h-2c-4 0-6 1-6 3l1 3h3ZM747 418l-2 6c-1 2-3 3-5 3l-5-2v1h-3v-23h3v8l5-2c2 0 4 1 5 3l2 6Zm-3 0-1-5-4-1-4 2v8l4 2 3-1 2-5ZM761 426l-1-1-5 2-4-2-1-3c0-2 0-3 2-4l5-2h3v-1l-1-2-2-1h-3l-1 2h-3l1-2 2-2 4-1 4 2 2 4v8l1 3Zm-5-2h2l2-2v-4h-2c-4 0-5 1-5 3v3h3ZM777 422l-1-2-3-1-3-1-2-2-1-2 2-3 5-2 4 2c2 1 2 2 2 4h-3l-1-2-2-1h-3l-1 2 1 2 3 1 4 1 2 2v2c0 1 0 3-2 3l-4 2-4-1-2-2-1-3h3l1 3h5l1-2ZM791 427l-6-2-2-6v-1l1-5 3-3 4-1 5 2 2 7v1h-12l2 4 3 1h3l2-2 1 2c-1 2-3 3-6 3Zm0-15-3 1-2 3h9l-1-3-3-1Zm0 0" fill="#0F0E0C"/><path transform="matrix(2.94013 -2.3116 2.31348 2.94251 253 293)" fill="none" d="M0 0h57" stroke="#000"/><path stroke-linecap="round" transform="matrix(2.94013 -2.3116 2.31348 2.94251 423 159)" fill="none" stroke-linejoin="round" d="m-3-2 3 2-3 1" stroke="#000"/><g fill="#0F0E0C"><path d="m345 303 2-1 1-2-1-2c-1-2-2-2-4-1l-1 2 1 2-2 2-1-4 2-3 4-2 3 2 1 3-1 2h3l2 1 1 4-2 4-4 1-3-2 1-1 2 1 3-1 1-2-1-2-2-1h-2l-2 1ZM359 303v-1l1-1 1 1v2h-1l-1-1ZM369 290l2 2-1-2-4-12 1-1 10 8 1 1-1-2-5-11 2-1 7 16-1 1-11-8h-1l1 1 4 12-1 1-14-11 2-1ZM385 272l-1 1c-1 0-2 1-1 3l5 7-2 1-7-10 1-1 1 1 2-3v-1ZM395 278l-2 1-8-10 2-1Zm-12-11v-2h2v2h-2ZM390 262l2 2 2-1 1 1-2 1 5 7h2l1-1 1 2-2 1h-2l-2-1-5-6-1 1-1-1 1-2-1-2ZM408 268c-1 1-3 2-4 1l-4-2-1-1-1-3v-3l2-2 4-1 4 3-7 6 3 1h3a4 4 0 0 0 2-4h1c0 2 0 4-2 5Zm-7-9-1 2v3l6-4h-1l-2-1h-2ZM414 255l-2-4 2-4 4-1-4-5 2-2 11 15-2 1-1-1-2 3c-1 1-2 2-4 1l-4-3Zm2-1 3 2h2c2-1 2-2 2-4l-4-4h-3l-1 3 1 3ZM436 247l-2-1-1 4-4 1-2-2-1-3 3-4 2-1-1-1-2-1-2 1-1 2v1l-1 2-1-2 1-3 1-1 4-2 3 2 3 5 2 2Zm-4 1 1-2v-1l-1-3-2 1c-2 2-3 3-2 5l2 1 2-1ZM433 230l1 2 2-1 1 1-2 1 5 7h2l1-1 1 2-1 1-2 1-3-2-4-6-2 1-1-1 2-2-2-2ZM452 235l-1-1-2 3-3 1-2-1-1-4 3-3 1-1v-1l-2-1h-2l-1 2v2l-2 1v-4l2-2 4-1 2 1 4 5 2 2Zm-4 0 2-1v-2l-2-2-1 1c-2 2-3 3-2 4l2 1 1-1Zm0 0"/></g><g fill="#0F0E0C"><path d="m379 311 2 3 1-2 1 2-1 1 4 6 1 1h1l1-1 1 2-1 1h-2l-2-1-5-7-2 2-1-1 2-2-2-2ZM388 316l-2-3a5 5 0 0 1 2-5c2-1 3-2 5-1l4 2v1l2 3a5 5 0 0 1-3 5l-4 1c-2 0-3-1-4-3Zm2-1 2 2h3l2-3-2-3-3-2h-2l-2 3 2 3ZM411 305l1-2v-2l1-1 1 2v2l-2 2c-1 1-3 2-4 1l-4-2-1-1-1-3v-3l2-2 4-1 3 2-2 1-2-1h-2l-1 3 1 3 3 3 3-1ZM424 297l-1-1-2 4-3 1-3-2v-3l2-4 2-1-1-1-1-1-2 1-1 2v1l-2 1v-4l2-2 3-1 3 2 4 5 2 2Zm-4 1 1-2 1-2-2-2-1 1c-2 2-3 3-2 5h3ZM431 290l1-2v-2l2-1v4l-2 2-4 1-4-3-2-3 1-3 1-2 4-2 3 2-1 1-2-1-2 1-2 2 2 4 3 2h2ZM433 276l2-3c2-2 4-2 6 1l5 6-2 2-5-7-1-1h-2l-1 2-1 2 6 7-2 1-11-14 2-1ZM453 275l-4 2-4-3h-1l-1-3v-4l2-2 4-1 4 3v1l-6 5 2 2 3-1a4 4 0 0 0 2-3h1c1 2 0 3-2 4Zm-7-8-1 2 1 2 5-3v-1l-3-1-2 1Zm0 0"/></g><path transform="matrix(-2.91607 2.33874 -2.34187 -2.91997 440 188)" fill="none" d="M0 0h51" stroke="#000"/><path stroke-linecap="round" transform="matrix(-2.91607 2.33874 -2.34187 -2.91997 290 308)" fill="none" stroke-linejoin="round" d="m-2-2 1 2-1 2" stroke="#000"/><g fill="#0F0E0C"><path d="m222 232-2 2-8-12-3 4-1-2 3-5h1ZM227 227l-1-1 1-1h1l1 1v1l-1 1h-1v-1ZM244 209l1 4c0 2-1 3-3 4-1 1-3 2-5 1-2 0-3-1-5-3l-1-1-2-4a6 6 0 0 1 3-7l4-1 4 2-1 1-3-1-3 1-2 3 2 4 1 2 4 2h3l2-3-1-3ZM256 207l-1-1-2 3-3 1-3-1-1-3 3-4 2-1-1-1-1-1-2 1-2 1 1 2-2 1-1-2 1-2 2-2 3-1 3 2 3 4 2 2h1Zm-4 1 1-2v-2l-1-2-2 1c-2 2-2 3-1 4l1 1h2ZM263 199l1-1v-2l2-2v5l-2 2-4 1c-2 0-3-1-4-3l-2-3v-3l2-3 4-1 3 2-2 1-2-1-2 1-1 2 1 4h1l2 2 3-1ZM265 186l2-4c2-1 4-1 6 2l5 6-2 1-5-6-2-1h-2l-1 2v2l6 7-2 1-11-14 2-1ZM285 185c-2 1-3 2-5 1l-4-2v-1l-1-3v-3l2-2 4-1 4 3v1l-7 5 3 1h3a4 4 0 0 0 2-4h1c0 2 0 4-2 5Zm-7-9-1 2v3l5-4-2-1h-2ZM290 167l2-4c2-1 4-1 6 1l5 7-1 1-5-6-2-2-2 1-1 2v2l5 7-2 1-10-14 1-2ZM308 168l-2 1-8-10 2-1Zm-12-12v-1h1l1-1v1l1 1-1 1h-1l-1-1ZM303 151l2 3 2-2 1 2-2 1 5 6 1 1h1l1-1 1 1-1 2h-3l-2-1-4-7-2 2-1-2 2-1-2-2ZM316 160v-2h2l1 1-1 1-1 1-1-1Zm-6-8v-2h2l1 1-1 1-1 1-1-1ZM327 144l-3 3 4 5-2 2-10-14 5-3 4-2 4 2 1 3-1 3 7 3-2 2Zm-4 1 3-2 1-2v-2l-2-2-3 1-3 2ZM342 142l-4 1-4-2v-1l-2-3v-3l2-2c2-1 3-2 4-1 2 0 3 1 4 3h1l-7 5c1 1 1 2 3 2h2a4 4 0 0 0 2-4h2c0 2-1 4-3 5Zm-7-9-1 2 1 3 5-4-2-1h-3ZM354 133l-1-1-2 3-3 1-2-1-1-4 3-3 1-1v-1l-2-1-2 1-1 1v2l-1 1-1-2 1-2 1-2 4-1 3 2 3 4 2 2Zm-4 1 2-2v-2l-2-2-1 1c-2 2-3 3-2 4l2 1h1ZM354 125c-1-2-2-3-1-5l1-3c2-1 3-2 4-1l-4-6 2-1 11 14-2 2-1-1-2 3-4 1-4-3Zm2-1 3 2 3-1 1-3-4-5-3 1-1 2 1 4Zm0 0"/></g><g fill="#0F0E0C"><path d="m239 253-2-5 2-3c1-1 2-2 4-1l-4-6 1-1 11 15-1 1-1-1-2 3-4 1-4-3Zm2-1 2 2 3-1c1 0 2-2 1-3l-3-5-4 1-1 2 2 4ZM260 245l-1-1-2 3-3 1-3-1v-3c0-2 1-3 3-4l1-1v-1l-2-1-2 1-1 1v2l-2 1v-4l2-2 3-1c2 0 2 1 3 2l4 4 2 2Zm-4 1 1-2 1-2-2-2-1 1c-2 2-3 3-2 4l1 1h2ZM257 227l2 3 2-2 1 2-2 1 5 6 1 1h1l1-1 1 1-2 2h-2l-2-1-5-7-2 2-1-2 2-1-2-2ZM277 232l-1-1-2 4-3 1-3-2-1-3 3-3 2-2h-1l-1-1h-2l-2 2 1 1-2 2-1-2 1-2 2-2c1-1 2-2 3-1l3 1 3 5 2 2h1Zm-4 1 1-1v-2l-1-2-2 1c-2 1-2 3-1 4l1 1 2-1ZM287 225l-7-9-2 1-1-1 2-1-1-1-1-3 2-3 1-1 1 2h-1l-1 2 1 1 1 2 2-2 1 1-2 2 6 9ZM291 208l-1 1c-1 1-2 2-1 3l5 7-2 2-7-11 1-1 1 1 2-3h1ZM294 211l-1-3a5 5 0 0 1 2-6l5-1 4 3 1 3a5 5 0 0 1-2 6l-4 1c-2 0-3-1-4-3Zm2-1 3 2 3-1 1-2-1-4-3-2-3 1-1 2 1 4ZM304 196l1 1c0-1 0-2 2-3 1-1 2-2 4-1a5 5 0 0 1 2-4c2-2 4-1 6 1l5 7-2 1-5-7-2-1-2 1-1 2 1 2 5 7-2 1-5-7h-4l-1 3 5 7-1 1-8-10ZM334 187l2-2-1-2 2-1 1 2-1 2-2 2-4 2-4-3v-1l-2-3 1-3 2-2 3-1 3 2-1 1-2-1h-2l-2 3 2 3 3 3 2-1ZM347 179l-1-1-1 4-4 1-2-2-1-3 3-4 2-1-1-1-2-1-2 1-1 2v1l-1 2-1-2 1-3 1-2 4-1 3 2 3 5 2 2Zm-3 1 1-2v-2l-1-2-2 1c-2 2-3 3-2 5h4ZM355 172l1-2v-2l1-1 1 2-1 2-1 2-4 1c-2 0-3-1-5-3l-1-3v-3l2-2 4-2 3 2-2 1-2-1-2 1-1 2 1 4 3 2h3ZM357 158c0-1 0-3 2-3 2-2 4-2 6 1l5 6-2 2-5-7-2-1h-2l-1 2v2l5 7-1 1-11-14 2-1ZM377 157c-2 2-3 2-5 2l-4-3-1-3v-3l1-3 5-1 3 3 1 1-7 5 3 2 3-1a4 4 0 0 0 1-3h2l-2 4Zm-7-8-2 2 1 2 5-3v-1l-2-1-2 1Zm0 0"/></g><path transform="matrix(3.7454 0 0 3.74307 306 355)" fill="none" d="M0 0h89" stroke="#000"/><path stroke-linecap="round" transform="matrix(3.7454 0 0 3.74307 643 355)" fill="none" stroke-linejoin="round" d="m-3-1 2 1-2 2" stroke="#000"/><g fill="#0F0E0C"><path d="M408 407h-11v-1l6-7 2-2v-2l-1-2-2-1-2 1-1 2h-2l1-3 4-2 4 1 1 4-3 6-4 5h8ZM411 406v-1h2v2l-1 1-1-1v-1ZM436 402l-2 4-5 2c-2 0-3-1-5-3l-1-5v-6l3-3 3-1 5 2 2 4h-3l-1-3-3-1-3 2-1 4v2l1 4 3 2 3-1 1-3ZM446 407v-1l-4 2-3-1-1-3 2-3 4-1h2v-1l-1-2-2-1-2 1v1h-3l1-2 2-1h2l4 1 1 3v5l1 3Zm-3-1 2-1 1-1v-3h-2c-2 0-4 1-4 3l1 1 2 1ZM457 406l2-1 1-2h2l-1 2-2 2-2 1-5-2-1-5 1-3 2-3h3l3 1 2 3h-2a3 3 0 0 0-3-3l-3 1-1 4 1 4 3 1ZM466 396l4-1c3 0 4 1 4 4v8h-2v-8l-1-2-2-1-2 1-1 1v9h-2v-18h2ZM482 408l-4-2-1-5v-3l2-3h3l4 1 1 5v1h-8l1 3 3 1 2-1 1-1 1 1c-1 2-2 3-5 3Zm0-12-2 1-1 3h6l-1-3-2-1ZM498 395v1l4-1c1 0 3 0 3 2l2-2h2c3 0 5 1 5 4v8h-3v-10l-2-1-2 1-1 2v8h-2v-8c0-2-1-3-3-3l-3 2v9h-2v-12ZM519 407h-2v-12h2Zm-2-16 1-1 1 1v1l-1 1-1-1v-1ZM530 404l-1-1-2-1-3-1-1-1v-2l1-2 3-1 4 1 1 2h-2l-1-1-2-1-2 1v2l3 1 2 1 2 1v2l-1 3-4 1-2-1-2-1-1-2h2l1 1 2 1 2-1 1-1ZM542 404v-1l-3-1-2-1-2-1v-2l1-2 4-1 3 1 1 2h-2v-1l-2-1-2 1-1 1 1 1 2 1 3 1 1 1 1 2-2 3-3 1-3-1-2-1-1-2h3l1 1 2 1 2-1v-1ZM547 406l1-1h2v2l-1 1-1-1-1-1Zm0-10 1-1h2v2l-1 1-1-1-1-1ZM566 401h-4v6h-3v-17h6l4 2c2 1 2 2 2 3a5 5 0 0 1-3 5l4 7h-3Zm-4-2h3l3-1 1-3-1-2-3-1h-3ZM579 408l-4-2-2-5 1-3 2-3h3l4 1 1 5v1h-9l2 3 2 1 2-1 2-1 1 1c-1 2-3 3-5 3Zm0-12-2 1-1 3h6l-1-3-2-1ZM594 407v-1l-4 2-3-1-1-3 2-3 4-1h2v-1l-1-2-2-1-2 1v1h-3l1-2 2-1h2l4 1 1 3v5l1 3Zm-3-1 2-1 1-1v-3h-2c-2 0-4 1-4 3l1 1 2 1ZM599 401l1-5 4-1 4 1v-7h2v18h-2v-1l-4 2-4-2-1-5Zm2 0 1 4 3 1 3-2v-6l-3-2-3 2-1 3Zm0 0"/></g><g fill="#0F0E0C"><path d="m399 434 1-5 4-2 3 2v-7h3v18h-2l-1-1-3 2-4-2-1-5Zm2 0 1 4 2 1c2 0 3-1 3-2v-6c0-1-1-2-3-2l-2 2-1 3ZM421 440l-1-1-3 2-3-1-1-3 1-3 4-1h2v-3l-2-1-2 1-1 1h-2v-2l2-1 3-1 3 2c1 0 2 1 2 3v8Zm-4-1 2-1 1-1v-3h-1c-3 0-4 1-4 3v1l2 1ZM429 425v3h2v1h-2v9l1 1h1v1l-1 1-3-1v-11h-3v-1h3v-3ZM442 440l-1-1-3 2-3-1-2-3 2-3 4-1h2v-3l-2-1-2 1-1 1h-2v-2l2-1 3-1 3 2 1 3v5l1 3Zm-4-1 2-1 1-1v-3h-1c-3 0-4 1-4 3v1l2 1ZM454 440v-11h-2v-1h2v-2l1-3 3-1h1v2h-1l-1 1-1 1v2h3v1h-3v11ZM467 430h-1l-3 1v9h-2v-12h2v1a3 3 0 0 1 4-1ZM469 434v-3a5 5 0 0 1 5-4l5 2 1 5-1 3a5 5 0 0 1-5 4l-4-2-1-5Zm2 0 1 4 2 1 3-1 1-4-1-3-3-2-2 2-1 3ZM485 428v1l4-2 3 2 2-1 2-1c3 0 5 2 5 5v8h-3v-10l-2-1-2 1-1 2v8h-2v-8c0-2-1-3-3-3s-2 1-3 2v9h-2v-12ZM510 440v-17h5l4 1 2 3 1 4v1l-1 5-2 2-4 1Zm2-15v13h3l4-1 1-5v-1l-1-4-4-2ZM533 440v-1l-4 2-3-1-1-3 2-3 4-1h2v-1l-1-2-2-1-2 1v1h-3l1-2 2-1 2-1 4 2 1 3v5l1 3Zm-3-1 2-1 1-1v-3h-2c-2 0-4 1-4 3l1 1 2 1ZM541 425v3h3v1h-3v8l1 1 1 1h1v1l-2 1-2-1-1-3v-8h-2v-1h2v-3ZM554 440v-1l-4 2-3-1-1-3 1-3 5-1h2v-1l-1-2-2-1-2 1-1 1h-2l1-2 2-1 2-1 4 2 1 3v8Zm-3-1 1-1 2-1v-3h-2c-3 0-4 1-4 3l1 1 2 1ZM570 434l-1 5-4 2-4-2v1h-2v-18h3v7l3-2 4 2 1 5Zm-2 0-1-4-2-1c-2 0-3 1-3 2v6c0 1 1 2 3 2l2-1 1-4ZM581 440l-1-1-3 2-3-1-2-3 2-3 4-1h2v-3l-2-1-2 1-1 1h-2v-2l2-1 3-1 3 2 1 3v5l1 3Zm-4-1 2-1 1-1v-3h-1c-3 0-4 1-4 3v1l2 1ZM593 437v-1l-3-1-2-1-2-1v-2l1-2 3-2 4 2 1 2h-2l-1-1-2-1-1 1-1 1 1 1 2 1 2 1 2 1v2l-1 3-4 1-2-1-2-1-1-3h2l1 2 2 1 2-1 1-1ZM603 441l-4-2-1-5v-3l2-3 3-1 4 2 1 5v1h-8l1 3 3 1 1-1 2-1 1 1c-1 2-2 3-5 3Zm0-12-2 1-1 3h6l-1-3-2-1Zm0 0"/></g></svg>