<svg xmlns="http://www.w3.org/2000/svg" width="1280" viewBox="0 0 960 540" height="720" version="1.0"><defs><clipPath id="a"><path d="M1 0h958v539H1Zm0 0"/></clipPath></defs><g clip-path="url(#a)" fill="#FFF"><path d="M1 0h958v539H1Zm0 0"/><path d="M1 0h958v539H1Zm0 0"/><path d="M1 0h958v539H1Zm0 0"/></g><path stroke-linecap="round" transform="matrix(1.49224 .13874 -.12582 1.35335 264 167)" fill="none" d="M0 0h137" stroke="#737373"/><path stroke-linecap="round" transform="matrix(.4454 1.4229 -1.29712 .40603 247 194)" fill="none" d="M0 0h54" stroke="#737373"/><path stroke-linecap="round" transform="matrix(1.4117 .5007 -.45435 1.281 265 182)" fill="none" d="M1 0h255" stroke="#737373"/><path stroke-linecap="round" transform="rotate(45 -98 406) scale(1.49784 1.35919)" fill="none" d="M0 0h170" stroke="#737373"/><path stroke-linecap="round" transform="matrix(1.49723 0 0 1.35919 264 143)" fill="none" d="M0 0h292" stroke="#737373"/><path stroke-linecap="round" transform="matrix(1.35883 -.63178 .57303 1.23248 297 286)" fill="none" d="M0 0h126" stroke="#737373"/><path stroke-linecap="round" transform="matrix(.33904 -1.45871 1.3239 .3077 446 366)" fill="none" d="M0 0h95" stroke="#737373"/><path stroke-linecap="round" transform="matrix(-1.31282 -.72012 .65367 -1.19168 627 288)" fill="none" d="M0 0h94" stroke="#737373"/><path stroke-linecap="round" transform="matrix(1.48898 -.13389 .12173 1.35372 515 184)" fill="none" d="M0 0h120" stroke="#737373"/><path stroke-linecap="round" transform="matrix(1.42222 -.4669 .42395 1.29138 294 308)" fill="none" d="M0 0h286" stroke="#737373"/><path stroke-linecap="round" transform="matrix(1.19003 -.90858 .82481 1.08031 463 368)" fill="none" d="M1 0h205" stroke="#737373"/><path stroke-linecap="round" transform="matrix(.74839 -1.29624 1.17709 .6796 657 288)" fill="none" d="M1 0h76" stroke="#737373"/><path stroke-linecap="round" transform="matrix(1.45453 -.34816 .3164 1.32185 469 375)" fill="none" d="M0 0h116" stroke="#737373"/><path stroke-linecap="round" transform="matrix(1.3797 .57753 -.52482 1.25377 288 329)" fill="none" d="M1 0h106" stroke="#737373"/><path stroke-linecap="round" transform="matrix(1.49526 .02758 -.02506 1.35895 301 316)" fill="none" d="M0 0h211" stroke="#737373"/><path fill="#C1F9C1" d="M239 120a37 37 0 1 0 0 74 37 37 0 0 0 0-74"/><path fill="#FFF5F5" d="M276 271a37 37 0 1 0 0 74 37 37 0 0 0 0-74"/><path fill="#FFF6D1" d="M486 157a37 37 0 1 0 0 73 37 37 0 0 0 0-73"/><path fill="#DBF4FF" d="M450 345a37 37 0 1 0 0 73 37 37 0 0 0 0-73"/><path fill="#EBF7E7" d="M641 271a37 37 0 1 0 0 74 37 37 0 0 0 0-74"/><path fill="#F4F1F1" d="M721 120a37 37 0 1 0 0 74 37 37 0 0 0 0-74"/><path d="M226 161v9h-3v-23h8l6 2 2 5-2 5-6 2Zm0-2h5l4-2 1-3-1-3-4-1h-5ZM256 160c0 4 0 6-2 8-1 1-2 2-5 2l-5-2-2-7v-4c0-4 0-6 2-8l5-2 5 2c2 2 2 4 2 8Zm-3-4-1-5c0-1-1-2-3-2l-3 2-1 5v5l1 5 3 2 3-2 1-5ZM262 311v9h-3v-23h9l6 2 2 5-2 5-6 2Zm0-2h6l3-2c1 0 2-1 2-3l-2-3-3-1h-6ZM288 320h-3v-19l-5 2v-3l8-3ZM436 381v9h-3v-23h9l6 2 2 5-2 5-6 2Zm0-3h6l3-1 2-3-2-3-3-2h-6ZM468 390h-15v-2l8-9 2-3 1-3-1-3-3-1-4 1-1 4h-3l2-5c2-2 3-2 6-2l5 1 2 5c0 2-2 5-5 8l-6 6h12ZM627 309v9h-3v-23h9l5 2c2 1 3 3 3 5l-2 5-6 2Zm0-2h6l3-2c1 0 2-1 2-3l-2-3-3-1h-6ZM648 305h2l3-1 1-3c0-2-1-4-4-4l-3 1-1 3h-3l2-4c2-2 3-2 5-2 3 0 4 0 5 2 2 1 2 2 2 4l-1 3-2 2 3 2 1 4-2 4c-2 2-3 2-6 2-2 0-3 0-5-2l-2-4h3l1 3 3 1 4-1 1-3-1-3-4-1h-2ZM473 196v9h-3v-23h9c2 0 4 0 5 2 2 1 3 3 3 5s-1 4-3 5l-5 2Zm0-3h6l3-1 2-3c0-2-1-3-2-3l-3-2h-6ZM501 182v2h-1l-5 2-2 6c1-2 3-2 5-2s3 0 4 2c2 1 2 3 2 5l-2 6-5 2c-2 0-4-1-5-3-2-1-2-3-2-6v-1l2-10c2-2 5-3 8-3Zm-4 10-3 1-1 2v1l1 5 3 1 3-1 1-4-1-4-3-1ZM708 157v9h-3v-23h8l6 2 2 5-2 5-6 2Zm0-2h5l4-2 1-3-1-3-4-1h-5ZM725 154l1-11h12v3h-9l-1 6 4-1 5 2 2 6-2 5c-1 2-3 2-5 2l-5-1c-2-2-2-3-2-5h2l2 3 3 1 3-2 1-3-1-4-4-1h-3v1Zm0 0" fill="#0F0E0C"/></svg>