<svg xmlns="http://www.w3.org/2000/svg" width="1280" viewBox="0 0 960 540" height="720" version="1.0"><defs><clipPath id="a"><path d="M1 0h958v539H1Zm0 0"/></clipPath><clipPath id="b"><path d="M215 112h71v41h-71Zm0 0"/></clipPath><clipPath id="c"><path d="M215 372h71v40h-71Zm0 0"/></clipPath><clipPath id="d"><path d="M290 117h86v229h-86Zm0 0"/></clipPath><clipPath id="e"><path d="M126 178h85v220h-85Zm0 0"/></clipPath></defs><g clip-path="url(#a)" fill="#FFF"><path d="M1 0h958v539H1Zm0 0"/><path d="M1 0h958v539H1Zm0 0"/><path d="M1 0h958v539H1Zm0 0"/></g><g clip-path="url(#b)"><path fill="#545454" d="M266 142h-30a10 10 0 0 1 0-20h30a10 10 0 0 1 0 20Zm0-30h-30a20 20 0 0 0 0 40h30a20 20 0 0 0 0-40"/></g><path fill="#545454" d="M266 207h-30a10 10 0 0 1 0-20h30a10 10 0 0 1 0 20Zm0-30h-30a20 20 0 0 0 0 40h30a20 20 0 0 0 0-40M266 272h-30a10 10 0 0 1 0-20h30a10 10 0 0 1 0 20Zm0-30h-30a20 20 0 0 0 0 40h30a20 20 0 0 0 0-40M266 337h-30a10 10 0 0 1 0-20h30a10 10 0 0 1 0 20Zm0-30h-30a20 20 0 0 0 0 40h30a20 20 0 0 0 0-40"/><g clip-path="url(#c)"><path fill="#545454" d="M266 402h-30a10 10 0 0 1 0-20h30a10 10 0 0 1 0 20Zm0-30h-30a20 20 0 0 0 0 40h30a20 20 0 0 0 0-40"/></g><path fill="#545454" d="M246 157v15h10v-15h-10M246 222v15h10v-15h-10M246 287v15h10v-15h-10M246 352v15h10v-15h-10"/><g clip-path="url(#d)"><path fill="#545454" d="M351 117h-50v10h50c8 0 15 7 15 15v165c0 8-7 15-15 15h-43l6-6-7-7-15 15c-2 2-2 5 0 7l15 15 7-7-6-7h43c13 0 25-11 25-25V142c0-14-12-25-25-25"/></g><path fill="#545454" d="m307 216 7-7-6-7h23c13 0 25-11 25-25v-15c0-14-12-25-25-25h-30v10h30c8 0 15 7 15 15v15c0 8-7 15-15 15h-23l6-6-7-7-15 15c-2 2-2 5 0 7l15 15M194 244l-7 7 7 6h-23c-14 0-25 11-25 25v25c0 14 11 25 25 25h30v-10h-30c-9 0-15-7-15-15v-25c0-8 6-15 15-15h23l-7 7 7 7 15-15c2-2 2-5 0-7l-15-15"/><g clip-path="url(#e)"><path fill="#545454" d="m194 179-7 7 7 6h-43c-14 0-25 11-25 25v155c0 14 11 25 25 25h50v-10h-50c-9 0-15-6-15-15V217c0-8 6-15 15-15h43l-7 7 7 7 15-15c2-2 2-5 0-7l-15-15"/></g><path d="M511 139h-3v-10h-12v10h-3v-23h3v10h12v-10h3ZM515 131l1-5 2-3 4-1 6 2 2 7-1 4a7 7 0 0 1-7 4c-2 0-4 0-5-2-2-2-2-4-2-6Zm3 0 1 4c1 2 2 2 3 2 2 0 3 0 4-2l1-4-1-5-4-2-3 2-1 5ZM549 135l3-13h3l-5 17h-2l-5-13-4 13h-2l-5-17h3l3 13 4-13h3ZM570 118v4h3v2h-3v12l1 1h2v2h-2l-3-1-1-3v-11h-3v-2h3v-4ZM575 131l1-5 3-3 4-1 6 2 2 7-1 4a7 7 0 0 1-7 4c-2 0-4 0-6-2l-2-6Zm3 0 2 4c0 2 2 2 3 2s3 0 3-2l2-4-2-5-3-2-3 2-2 5ZM601 131l2-7 5-2 5 2v-9h3v24h-3v-2c-1 2-3 2-5 2s-3 0-5-2l-2-6Zm3 0 2 4c0 1 1 2 3 2l4-2v-8c-1-2-2-3-4-3s-3 1-3 2l-2 5ZM627 139c-2 0-4 0-5-2-2-1-3-3-3-6l1-5 3-3 4-1 5 2 2 6v2h-12l2 4 3 1 3-1 2-1 2 1c-2 2-4 3-7 3Zm0-15-3 2-2 3h9l-1-3-3-2ZM647 135l-1-2-3-1-3-1-2-2-1-2 2-4 4-1 5 1 2 4h-3l-1-2-3-1-2 1-1 2 1 1 3 1 3 2 2 1 1 2-2 4-5 1h-3l-3-2-1-3h3l1 2 3 1 3-1 1-1ZM657 139h-3v-17h3Zm-3-21v-1l1-1 2 1v2h-3v-1ZM661 131l1-7 5-2 5 2v-2h3v17l-2 5-5 2-4-1-2-2 1-2c1 2 3 2 5 2l3-1 1-3v-2c-1 2-3 2-5 2s-3 0-5-2l-1-6Zm3 0 1 4 3 2 4-2v-8c-1-2-2-3-4-3l-3 2-1 5ZM682 122v2l5-2c4 0 5 2 6 6v11h-3v-11l-1-3-3-1-2 1-2 2v12h-3v-17ZM715 139v-2c-2 2-3 2-5 2l-4-1-2-4 2-4 6-1h3v-1l-1-3-3-1-2 1-1 2h-3l1-3 2-1 3-1 5 1 2 4v12Zm-5-2 3-1 2-2v-3h-3c-3 0-5 1-5 3l1 2 2 1ZM729 131l2-7 5-2 5 2v-2h3v17l-2 5-6 2-3-1-3-2 2-2c1 2 2 2 4 2l4-1 1-3v-2c-1 2-3 2-5 2s-4 0-5-2l-2-6Zm3 0 1 4 4 2 4-2v-8c-1-2-2-3-4-3l-4 2-1 5ZM747 131l1-5 3-3 4-1 5 2c2 2 3 4 3 7l-1 4a7 7 0 0 1-7 4c-2 0-4 0-6-2l-2-6Zm3 0 1 4c1 2 2 2 4 2 1 0 3 0 3-2l2-4-2-5-3-2-4 2-1 5ZM765 131l1-5 3-3 4-1 6 2 2 7-1 4a7 7 0 0 1-7 4c-2 0-4 0-5-2l-3-6Zm3 0 2 4c0 2 2 2 3 2 2 0 3 0 4-2l1-4-1-5-4-2-3 2-2 5ZM784 131c0-3 0-5 2-7l4-2 5 2v-9h3v24h-3v-2c-1 2-3 2-5 2s-3 0-4-2c-2-2-2-4-2-6Zm3 0 1 4 3 2 4-2v-8c-1-2-2-3-4-3l-3 2-1 5ZM476 179l4-13h2l-5 17h-2l-4-12-4 12h-2l-5-17h3l3 13 4-13h2ZM485 175l1-5 2-3 4-1 6 2 2 7-1 4a7 7 0 0 1-7 5c-2 0-4-1-5-3-2-1-2-3-2-6Zm2 0 2 5 3 1 4-1 1-5-1-5-4-2-3 2-2 5ZM512 169h-2l-4 2v12h-2v-17h2v2l4-2h2ZM519 175l-2 2v6h-3v-24h3v15l2-2 5-6h4l-7 7 7 10h-3ZM532 183v-14h-3v-3h3v-1l1-5 5-1h1v3l-1-1-2 1-1 3v1h3v3h-3v14ZM545 183h-3v-24h3ZM549 175l1-5 2-3 4-1 6 2 2 7-1 4a7 7 0 0 1-7 5c-2 0-4-1-5-3-2-1-2-3-2-6Zm3 0 1 5 3 1 4-1 1-5-1-5-4-2-3 2-1 5ZM583 179l3-13h3l-5 17h-3l-4-12-4 12h-2l-5-17h3l3 13 4-13h3ZM606 184c-2 0-4-1-5-3-2-1-2-3-2-6l1-5 2-3 4-1 5 2 2 6v2h-11l1 4 4 1h2l2-2 2 1c-2 3-4 4-7 4Zm0-16-3 2-1 3h8l-1-3-3-2ZM619 166v3c2-2 3-3 5-3 4 0 6 2 6 6v11h-3v-11l-1-3h-5l-2 2v12h-3v-17ZM633 175l2-7 5-2 5 2v-2h3v17l-2 5-6 2-3-1-3-2 2-2c1 2 2 3 4 3l4-2 1-3v-1l-5 2c-2 0-4-1-5-3l-2-6Zm3 0 1 5 4 1 4-2v-8c-1-2-3-2-4-2l-4 1-1 5ZM655 183h-3v-17h3Zm-3-21v-1l2-1 1 1v2l-1 1-2-1v-1ZM662 166l1 3c1-2 2-3 5-3s5 2 5 6v11h-3v-11l-1-3h-5l-1 2v12h-3v-17ZM684 184c-2 0-4-1-5-3-2-1-2-3-2-6l1-5 2-3 4-1 5 2 2 6v2h-12l2 4 3 1h3l2-2 2 1c-2 3-4 4-7 4Zm0-16-3 2-1 3h8l-1-3-3-2ZM704 183v-14h-3v-3h3v-1l1-5 4-1h2v3l-2-1-2 1-1 3v1h4v3h-4v14ZM712 175l1-5 3-3 4-1 6 2 2 7-1 4a7 7 0 0 1-7 5c-2 0-4-1-5-3-2-1-3-3-3-6Zm3 0 2 5 3 1 4-1 1-5-1-5-4-2-3 2-2 5ZM740 169h-2l-4 2v12h-3v-17h3v2l4-2h2ZM753 168l5-2c4 0 5 2 5 6v11h-2v-11l-1-3h-5l-2 2v12h-3v-24h3ZM771 183h-3v-17h3Zm-3-21v-1l1-1 2 1v2l-2 1-1-1v-1ZM775 175c0-3 0-5 2-7l4-2c3 0 4 1 5 2v-2h3v17l-2 5-5 2-4-1-2-2 1-2c1 2 3 3 5 3l3-2 1-3v-1l-5 2c-2 0-3-1-4-3-2-1-2-4-2-6Zm3 0 1 5 3 1 4-2v-8c-1-2-2-2-4-2l-3 1-1 5ZM796 168l5-2c4 0 6 2 6 6v11h-3v-11l-1-3h-5l-2 2v12h-3v-24h3ZM814 183h-3v-24h3ZM824 179l4-13h3l-7 20c-1 3-2 4-5 4h-1v-2h1l2-1 1-2 1-2-6-17h3ZM527 223l-1-2-3-1-4-1-1-2-1-2 2-3 4-2 5 2 2 4h-3l-1-2-3-1h-2l-1 2 1 2 3 1 3 1 2 1 1 3-2 3-5 2-3-1-3-2-1-3h3l1 3h6l1-2ZM540 225l3-1 1-2h3l-1 3-2 2-4 1c-2 0-4-1-5-3-2-1-2-3-2-6l1-5a7 7 0 0 1 6-4l5 2 2 4h-3l-1-2-3-1-3 1-1 5 1 5 3 1ZM561 227l-1-1-5 2-4-2-1-3c0-2 0-3 2-4l5-2h3v-1l-1-2-2-1h-3l-1 2h-3l1-2 2-2 4-1 4 2 2 4v8l1 3Zm-5-2h2l2-2v-4h-2c-4 0-5 1-5 3l1 2 2 1ZM571 227h-3v-23h3ZM586 227l-1-1-4 2-5-2-1-3 2-4 6-2h2v-1l-1-2-2-1h-3l-1 2h-3l1-2 3-2 3-1 4 2c2 1 2 2 2 4v8l1 3Zm-5-2h3l1-2v-4h-2c-3 0-5 1-5 3l1 2 2 1ZM607 219l-2 6c-1 2-3 3-5 3l-4-2-1 1h-2v-23h3v8l4-2c2 0 4 1 5 3l2 6Zm-3 0-1-5-3-1-4 2v8l4 2 3-1 1-5ZM614 227h-3v-23h3ZM625 228l-5-2c-2-2-2-4-2-7l1-5 2-3 4-1 5 2 2 7v1h-11l1 4 4 1h2l2-2 2 2c-2 2-4 3-7 3Zm0-15-3 1-1 3h8l-1-3-3-1ZM653 223l-1-2-3-1-3-1-2-2-1-2 2-3 4-2 5 2 2 4h-3l-1-2-3-1h-2l-1 2 1 2 3 1 3 1 2 1 1 3-2 3-5 2-3-1-3-2v-3h2l2 3h5l1-2ZM665 223l4-12h3l-7 19c-1 3-2 4-5 4h-1v-2h1l2-1 1-2 1-2-6-16h3ZM685 223l-1-2-3-1-4-1-2-2v-2l1-3 5-2 5 2 1 4h-3l-1-2-2-1h-3v4l3 1 4 1 2 1v3l-1 3-5 2-4-1-2-2-1-3h3l1 3h6l1-2ZM695 207v4h3v2h-3v10l1 2h2v2l-2 1-3-1-1-4v-10h-3v-2h3v-4ZM709 228l-6-2-2-7 1-5 3-3 3-1c3 0 4 1 5 2 2 2 2 4 2 7v1h-11l1 4 4 1h2l2-2 2 2c-1 2-3 3-6 3Zm-1-15-3 1-1 3h8l-1-3-3-1ZM721 211v1l5-2c3 0 4 1 5 3l2-2 4-1c3 0 5 2 5 6v11h-3v-13l-3-1-3 1-1 2v11h-3v-11c0-2-1-3-4-3l-4 2v12h-2v-16ZM756 223v-2l-4-1-3-1-2-2-1-2 2-3 5-2 4 2c2 1 2 2 2 4h-3l-1-2-2-1h-3l-1 2 1 2 3 1 4 1 2 1v3c0 1 0 2-2 3l-4 2-4-1-2-2-1-3h3l1 3h5l1-2ZM766 221l1-3 1-2 2-2 2-4-1-2-3-1-2 1-1 2h-3l2-4 4-2 5 2 2 4-3 6-2 1-1 4Zm0 5 1-1 1-1 1 1 1 1-1 1-1 1-1-1-1-1Zm0 0" fill="#040505"/><path d="M514 324a5 5 0 0 1-3 4 5 5 0 0 1-6-1 5 5 0 0 1-1-2 5 5 0 0 1 2-5 5 5 0 0 1 5-1 5 5 0 0 1 3 5ZM548 333v-22h6l5 1 4 4 1 5v2l-1 5-4 4-5 1Zm3-20v18h3l5-2c2-2 2-4 2-6v-2c0-2 0-4-2-6-1-1-2-2-5-2ZM575 334c-2 0-4-1-5-3-2-1-2-3-2-6l1-5 2-3 4-1 5 2 2 6v2h-12l2 4 3 1h3l2-2 2 1c-2 2-4 4-7 4Zm0-16-3 2-1 3h8l-1-3-3-2ZM595 329l-1-2-3-1-3-1-2-2-1-2 2-3 4-2 5 2 2 3h-3l-1-2-3-1-2 1-1 2 1 2 3 1 3 1 2 1 1 3-2 3-5 2-3-1-3-2v-3h2l2 2 2 1h3l1-2ZM605 333h-3v-17h3Zm-3-21v-1l1-1 2 1v2l-2 1-1-1v-1ZM609 325c0-3 0-5 2-7l4-2 5 2v-2h3v17l-2 5-5 2-4-1-2-2 1-2c1 2 3 3 5 3l3-2 1-3v-1l-5 2c-2 0-3-1-4-3-2-1-2-4-2-6Zm3 0 1 5 3 1 4-2v-8c-1-2-2-2-4-2l-3 1-1 5ZM630 316v3c1-2 3-3 5-3 4 0 6 2 6 6v11h-3v-11l-1-3h-5l-2 2v12h-3v-17ZM670 326l-3 6-6 2-6-3c-2-2-2-5-2-8v-2l1-6a8 8 0 0 1 8-5l6 2 2 6h-3l-2-4-3-1c-2 0-4 0-5 2l-1 6v2l1 6 4 2 4-1 2-4ZM677 318l5-2c3 0 5 2 5 6v11h-3v-11l-1-3h-5l-1 2v12h-3v-24h3ZM702 333l-1-2c-1 2-3 3-5 3l-4-2-1-3c0-2 0-4 2-4l5-2h3v-1l-1-3-2-1-3 1-1 2h-3l1-2 2-2 4-1 4 2 2 4v7l1 4Zm-5-2 2-1 2-1v-4h-2c-4 0-5 1-5 3l1 2 2 1ZM712 333h-3v-24h3ZM720 333h-3v-24h3ZM731 334c-2 0-4-1-5-3-2-1-3-3-3-6l1-5 3-3 4-1 5 2 2 6v2h-12l2 4 3 1h3l2-2 1 1c-1 2-3 4-6 4Zm0-16-3 2-2 3h9l-1-3-3-2ZM744 316v3c1-2 3-3 5-3 3 0 5 2 5 6v11h-3v-14h-5l-2 2v12h-3v-17ZM758 325l2-7 5-2 4 2 1-2h2v17c0 2 0 4-2 5l-5 2-3-1c-2 0-3-1-3-2l1-2c2 2 3 3 5 3l3-2 1-3v-1l-4 2c-2 0-4-1-5-3l-2-6Zm3 0 1 5 3 1 4-2v-8c-1-2-2-2-4-2l-3 1-1 5ZM784 334c-3 0-5-1-6-3l-2-6 1-5 2-3 4-1 5 2c2 2 2 4 2 6v2h-11l1 4 4 1h2l2-2 2 1c-1 2-4 4-6 4Zm-1-16-3 2-1 3h8l-1-3-3-2ZM803 329l-1-2-3-1-3-1-2-2-1-2 2-3 5-2 4 2 2 3h-3l-1-2-2-1-3 1-1 2 1 2 3 1 4 1 2 1v3c0 1 0 2-2 3l-4 2-4-1-2-2-1-3h3l1 2 3 1h2l1-2ZM514 368a5 5 0 0 1-3 5 5 5 0 0 1-6-1 5 5 0 0 1-1-3 5 5 0 0 1 2-5 5 5 0 0 1 5 0 5 5 0 0 1 3 4ZM549 377v-22h6l5 1 4 4 1 5v2l-1 5-4 4-5 1Zm3-20v18h3l5-2 2-6v-2l-2-6-5-2ZM576 378l-6-2-2-7 1-5 3-3 4-1 5 2 2 7v1h-12l2 4 3 1h3l2-2 1 1c-1 3-3 4-6 4Zm0-15-3 1-2 3h9l-1-3-3-1ZM596 373l-1-2-3-1-4-1-2-2v-2c0-1 0-2 2-3l4-2 5 2 2 4h-3l-1-3h-5l-1 2 1 2 3 1 3 1 2 1 1 3-2 3-5 2-3-1-3-2-1-3h3l1 3h6l1-2ZM606 377h-3v-16h3Zm-4-21 1-1 1-1 1 1 1 1-1 1-1 1-1-1-1-1ZM610 369l1-6c2-2 3-3 5-3l5 2v-1h3v16l-2 5-5 2-4-1-3-2 2-2 4 3 4-1 1-4v-1l-5 2c-2 0-3-1-5-3l-1-6Zm2 0 2 5 3 1 4-2v-8l-4-2-3 1-2 5ZM631 361v2c1-2 3-3 5-3 4 0 5 2 5 6v11h-3v-13l-3-1h-2l-2 2v12h-3v-16ZM657 369v8h-3v-22h8c3 0 5 0 6 2 2 1 2 3 2 5s0 4-2 5l-6 2Zm0-3h5l4-1 1-3-1-4-3-1h-6ZM682 363h-1l-4 2v12h-3v-16h3v2c1-2 2-3 4-3h1ZM688 377h-3v-16h3Zm-3-21v-1l1-1 2 1v2l-2 1-1-1v-1ZM695 361v2c1-2 3-3 5-3 4 0 6 2 6 6v11h-3v-11l-1-2-3-1h-2l-2 2v12h-3v-16ZM717 375l2-1 2-2h2l-1 3-2 2-3 1c-3 0-4-1-6-3l-2-6 1-5a7 7 0 0 1 7-4l4 2c2 1 2 3 2 4h-2l-2-2-2-1-4 1-1 5 1 5 4 1ZM730 377h-3v-16h3Zm-3-21v-1l1-1 2 1v2l-2 1-1-1v-1ZM749 369l-2 6c-1 2-3 3-5 3l-5-2v8h-3v-23h3v1l5-2c2 0 4 1 5 3l2 6Zm-3 0-1-5-4-1c-2 0-3 0-4 2v8c1 2 2 2 4 2l4-1 1-5ZM755 377h-2v-24h2ZM767 378l-6-2-2-7 1-5 3-3 4-1 5 2 2 7v1h-12l2 4 3 1h3l2-2 1 1c-1 3-3 4-6 4Zm0-15-3 1-2 3h9l-1-3-3-1ZM787 373l-1-2-3-1-4-1-2-2v-2c0-1 0-2 2-3l4-2 5 2 2 4h-3l-1-3h-5l-1 2 1 2 3 1 3 1 2 1 1 3-2 3-5 2-3-1-3-2-1-3h3l1 3h6l1-2ZM514 412a5 5 0 0 1-3 5 5 5 0 0 1-6-1 5 5 0 0 1-1-3 5 5 0 0 1 2-5 5 5 0 0 1 3-1 5 5 0 0 1 5 5ZM548 422v-23h7l5 1 3 4 2 5v2l-2 6-3 3-6 2Zm3-21v18h3l6-2 2-6v-1l-2-6c-1-2-3-3-5-3ZM576 422l-6-2-2-6v-1l1-4c1-2 1-3 3-3l3-2c2 0 4 1 5 3 2 1 2 3 2 6v1h-11l1 4 4 2 2-1 2-2 2 2c-1 2-4 3-6 3Zm-1-15-3 1-1 4h8v-1l-1-3-3-1ZM595 417v-2l-4-1-3-1-2-1-1-3 2-3 5-2 4 2c2 1 2 2 2 4h-3l-1-2-2-1h-3l-1 2 1 2 3 1 4 1 2 2v2c0 1 0 3-2 4l-4 1-4-1-2-2-1-3h3l1 3 3 1 2-1 1-2ZM605 422h-3v-17h3Zm-3-22v-1h3v2l-1 1-2-1v-1ZM609 413l2-6c1-2 3-3 5-3s3 1 5 3v-2h2v16c0 2 0 4-2 5-1 2-3 2-5 2l-3-1c-2 0-2-1-3-2l1-1 5 2 3-1 1-4v-1l-4 2-5-2-2-7Zm3 0 1 5 3 1c2 0 4 0 4-2v-8l-4-2c-1 0-2 0-3 2l-1 4ZM630 405l1 2c1-2 2-3 5-3s5 2 5 6v12h-3v-12l-1-2-2-1-3 1-1 2v12h-3v-17ZM670 419c0 1-1 2-3 2l-5 1-5-1-3-4-1-6v-2l2-8 7-2 6 1 2 6h-3c0-3-2-5-5-5l-4 2c-2 2-2 4-2 6v2l2 6c1 2 2 2 4 2h3l2-1v-5h-5v-3h8ZM685 420c-1 1-2 2-5 2l-4-2-1-4v-11h3v11c0 2 1 3 3 3s4 0 4-2v-12h3v17h-3ZM696 422h-3v-17h3Zm-3-22v-1h3v2l-2 1-1-1v-1ZM700 413l1-6c2-2 3-3 5-3l5 2v-8h3v24h-3v-2l-5 2-5-2-1-7Zm3 0 1 5 3 1c2 0 3 0 4-2v-8l-4-2c-1 0-3 0-3 2l-1 4ZM725 422l-5-2c-2-2-2-4-2-6v-1l1-4c0-2 1-3 2-3l4-2c2 0 4 1 5 3l2 6v1h-12l2 4 3 2 3-1 2-2 2 2c-2 2-4 3-7 3Zm0-15-3 1-1 4h8v-1l-1-3-3-1ZM738 422h-2v-24h2ZM746 422h-3v-17h3Zm-3-22v-1h3v2l-1 1-2-1v-1ZM753 405l1 2c1-2 3-3 5-3 3 0 5 2 5 6v12h-3v-12l-1-2-2-1-3 1-1 2v12h-3v-17ZM775 422l-5-2c-2-2-2-4-2-6v-1l1-4c0-2 1-3 2-3l4-2c2 0 4 1 5 3l2 6v1h-11l1 4 4 2 2-1 2-2 2 2c-2 2-4 3-7 3Zm0-15-3 1-1 4h8v-1l-1-3-3-1ZM795 417l-1-2-3-1-3-1-2-1-1-3 2-3 4-2 5 2 2 4h-3l-1-2-3-1h-2l-1 2 1 2 3 1 3 1 2 2 1 2-2 4-5 1-3-1-3-2v-3h2l2 3 2 1 3-1 1-2Zm0 0"/></svg>