<svg xmlns="http://www.w3.org/2000/svg" width="1280" viewBox="0 0 960 540" height="720" version="1.0"><defs><clipPath id="a"><path d="M1 0h958v539H1Zm0 0"/></clipPath><clipPath id="b"><path d="M432 243h69v69h-69Zm0 0"/></clipPath><clipPath id="c"><path d="M491 287h35v34h-35Zm0 0"/></clipPath><clipPath id="d"><path d="M501 261h27v27h-27Zm0 0"/></clipPath><clipPath id="e"><path d="M155 242h71v70h-71Zm0 0"/></clipPath><clipPath id="f"><path d="M213 102h16v29h-16Zm0 0"/></clipPath><clipPath id="g"><path d="M213 140h16v29h-16Zm0 0"/></clipPath><clipPath id="h"><path d="M159 111h28v50h-28Zm0 0"/></clipPath><clipPath id="i"><path d="M190 367h7v6h-7Zm0 0"/></clipPath><clipPath id="j"><path d="M190 424h7v6h-7Zm0 0"/></clipPath><clipPath id="k"><path d="M162 395h6v7h-6Zm0 0"/></clipPath><clipPath id="l"><path d="M219 395h6v7h-6Zm0 0"/></clipPath><clipPath id="m"><path d="M729 102h30v12h-30Zm0 0"/></clipPath><clipPath id="n"><path d="M758 102h40v12h-40Zm0 0"/></clipPath><clipPath id="o"><path d="M729 120h30v13h-30Zm0 0"/></clipPath><clipPath id="p"><path d="M758 120h40v13h-40Zm0 0"/></clipPath><clipPath id="q"><path d="M729 139h30v12h-30Zm0 0"/></clipPath><clipPath id="r"><path d="M758 139h40v12h-40Zm0 0"/></clipPath><clipPath id="s"><path d="M729 157h30v12h-30Zm0 0"/></clipPath><clipPath id="t"><path d="M758 157h40v12h-40Zm0 0"/></clipPath><clipPath id="u"><path d="M774 247h31v63h-31Zm0 0"/></clipPath><clipPath id="v"><path d="M777 251h28v59h-28Zm0 0"/></clipPath><clipPath id="w"><path d="M773 247h32v63h-32Zm0 0"/></clipPath><clipPath id="x"><path d="M723 242h10v10h-10Zm0 0"/></clipPath><clipPath id="y"><path d="M723 273h10v11h-10Zm0 0"/></clipPath><clipPath id="z"><path d="M723 305h10v10h-10Zm0 0"/></clipPath><clipPath id="A"><path d="M736 391h68v46h-68Zm0 0"/></clipPath><clipPath id="B"><path d="M727 391h69v46h-69Zm0 0"/></clipPath><clipPath id="C"><path d="M727 391h77v46h-77Zm0 0"/></clipPath><clipPath id="D"><path d="M727 360h77v58h-77Zm0 0"/></clipPath><clipPath id="E"><path d="M727 360h65v77h-65Zm0 0"/></clipPath><clipPath id="F"><path d="M740 360h64v77h-64Zm0 0"/></clipPath></defs><g clip-path="url(#a)" fill="#FFF"><path d="M1 0h958v539H1Zm0 0"/><path d="M1 0h958v539H1Zm0 0"/><path d="M1 0h958v539H1Zm0 0"/></g><g clip-path="url(#b)"><path fill="#545454" d="M464 294a18 18 0 1 1 4-34 18 18 0 0 1-4 34Zm36-13v-5c0-2-1-3-3-3h-3c-1-3-1-6-3-8l3-2c1-1 2-3 1-4l-4-5h-4l-3 2c-2-3-5-4-9-6l1-3c0-2-1-3-3-3l-5-1c-2 0-3 1-4 3v3l-12 3-2-2c-1-1-3-2-4 0l-4 3c-1 1-2 3 0 4l2 3c-3 3-4 6-5 10h-3c-2 0-4 1-4 3v5c0 2 1 3 3 3h3c1 3 1 6 3 8l-3 2c-1 1-2 3-1 4l4 5h4l3-2c2 3 5 4 9 6l-1 3c0 2 1 3 3 3l5 1c2 0 3-1 4-3v-3l12-3 2 2c1 1 3 2 4 0l4-3c2-1 2-3 1-4l-3-3c3-3 4-6 5-10h3c2 0 4-1 4-3"/></g><g clip-path="url(#c)"><path fill="#545454" d="M509 313a9 9 0 1 1 0-17 9 9 0 0 1 0 17Zm17-9-1-2-1-2h-2l-2-3 2-2v-2l-2-2h-2l-2 2-5-3v-1l-1-2h-3l-1 2v1l-6 3-1-1h-2l-2 2v2l1 1-1 6h-2c-1 0-2 0-1 1v3l1 1h2l2 4-1 1v2l1 2h3l1-1 5 2v2l1 1h3l1-1v-2l6-2 1 1h2l2-2v-3l-1-1 2-5h1l2-2"/></g><g clip-path="url(#d)"><path fill="#545454" d="M515 280a6 6 0 1 1 0-12 6 6 0 0 1 0 12Zm13-6v-2l-2-1h-1l-1-2 1-1v-2l-2-1h-2l-4-1v-1l-1-2h-2l-1 2v1l-5 2v-1h-2l-1 2v1l1 1-2 4h-1l-1 1v2l1 1h2l1 3-1 1v2l1 1h2l1-1 4 2v1l1 1h2l1-1v-1l4-2 1 1h2l1-2v-1l-1-1 1-4h2l1-2"/></g><g clip-path="url(#e)"><path fill="#737373" d="M171 245c6 0 11 2 11 4s-5 5-11 5c-7 0-12-3-12-5s5-4 12-4Zm0 27c-7 0-12-2-12-4v-3c3 2 7 3 12 3s9-1 11-3v3c0 2-4 4-11 4Zm11-15c-2 2-6 3-11 3-6 0-10-1-12-3v-5c2 2 7 3 12 3s9-1 11-3Zm-23 2c3 2 7 3 12 3s9-1 11-3v4c-2 2-6 3-11 3-6 0-10-1-12-3Zm48 12-2-4h5Zm-36 19-3-4h5Zm-1-15v10h-3a1 1 0 0 0-1 1l4 6h1l4-6v-1h-3v-10c7 0 13-2 13-7v-6h21v4h-3v1l4 6h1l4-6v-1h-3v-5l-2-1h-22v-11c0-5-7-7-14-7-8 0-15 2-15 7v19c0 5 7 7 14 7Zm47 21v-1h6l1 1Zm6-4v2h-6v-2Zm-31-15h30v2h-30Zm18 17h-6v-2h6Zm-6 2v-1h6l1 1Zm-7-2h-6v-2h6Zm-6 2v-1h6l1 1Zm35 1-1-2v-4l-1-1h-3v-8h3l1-1v-6l-1-1h-33l-1 1v6l1 1h3v8h-3l-1 1v4l-1 2v1h10l1-1-1-2v-4l-1-1h-3v-8h12v8h-3l-1 1v4l-1 2v1h10l1-1-1-2v-4l-1-1h-3v-8h12v8h-3l-1 1v4l-1 2v1h10a1 1 0 0 0 1-1Zm-67 12 2-3h20l1 3Zm21-13v8h-19v-8Zm4 9v-10l-2-2h-23l-1 2v10l-2 5v1l1 1h27a2 2 0 0 0 2-2l-2-5"/></g><path fill="#545454" d="M195 115h9v3h-9Zm0 0"/><path fill="#545454" d="m210 116-7-5v11Zm-15 37h9v4h-9Zm0 0"/><path fill="#545454" d="m210 155-7-5v10Zm-15-39h4v39h-4Zm0 0"/><path fill="#545454" d="M190 134h7v3h-7Zm0 0"/><g clip-path="url(#f)"><path fill="#C1F9C1" d="M213 102h16v28h-16Zm0 0"/></g><path fill="#FCFCFC" d="M217 106h8v3h-8Zm0 5h8v4h-8Zm0 0"/><path fill="#FFF" d="M221 122a3 3 0 1 0 0 5 3 3 0 0 0 0-5Zm0 0"/><g clip-path="url(#g)"><path fill="#C1F9C1" d="M213 141h16v28h-16Zm0 0"/></g><path fill="#FCFCFC" d="M217 144h8v4h-8Zm0 6h8v3h-8Zm0 0"/><path fill="#FFF" d="M221 160h-1a3 3 0 0 0-1 2 3 3 0 0 0 0 3h1a3 3 0 0 0 2 0 3 3 0 0 0 1-1 3 3 0 0 0 0-2 3 3 0 0 0-1-2h-1Zm0 0"/><g clip-path="url(#h)"><path fill="#C1F9C1" d="M159 111h28v49h-28Zm0 0"/></g><path fill="#FFF" d="M173 150a4 4 0 1 0 1 6 3 3 0 0 0 2-1 3 3 0 0 0-1-4l-1-1h-1Zm0 0"/><path fill="#FCFCFC" d="M162 115h21v7h-21Zm0 0"/><path fill="#545454" d="M178 116a2 2 0 0 0-1 1 2 2 0 0 0 2 3 2 2 0 0 0-1-4Zm0 0"/><path fill="#FCFCFC" d="M162 125h21v7h-21Zm0 0"/><path fill="#545454" d="M178 127h-1a2 2 0 0 0-1 2 2 2 0 0 0 1 1 2 2 0 0 0 2 0 2 2 0 0 0 1-2 2 2 0 0 0-1-1h-1Zm0 0"/><path fill="#FCFCFC" d="M162 136h21v7h-21Zm0 0"/><path fill="#545454" d="M178 137a2 2 0 0 0-1 1 2 2 0 0 0-1 2 2 2 0 0 0 4-1 2 2 0 0 0-1-1 2 2 0 0 0-1-1Zm0 0"/><g clip-path="url(#i)"><path fill="#545454" d="M196 369a3 3 0 0 1 0 2 3 3 0 0 1-4 0l-1-1a3 3 0 0 1 0-2 3 3 0 0 1 2-1 3 3 0 0 1 3 0v2Zm0 0"/></g><path fill="#545454" d="M199 379v-3c0-1-1-3-3-3h-4c-3 0-3 2-3 3v3Zm0 0"/><g clip-path="url(#j)"><path fill="#545454" d="M196 428a3 3 0 0 1-2 2 3 3 0 0 1-3-2v-2a3 3 0 0 1 4-1 3 3 0 0 1 1 3Zm0 0"/></g><path fill="#545454" d="M189 417v4c0 1 0 3 3 3h4c2 0 3-2 3-3v-4Zm0 0"/><g clip-path="url(#k)"><path fill="#545454" d="M167 398v1a3 3 0 0 1-1 2 3 3 0 0 1-3-1l-1-1a3 3 0 0 1 0-2 3 3 0 0 1 1-1 3 3 0 0 1 4 1v1Zm0 0"/></g><path fill="#545454" d="M175 393h-4c-1 0-3 1-3 3v5c0 2 2 2 3 2h4Zm0 0"/><g clip-path="url(#l)"><path fill="#545454" d="M225 398a3 3 0 1 1-5 0 3 3 0 0 1 5 0Zm0 0"/></g><path fill="#545454" d="M213 403h3c1 0 3 0 3-3v-4c0-2-2-3-3-3h-3ZM176 378a3 3 0 0 1-3 3 3 3 0 0 1-3-3v-1a3 3 0 0 1 4-2 3 3 0 0 1 2 3ZM184 381l-3-2c-1-1-2-2-4 0l-3 3v4l3 3ZM217 419a3 3 0 0 1-1 2 3 3 0 0 1-4 0v-1a3 3 0 0 1 0-2 3 3 0 0 1 1-2 3 3 0 0 1 4 2v1ZM203 415l3 3h4l3-3c2-2 1-3 0-4l-2-3ZM176 419a3 3 0 1 1-6 0 3 3 0 0 1 6 0ZM177 408l-3 3v4l3 3h4l3-3ZM217 378v1a3 3 0 0 1-2 1 3 3 0 0 1-3 0v-1a3 3 0 0 1 0-2 3 3 0 0 1 1-2 3 3 0 0 1 4 2v1ZM211 389l2-3c1-1 2-3 0-4l-3-3c-1-2-3-1-4 0l-3 2Zm0 0"/><path fill="#C1F9C1" d="M194 419a21 21 0 1 1 0-41 21 21 0 0 1 0 41Zm0-39a19 19 0 1 0 0 37 19 19 0 0 0 0-37Zm0 0"/><path fill="#C1F9C1" d="M194 419c-6 0-11-9-11-21 0-11 5-20 11-20s10 9 10 20c0 12-4 21-10 21Zm0-39c-5 0-9 8-9 18s4 19 9 19c4 0 8-9 8-19s-4-18-8-18Zm0 0"/><path fill="#C1F9C1" d="M194 409c-12 0-21-5-21-11s9-10 21-10c11 0 20 4 20 10s-9 11-20 11Zm0-19c-10 0-19 4-19 8 0 5 9 9 19 9s18-4 18-9c0-4-8-8-18-8Zm0 0"/><path fill="#C1F9C1" d="m194 419-1-1v-39a1 1 0 0 1 2 0v39l-1 1Zm0 0"/><path fill="#C1F9C1" d="M213 399h-39a1 1 0 0 1 0-2h39a1 1 0 1 1 0 2Zm0 0"/><g clip-path="url(#m)"><path fill="#737373" d="m754 103-2 1 3 3h-10v-4l-1-1h-14l-1 1v10l1 1h14l1-1v-4h10l-3 3 2 1 5-4v-2Zm-11 9h-12v-7h12Zm0 0"/></g><g clip-path="url(#n)"><path fill="#737373" d="M797 102h-37l-1 1v10l1 1h32c3 0 6-3 6-6v-5l-1-1Zm-1 6c0 2-2 4-4 4h-31v-7h35Zm0 0"/></g><g clip-path="url(#o)"><path fill="#737373" d="m754 121-2 2 3 2h-10v-3l-1-1h-14l-1 1v9l1 1h14l1-1v-3h10l-3 2 2 2 5-5v-1Zm-11 9h-12v-7h12Zm0 0"/></g><g clip-path="url(#p)"><path fill="#737373" d="M797 121h-37l-1 1v9l1 1h32c3 0 6-2 6-6v-4l-1-1Zm-1 5c0 2-2 4-4 4h-31v-7h35Zm0 0"/></g><g clip-path="url(#q)"><path fill="#737373" d="m754 139-2 2 3 3h-10v-4l-1-1h-14l-1 1v9l1 2h14l1-2v-3h10l-3 3 2 1 5-4a1 1 0 0 0 0-2Zm-11 9h-12v-7h12Zm0 0"/></g><g clip-path="url(#r)"><path fill="#737373" d="M797 139h-37l-1 1v9l1 2h32c3 0 6-3 6-6v-5l-1-1Zm-1 6c0 2-2 3-4 3h-31v-7h35Zm0 0"/></g><g clip-path="url(#s)"><path fill="#737373" d="m754 158-2 1 3 3h-10v-3l-1-2h-14l-1 2v9l1 1h14l1-1v-4h10l-3 3 2 2 5-5v-2Zm-11 9h-12v-7h12Zm0 0"/></g><g clip-path="url(#t)"><path fill="#737373" d="M797 157h-37l-1 2v9l1 1h32c3 0 6-3 6-6v-4l-1-2Zm-1 6c0 2-2 4-4 4h-31v-7h35Zm0 0"/></g><g clip-path="url(#u)"><path fill="#FFF" d="M804 290v18l-1 2h-28l-1-2v-18 1-42l2-1h26l2 1v42-1"/></g><path fill="#FFF" d="M780 253a1 1 0 1 1-3 0 1 1 0 0 1 3 0M785 253l-1 1a1 1 0 1 1 0-3l1 2M780 267a1 1 0 1 1-3 0 1 1 0 0 1 3 0M785 267l-1 1a1 1 0 1 1 0-3l1 2M780 280a1 1 0 1 1-3 0 1 1 0 0 1 3 0M785 280a2 2 0 0 1-3 0l2-1 1 1M801 293a2 2 0 1 1-3 0 2 2 0 0 1 3 0M723 247a4 4 0 1 0 9 0 4 4 0 0 0-9 0M740 276l10-10h5l10 10v5l-10 10c-2 2-4 2-5 0l-10-10v-5"/><path fill="#FFF" d="M757 285h-9l-1-1 1-8 1-1h7l1 1 1 8-1 1M731 283h-6l-2-1v-6l2-1h6l1 1v6l-1 1M731 315h-6l-2-1v-6l2-1h6l1 1v6l-1 1"/><g clip-path="url(#v)"><path fill="#C1F9C1" d="M804 291v17l-1 2h-24l-1-2v-17 1-39l1-2h24l1 2v39-1"/></g><path fill="#737373" d="M739 279h-5l1-1h4l1 1h-1M770 279h-5l1-1h4l1 1h-1M751 311h-17l1-1h16l1-1v-17a1 1 0 1 1 1 0v17l-2 2M752 266v-18h-17l-1-1 1-1h16l2 2v17l-1 1"/><path fill="#FFF1BA" d="M780 253a1 1 0 1 1-3 0 1 1 0 0 1 3 0M785 253l-1 1a1 1 0 1 1 0-3l1 2"/><path fill="#737373" d="M800 255h-1v-4a1 1 0 0 1 2 0v4h-1M797 255h-1v-4a1 1 0 0 1 2 0v4h-1"/><path fill="#FFF1BA" d="M780 267a1 1 0 1 1-3 0 1 1 0 0 1 3 0M785 267l-1 1a1 1 0 1 1 0-3l1 2"/><path fill="#737373" d="m800 269-1-1v-3a1 1 0 0 1 2 0v3l-1 1M797 269l-1-1v-3a1 1 0 0 1 2 0v3l-1 1"/><path fill="#FFF1BA" d="M780 280a1 1 0 1 1-3 0 1 1 0 0 1 3 0M785 280a2 2 0 0 1-3 0l2-1 1 1"/><path fill="#737373" d="m800 283-1-1v-4a1 1 0 0 1 2 0v4l-1 1M797 283l-1-1v-4h2v4l-1 1"/><path fill="#FFF1BA" d="M801 293a2 2 0 1 1-3 0 2 2 0 0 1 3 0"/><path fill="#737373" d="M778 252v1a1 1 0 0 0 1 0l-1-1Zm0 3-2-2a2 2 0 0 1 5 0c0 1-1 2-3 2M784 252a1 1 0 1 0 0 2 1 1 0 0 0 0-2Zm0 3c-2 0-3-1-3-2a2 2 0 0 1 5 0l-2 2M778 266v1a1 1 0 0 0 1 0l-1-1Zm0 3-2-2a2 2 0 1 1 2 2M784 266a1 1 0 1 0 0 1 1 1 0 0 0 0-1Zm0 3c-2 0-3-1-3-2a2 2 0 0 1 5 0l-2 2M778 280v1l1-1h-1Zm0 3c-1 0-2-1-2-3a2 2 0 1 1 2 3M784 280a1 1 0 1 0 0 1 1 1 0 0 0 0-1Zm0 3c-2 0-3-1-3-3a2 2 0 1 1 3 3M799 292l-1 1 1 1a1 1 0 1 0 0-2Zm0 3a2 2 0 1 1 0-4 2 2 0 0 1 0 4M801 260h-24a1 1 0 1 1 0-1h24a1 1 0 1 1 0 1M801 274h-24a1 1 0 1 1 0-2h24l1 1-1 1M801 288h-24l-1-1h26l-1 1"/><g clip-path="url(#w)"><path fill="#737373" d="M775 290v19h28v-60l-1-1h-26l-1 1Zm28 20h-28l-2-2v-59l3-2h26c2 0 3 1 3 2v59l-2 2"/></g><path fill="#FFF1BA" d="m727 249 2 2c2 0 3-1 3-2s-1-2-3-2l-2 2"/><path fill="#C1F9C1" d="m742 279 9-8h5l9 6v4l-10 11h-4l-9-9v-4"/><path fill="#FFF1BA" d="M757 285h-9l-1-1 1-8 1-1h7l1 1 1 8-1 1"/><path fill="#737373" d="m749 276-1 1v7c-1 0 0 0 0 0v1h9v-1l-1-7v-1Zm8 10h-9l-1-1-1-1 1-8 2-1h7l2 1 1 8-1 1-1 1"/><path fill="#737373" d="M750 276h-1l1-6c1-1 3-1 4 1v1h-1l-2-1v4a1 1 0 0 1-1 1M752 279Zm0 1-1-1a1 1 0 0 1 3 0l-2 1"/><path fill="#737373" d="M752 283v-3a1 1 0 0 1 1 0v2l-1 1M729 278h-3l-1-1h5l-1 1"/><path fill="#545454" d="M731 283h-3l-1-1v-3h5v3l-1 1"/><path fill="#737373" d="M729 310h-3l-1-1h4a1 1 0 1 1 0 1"/><path fill="#545454" d="M731 315h-3l-1-1v-3h5v3l-1 1"/><g clip-path="url(#x)"><path fill="#737373" d="M728 243c-2 0-4 2-4 4a4 4 0 0 0 7 0c0-2-2-4-3-4Zm0 9c-3 0-5-2-5-5a5 5 0 0 1 9 0c0 3-2 5-4 5"/></g><path fill="#737373" d="M740 276Zm12-10-1 1-11 10v4l11 10h3l10-10a3 3 0 0 0 0-4l-10-10-2-1Zm0 27-2-1-11-10-1-3 1-3 11-10c1-2 4-2 5 0l10 10a4 4 0 0 1 0 6l-10 10-3 1"/><g clip-path="url(#y)"><path fill="#737373" d="m725 275-1 1v6h7v-7Zm6 8h-6l-2-1v-6l2-2h6l1 2v6l-1 1"/></g><g clip-path="url(#z)"><path fill="#737373" d="m725 307-1 1v6h7v-7Zm6 8h-6l-2-1v-6l2-2h6l1 2v6l-1 1"/></g><path stroke-linecap="round" transform="matrix(-1.87616 -1.23678 1.1691 -1.77347 382 238)" fill="none" d="M0 0h72" stroke="#545454"/><path stroke-linecap="round" transform="matrix(-1.87616 -1.23678 1.1691 -1.77347 246 148)" fill="none" stroke-linejoin="round" d="m-2-2 1 2-2 1" stroke="#545454"/><path stroke-linecap="round" transform="matrix(-2.24666 0 0 -2.12414 375 281)" fill="none" d="M1 0h56" stroke="#545454"/><path stroke-linecap="round" transform="matrix(-2.24666 0 0 -2.12414 246 281)" fill="none" stroke-linejoin="round" d="m-3-2 2 2-2 2" stroke="#545454"/><path stroke-linecap="round" transform="matrix(-2.09575 .79315 -.75185 -1.98663 383 338)" fill="none" d="M1 0h63" stroke="#545454"/><path stroke-linecap="round" transform="matrix(-2.09575 .79315 -.75185 -1.98663 246 390)" fill="none" stroke-linejoin="round" d="m-2-2 2 2-3 1" stroke="#545454"/><path stroke-linecap="round" transform="matrix(2.09623 -.81197 .76723 1.98074 563 234)" fill="none" d="M0 0h70" stroke="#545454"/><path stroke-linecap="round" transform="matrix(2.09623 -.81197 .76723 1.98074 711 177)" fill="none" stroke-linejoin="round" d="m-3-1 2 1-1 2" stroke="#545454"/><path stroke-linecap="round" transform="matrix(2.25093 0 0 2.12414 577 279)" fill="none" d="M0 0h54" stroke="#545454"/><path stroke-linecap="round" transform="matrix(2.25093 0 0 2.12414 702 279)" fill="none" stroke-linejoin="round" d="m-2-1 1 1-1 2" stroke="#545454"/><path stroke-linecap="round" transform="matrix(2.08673 .84302 -.79566 1.9695 563 330)" fill="none" d="M0 0h71" stroke="#545454"/><path stroke-linecap="round" transform="matrix(2.08673 .84302 -.79566 1.9695 713 391)" fill="none" stroke-linejoin="round" d="m-3-2 3 2-2 2" stroke="#545454"/><g clip-path="url(#A)"><path transform="matrix(1.20396 0 0 1.21204 727 360)" fill="none" d="M36 58h13a2 2 0 0 0 2-2v-2" stroke="#474545" stroke-width="2" stroke-miterlimit="10"/></g><g clip-path="url(#B)"><path transform="matrix(1.20396 0 0 1.21204 727 360)" fill="none" d="M28 58H15a2 2 0 0 1-2-2v-2" stroke="#474545" stroke-width="2" stroke-miterlimit="10"/></g><g clip-path="url(#C)"><path transform="matrix(1.20396 0 0 1.21204 727 360)" fill="none" d="M36 58a4 4 0 0 1-2 4 4 4 0 0 1-2 0 4 4 0 0 1-4-2 4 4 0 0 1 0-3 4 4 0 0 1 6-2 4 4 0 0 1 2 3Zm0 0" stroke="#474545" stroke-width="2" stroke-miterlimit="10"/></g><path transform="matrix(1.20396 0 0 1.21204 727 360)" fill="none" d="M31 58h2M32 39V27M32 51v-2M32 47v-2M32 43v-2" stroke="#474545" stroke-width="2" stroke-miterlimit="10"/><path fill="#737373" d="M761 383h10v7h-10Zm0 0"/><path fill="#FFF" d="M751 362h29v21h-29Zm0 0"/><g clip-path="url(#D)"><path transform="matrix(1.20396 0 0 1.21204 727 360)" fill="none" d="m44 18-1 1H21l-1-1V2l1-1h22l1 1Zm0 0" stroke="#474545" stroke-width="2" stroke-miterlimit="10"/></g><path transform="matrix(1.20396 0 0 1.21204 727 360)" fill="none" d="M38 24H26" stroke="#DFE3E6" stroke-width="2" stroke-miterlimit="10"/><path fill="#C1F9C1" d="M755 365h22v15h-22Zm0 0"/><path transform="matrix(1.20396 0 0 1.21204 727 360)" fill="none" d="M27 15h2M31 15h2M35 15h2" stroke="#474545" stroke-width="2" stroke-miterlimit="10"/><path fill="#737373" d="M738 416h10v6h-10Zm0 0"/><path fill="#FFF" d="M728 394h29v22h-29Zm0 0"/><g clip-path="url(#E)"><path transform="matrix(1.20396 0 0 1.21204 727 360)" fill="none" d="m25 45-1 1H2l-1-1V29l1-1h22l1 1Zm0 0" stroke="#474545" stroke-width="2" stroke-miterlimit="10"/></g><path transform="matrix(1.20396 0 0 1.21204 727 360)" fill="none" d="M19 51H7" stroke="#DFE3E6" stroke-width="2" stroke-miterlimit="10"/><path fill="#C1F9C1" d="M732 398h22v15h-22Zm0 0"/><path transform="matrix(1.20396 0 0 1.21204 727 360)" fill="none" d="M8 42h2M12 42h2M16 42h2" stroke="#474545" stroke-width="2" stroke-miterlimit="10"/><path fill="#737373" d="M784 416h9v6h-9Zm0 0"/><path fill="#FFF" d="M774 394h29v22h-29Zm0 0"/><g clip-path="url(#F)"><path transform="matrix(1.20396 0 0 1.21204 727 360)" fill="none" d="m63 45-1 1H40l-1-1V29l1-1h22l1 1Zm0 0" stroke="#474545" stroke-width="2" stroke-miterlimit="10"/></g><path transform="matrix(1.20396 0 0 1.21204 727 360)" fill="none" d="M57 51H45" stroke="#DFE3E6" stroke-width="2" stroke-miterlimit="10"/><path fill="#C1F9C1" d="M778 398h21v15h-21Zm0 0"/><path transform="matrix(1.20396 0 0 1.21204 727 360)" fill="none" d="M46 42h2M50 42h2M54 42h2" stroke="#474545" stroke-width="2" stroke-miterlimit="10"/></svg>