<svg xmlns="http://www.w3.org/2000/svg" width="1280" viewBox="0 0 960 540" height="720" version="1.0"><defs><clipPath id="a"><path d="M1 0h958v539H1Zm0 0"/></clipPath><clipPath id="b"><path d="M506 127h184v59H506Zm0 0"/></clipPath><clipPath id="c"><path d="M270 127h185v59H270Zm0 0"/></clipPath><clipPath id="d"><path d="M270 306h112v58H270Zm0 0"/></clipPath><clipPath id="e"><path d="M270 216h112v58H270Zm0 0"/></clipPath><clipPath id="f"><path d="M270 172h113v58H270Zm0 0"/></clipPath><clipPath id="g"><path d="M270 261h112v58H270Zm0 0"/></clipPath><clipPath id="h"><path d="M388 354h184v58H388Zm0 0"/></clipPath></defs><g clip-path="url(#a)" fill="#FFF"><path d="M1 0h958v539H1Zm0 0"/><path d="M1 0h958v539H1Zm0 0"/><path d="M1 0h958v539H1Zm0 0"/></g><path fill="#545454" d="M480 176c-51 0-92 13-92 29 0 9 13 17 33 22 16 4 36 7 59 7s44-3 60-7c19-5 32-13 32-22 0-16-41-29-92-29"/><g clip-path="url(#b)"><path fill="#545454" d="M514 168c21 2 41 8 53 16a275 275 0 0 0 91-6c19-5 32-13 32-22 0-16-41-29-92-29s-92 13-92 29c0 4 3 8 8 12"/></g><path fill="#545454" d="M598 327h-16v11c0 3-1 7-3 10 2 2 3 4 3 7v8h16c51 0 92-13 92-29v-28c-6 5-15 10-30 14-17 5-39 7-62 7M598 238l-16-1v12c0 4-1 7-3 10l3 6v8l16 1c51 0 92-13 92-29v-29c-6 6-15 10-30 14-17 5-39 8-62 8"/><path fill="#545454" d="m598 194-20-1a20 20 0 0 1 1 22c2 1 3 4 3 6v8l16 1c51 0 92-13 92-29v-28c-6 5-15 9-30 14-17 4-39 7-62 7M598 282h-16v11c0 4-1 7-3 10 2 2 3 4 3 7v8h16c51 0 92-13 92-29v-28c-6 5-15 10-30 14-17 5-39 7-62 7"/><g clip-path="url(#c)"><path fill="#545454" d="M303 178a234 234 0 0 0 90 6c12-8 32-14 53-16 5-4 8-8 8-12 0-16-41-29-92-29-50 0-92 13-92 29 0 9 13 17 33 22"/></g><g clip-path="url(#d)"><path fill="#545454" d="M379 327a292 292 0 0 1-78-7c-15-4-25-9-31-14v28c0 16 42 29 92 29h17v-8c0-3 1-5 3-7-2-3-3-7-3-10v-11"/></g><g clip-path="url(#e)"><path fill="#545454" d="m362 274 17-1v-8l2-6-2-10v-12a292 292 0 0 1-78-7c-15-4-25-8-31-14v29c0 16 42 29 92 29"/></g><g clip-path="url(#f)"><path fill="#545454" d="M301 187c-15-5-25-9-31-14v28c0 16 42 29 92 29l17-1v-8l2-6a20 20 0 0 1 2-22 290 290 0 0 1-82-6"/></g><g clip-path="url(#g)"><path fill="#545454" d="M362 318h17v-8l2-7-2-10v-11a292 292 0 0 1-78-7c-15-4-25-9-31-14v28c0 16 42 29 92 29"/></g><g clip-path="url(#h)"><path fill="#545454" d="M480 405a12 12 0 1 1 0-23 12 12 0 0 1 0 23Zm0-29c-22 0-44-3-62-7-14-4-24-9-30-14v28c0 16 41 29 92 29s92-13 92-29v-28c-6 5-15 10-30 14-17 4-39 7-62 7"/></g><path fill="#545454" d="M480 317a12 12 0 1 1 0-23 12 12 0 0 1 0 23Zm0-31c-22 0-44-2-62-7-14-4-24-9-30-14v28c0 16 41 29 92 29s92-13 92-29v-28c-6 5-15 10-30 14-17 5-39 7-62 7"/><path fill="#545454" d="M480 361a12 12 0 1 1 0-23 12 12 0 0 1 0 23Zm0-30c-22 0-44-3-62-7-14-4-24-9-30-14v28c0 16 41 29 92 29s92-13 92-29v-28c-6 5-15 10-30 14-17 4-39 7-62 7M480 273a12 12 0 1 1 0-24 12 12 0 0 1 0 24Zm0-31c-22 0-44-2-62-7-14-4-24-9-30-14v28c0 16 41 29 92 29s92-13 92-29v-28c-6 5-15 10-30 14-17 5-39 7-62 7"/></svg>