<svg xmlns="http://www.w3.org/2000/svg" width="1280" viewBox="0 0 960 540" height="720" version="1.0"><defs><clipPath id="a"><path d="M1 0h958v539H1Zm0 0"/></clipPath><clipPath id="b"><path d="M170 283h136v77H170Zm0 0"/></clipPath><clipPath id="c"><path d="M170 215h123v42H170Zm0 0"/></clipPath><clipPath id="d"><path d="M170 266h114v44H170Zm0 0"/></clipPath><clipPath id="e"><path d="M262 228h61v60h-61Zm0 0"/></clipPath></defs><g clip-path="url(#a)" fill="#FFF"><path d="M1 0h958v539H1Zm0 0"/><path d="M1 0h958v539H1Zm0 0"/><path d="M1 0h958v539H1Zm0 0"/></g><g clip-path="url(#b)"><path stroke-linecap="round" transform="matrix(.36322 0 0 .36371 152 194)" fill="none" stroke-linejoin="round" d="M359 346c-6 3-12 4-19 4H81c-15 0-27 11-27 27v49c0 11 5 20 16 25a385558 385558 0 0 1 284 2 26 26 0 0 0 28-29c3-8-2-11-8-14l-14-7c-3-2-4-4-4-7v-18c0-2 2-4 4-6 5-4 8-9 10-16-1-3-3-5-6-7-6-4-7-11-8-18l1-12c1-5 1-9 5-11 3-3 3-6 2-8l-4-7c-3-3-4-8-4-13v-18l1-5c1-6 3-7 9-7l19 3c8 1 15-2 22-3s8 1 10 8v5l1 130c0 6-2 10-7 12-9 4-18 10-28 12" stroke="#000" stroke-width="10"/></g><g clip-path="url(#c)"><path stroke-linecap="round" transform="matrix(.36322 0 0 .36371 152 194)" fill="none" stroke-linejoin="round" d="m383 97-2-12c-2-12-13-22-27-22H83c-8 0-16 2-22 8a26 26 0 0 0-7 19v49c0 16 12 27 27 27h217l10 1" stroke="#000" stroke-width="10"/></g><g clip-path="url(#d)"><path stroke-linecap="round" transform="matrix(.36322 0 0 .36371 152 194)" fill="none" stroke-linejoin="round" d="m312 204-15 3H79a26 26 0 0 0-23 15 26 26 0 0 0-2 10v52a26 26 0 0 0 16 23 26 26 0 0 0 9 2h259c7 0 13 1 20 3" stroke="#000" stroke-width="10"/></g><g clip-path="url(#e)"><path stroke-linecap="round" transform="matrix(.36322 0 0 .36371 152 194)" fill="none" stroke-linejoin="round" d="M359 251c-5-6-13-9-19-14-8-6-14-13-19-22l-7-8-2-6-3-32v-3c4-8 5-17 9-24 12-22 29-36 54-41 7-2 13-2 21-1a75 75 0 0 1 55 29 75 75 0 0 1 15 40 76 76 0 0 1-36 72l-12 10" stroke="#000" stroke-width="10"/></g><path stroke-linecap="round" transform="matrix(.36322 0 0 .36371 152 194)" fill="none" stroke-linejoin="round" d="M387 149c0 2-2 2-3 2-13 1-22 11-22 24a24 24 0 0 0 4 16 25 25 0 0 0 14 9c15 4 28-4 31-17 4-15-4-28-17-31l-7-1M294 114H178M239 258h-62M239 402h-61M386 304h-20M371 356h19" stroke="#000" stroke-width="10"/><path fill="#FCFCFC" d="M533 243H399c-6 0-10-5-10-11v-34c0-5 4-10 10-10h134c6 0 10 5 10 10v34c0 6-4 11-10 11M533 338H399c-6 0-10-4-10-10v-34c0-6 4-10 10-10h134c6 0 10 4 10 10v34c0 6-4 10-10 10M533 431H399c-6 0-10-4-10-10v-34c0-6 4-10 10-10h134c6 0 10 4 10 10v34c0 6-4 10-10 10"/><path d="m439 223-3 3v8h-2v-23h2v12l11-12h3l-9 10 10 13h-4ZM460 234c-2 0-4 0-6-2l-2-6 1-5 3-3 4-1 5 2 2 6v1h-12l2 4 3 2 3-1 2-1 1 1c-1 2-3 3-6 3Zm0-15-3 1-2 4h9l-1-4-3-1ZM476 230l3-13h4l-7 20c-1 2-3 4-5 4h-2v-3h3l2-2v-2l-6-17h3ZM502 234h-3v-19l-6 2v-3l9-3ZM436 320l-3 3v7h-3v-22h3v11l10-11h3l-8 10 9 12h-3ZM456 331c-2 0-4-1-5-3-2-1-2-3-2-6l1-5 2-3 4-1 5 2 2 6v2h-11l1 4 4 1h2l2-2 2 1c-2 3-4 4-7 4Zm0-16-3 2-1 3h8l-1-3-3-2ZM472 326l4-13h3l-7 20c-1 3-3 4-5 4h-2v-2h1l2-1 2-2v-2l-6-17h4ZM504 330h-15v-2l8-9 2-3 1-2-1-3-3-1-3 1-2 3h-2c0-2 0-3 2-5l5-2 5 2 2 4c0 3-2 5-4 8l-7 7h12ZM436 413l-3 3v7h-3v-22h3v11l10-11h3l-8 10 9 12h-3ZM456 424l-5-2c-2-2-2-4-2-7l1-5 2-3 4-1 5 2 2 7v1h-11l1 4 4 1h2l2-2 2 2c-2 2-4 3-7 3Zm0-15-3 1-1 3h8l-1-3-3-1ZM472 419l4-12h3l-7 19c-1 3-3 4-5 4h-2v-2h1l2-1 2-2v-2l-6-16h4ZM493 411h2l4-1 1-3c0-3-2-4-4-4l-3 1-1 3h-3c0-2 0-4 2-5l5-2 5 2 2 5-1 3-3 2 3 2 1 3-2 5-5 2-5-2c-2-1-2-3-2-5h2c0 2 1 3 2 3l3 1 3-1 1-3-1-3-4-1h-2Zm0 0" fill="#0F0E0C"/><path fill="#FCFCFC" d="M780 243H646c-6 0-11-5-11-11v-34c0-5 5-10 11-10h134c6 0 10 5 10 10v34c0 6-4 11-10 11M780 338H646c-6 0-11-4-11-10v-34c0-6 5-10 11-10h134c6 0 10 4 10 10v34c0 6-4 10-10 10M780 431H646c-6 0-11-4-11-10v-34c0-6 5-10 11-10h134c6 0 10 4 10 10v34c0 6-4 10-10 10"/><path d="m674 230 6-19h4l-9 23h-2l-9-23h3ZM697 234l-1-2c-1 2-3 2-5 2l-4-1-1-4c0-1 0-3 2-4l5-1h3v-2l-1-2-2-1-3 1-1 2h-3l1-3 2-1 4-1 4 1 2 4v8l1 4Zm-5-2 2-1 2-2v-3h-2c-4 0-5 1-5 3l1 2 2 1ZM707 234h-3v-24h3ZM722 232c-1 2-3 2-5 2l-4-1-2-5v-11h3v11c0 3 1 4 3 4 3 0 4-1 5-3v-12h3v17h-3ZM736 234c-2 0-4 0-6-2l-2-6 1-5 3-3 4-1 5 2 2 6v1h-12l2 4 3 2 3-1 2-1 1 1c-1 2-3 3-6 3Zm0-15-3 1-2 4h9l-2-4-2-1ZM763 234h-3v-19l-6 2v-3l9-3ZM670 326l7-18h3l-8 22h-3l-9-22h4ZM693 330v-1l-5 2-4-2-2-3 2-4 6-2h2v-4l-3-1-3 1-1 2h-3l1-2 3-2 3-1 5 2 1 4v7l1 4Zm-5-2 3-1 1-1v-4h-2c-3 0-5 1-5 3l1 2 2 1ZM703 330h-3v-24h3ZM718 329l-5 2-4-2-1-5v-11h2v11c0 3 2 4 4 4l4-2v-13h3v17h-3ZM732 331c-2 0-4-1-5-3-2-1-2-3-2-6v-5l3-3 4-1 5 2 2 6v2h-12l2 4 3 1h3l2-2 2 1c-2 3-4 4-7 4Zm0-16-3 2-1 3h8l-1-3-3-2ZM765 330h-15v-2l8-9 2-3 1-2-1-3-3-1-4 1-1 3h-3l2-5 6-2 5 2 2 4c0 3-2 5-5 8l-6 7h12ZM670 419l7-18h3l-8 22h-3l-9-22h4ZM693 423v-1l-5 2-4-2-2-3 2-4 6-2h2v-3l-3-1h-3l-1 2h-3l1-2 3-2 3-1 5 2 1 4v8l1 3Zm-5-2h3l1-2v-4h-2c-3 0-5 1-5 3l1 2 2 1ZM703 423h-3v-23h3ZM718 422l-5 2-4-2-1-4v-11h2v10c0 3 2 4 4 4s3 0 4-2v-12h3v16h-3ZM732 424l-5-2c-2-2-2-4-2-7v-5l3-3 4-1 5 2 2 7v1h-12l2 4 3 1h3l2-2 2 2c-2 2-4 3-7 3Zm0-15-3 1-1 3h8l-1-3-3-1ZM754 411h2l3-1 2-3c0-3-2-4-4-4l-3 1-2 3h-2c0-2 0-4 2-5l5-2 5 2 1 5-1 3-2 2 3 2 1 3-2 5-5 2-6-2-2-5h3l1 3 4 1 3-1 1-3-1-3-4-1h-2Zm0 0" fill="#0F0E0C"/><path fill="#C1F9C1" d="M533 174H399c-6 0-10-4-10-10v-46c0-6 4-10 10-10h134c6 0 10 4 10 10v46c0 6-4 10-10 10"/><path d="m448 141-2 3v8h-3v-23h3v11l10-11h3l-9 10 10 13h-3ZM469 152l-5-2c-2-2-2-4-2-6v-5l3-3 4-2c2 0 4 1 5 3l2 6v1h-12l2 4 3 2 3-1 2-2 2 2c-2 2-4 3-7 3Zm0-15-3 1-1 4h8v-1l-1-3-3-1ZM485 147l4-12h3l-7 19c-1 3-3 4-5 4h-2v-2h1l2-1 2-2v-2l-6-16h4Zm0 0" fill="#030F1A"/><path fill="#FFF6D1" d="M780 174H646c-6 0-11-4-11-10v-46c0-6 5-10 11-10h134c6 0 10 4 10 10v46c0 6-4 10-10 10"/><path d="m683 148 7-19h3l-9 23h-2l-9-23h4ZM706 152l-1-2-4 2-4-1-2-4 2-4 6-2h2v-3l-3-1-3 1-1 1h-3l1-2 3-2 3-1 5 2 1 4v8l1 3v1Zm-5-3h3l1-2v-4h-2c-3 0-5 2-5 4l1 2h2ZM716 152h-3v-24h3ZM731 150l-5 2-4-2-1-4v-11h2v11c0 2 1 4 4 4 2 0 3-1 4-3v-12h3v17h-3ZM745 152l-5-2-3-6v-1l1-4 3-3 4-2c2 0 4 1 5 3l2 6v1h-12l2 4 3 2 3-1 2-2 2 2c-2 2-4 3-7 3Zm0-15-3 1-2 4h9v-1l-1-3-3-1Zm0 0" fill="#030F1A"/><path stroke-linecap="round" transform="matrix(1.50315 0 0 1.33087 544 218)" fill="none" d="M0 0h58" stroke="#000"/><path stroke-linecap="round" transform="matrix(1.50315 0 0 1.33087 636 218)" stroke-linejoin="round" d="m-2-1 1 1-1 2Zm0 0" stroke="#000"/><path stroke-linecap="round" transform="matrix(1.50315 0 0 1.33087 544 312)" fill="none" d="M0 0h58" stroke="#000"/><path stroke-linecap="round" transform="matrix(1.50315 0 0 1.33087 636 312)" stroke-linejoin="round" d="m-2-1 1 1-1 1Zm0 0" stroke="#000"/><path stroke-linecap="round" transform="matrix(1.50315 0 0 1.33087 544 406)" fill="none" d="M0 0h58" stroke="#000"/><path stroke-linecap="round" transform="matrix(1.50315 0 0 1.33087 636 406)" stroke-linejoin="round" d="m-2-1 1 1-1 1Zm0 0" stroke="#000"/></svg>