<svg xmlns="http://www.w3.org/2000/svg" width="1280" viewBox="0 0 960 540" height="720" version="1.0"><defs><clipPath id="a"><path d="M1 0h958v539H1Zm0 0"/></clipPath></defs><g clip-path="url(#a)" fill="#FFF"><path d="M1 0h958v539H1Zm0 0"/><path d="M1 0h958v539H1Zm0 0"/><path d="M1 0h958v539H1Zm0 0"/></g><path fill="#C1F9C1" d="M226 186H105c-10 0-19-8-19-18v-62c0-10 9-18 19-18h121c11 0 19 8 19 18v62c0 10-8 18-19 18"/><path d="M114 139v8h-3v-20h8l5 2 2 4-2 5-5 1Zm0-2h5l3-1 1-3-1-3-3-1h-5ZM138 145c-1 2-3 2-5 2l-3-1-1-4v-10h2v10c0 2 1 3 3 3l4-2v-11h2v15h-2ZM156 140l-1 5-4 2-5-2v2h-2v-21h2v8c2-2 3-2 5-2l4 2 1 5Zm-2-1-1-4-3-1-4 2v7l4 2 3-1 1-5ZM162 147h-2v-21h2ZM169 147h-2v-15h2Zm-3-19 1-1h2v2l-1 1-1-1-1-1ZM182 143l-1-2-3-1-3-1-1-1-1-2 2-3 4-1 4 1 1 3h-2l-1-1-2-1-3 1v2l3 1 3 1 2 2v2l-1 3-4 1h-3l-3-2v-3h2l1 2 3 1h2l1-2ZM190 134l5-2c3 0 4 2 4 5v10h-2v-10l-1-2-2-1-2 1-2 1v11h-2v-21h2ZM209 147l-5-2-2-5v-1l1-3 3-3 3-1c2 0 3 0 4 2l2 5v1h-10l1 4 3 1h3l1-2 2 1c-2 2-3 3-6 3Zm0-13-3 1-1 3h7l-1-3-2-1ZM225 134h-1l-4 2v11h-2v-15h2v2a4 4 0 0 1 5-2Zm0 0" fill="#0F0E0C"/><path d="M137 393h-2v-19h2ZM144 379v2c1-2 3-3 5-3 3 0 4 2 4 6v9h-2v-9l-1-3h-4l-2 2v10h-2v-14ZM170 386l-2 6-4 2-4-2v7h-3v-20h2v1l5-2 4 2 2 6Zm-3 0-1-4-3-1c-2 0-3 0-3 2v7c0 1 1 2 3 2l3-2 1-4ZM182 392l-4 2-4-2-1-4v-9h2v9c0 2 1 4 3 4s3-1 4-3v-10h2v14h-2ZM192 375v4h2v2h-2v10l1 1 1-1v2l-2 1-2-1-1-3v-9h-3v-2h3v-4ZM134 426l-3 5-5 2-6-3-2-7v-2l1-4a7 7 0 0 1 7-5l5 2c2 1 2 3 3 5h-3l-2-4-3-1-4 2-1 6v1l1 6 4 1 3-1c1 0 2-1 2-3ZM139 419l5-2c3 0 4 2 4 6v9h-2v-9l-1-3-2-1-2 1-2 2v10h-2v-21h2ZM161 432v-1l-4 2-4-2-1-3 1-3 5-2h3v-1l-1-2-2-1-3 1-1 2h-2l1-2 2-2 3-1 4 2 1 3v7l1 3Zm-4-2h2l2-2v-3h-2c-3 0-5 1-5 3l1 2h2ZM170 418v1l4-2c3 0 5 2 5 6v9h-3v-12l-3-1-2 1-1 2v10h-3v-14ZM185 418v1l5-2c3 0 4 2 4 6v9h-2v-9l-1-3-2-1-2 1-2 2v10h-2v-14ZM204 433l-5-2-2-6 1-4 3-3 3-1 4 2 2 6v1h-10l1 3 3 2 3-1 1-1 2 1c-1 2-3 3-6 3Zm0-14-3 2-1 3h7v-1l-1-3-2-1ZM216 432h-3v-21h3ZM573 387l-1 6-3 3-4 1-4-1-3-3-1-5v-2l1-5 3-3 4-1 4 1 3 3 1 5Zm-2-1-2-5-4-2-4 2-1 5v1l1 6 4 2 4-2 2-5ZM586 395l-5 2-3-1-1-4v-10h2v10c0 2 1 3 3 3l4-2v-11h2v15h-2ZM596 378v4h2v2h-2v10l1 1h1v2h-2l-2-1-1-3v-9h-3v-2h3v-4ZM614 390l-2 5-4 2-4-2v7h-3v-20h3v2c1-2 2-2 4-2s3 0 4 2l2 5Zm-3-1-1-4-3-1-3 2v7l3 2 3-1 1-5ZM626 395l-4 2-4-1-1-4v-10h2v10c0 2 1 3 3 3l4-2v-11h2v15h-2ZM636 378v4h3v2h-3v10l1 1h2v2h-2l-3-1-1-3v-9h-2v-2h2v-4ZM567 429l-2 5-5 2c-3 0-4-1-6-3l-2-6v-2l1-5a7 7 0 0 1 7-4l5 1 2 5h-2l-2-3-3-1c-2 0-3 0-4 2l-1 5v2l1 5 4 2 3-1 2-4ZM573 423c1-2 3-2 4-2 4 0 5 1 5 5v10h-2v-10l-1-2-2-1h-3l-1 2v11h-2v-21h2ZM595 436v-2l-5 2-3-1-2-3 2-4 5-1h3v-1l-1-3h-5l-1 2h-2l1-2 2-2h3l4 1 1 3v7l1 3v1Zm-4-2 2-1 2-1v-3h-2c-3 0-5 0-5 2l1 2 2 1ZM603 421l1 2c1-2 2-2 4-2 3 0 5 1 5 5v10h-3v-10l-1-2-2-1h-2l-1 2v11h-3v-15ZM619 421v2c1-2 3-2 4-2 4 0 5 1 5 5v10h-2v-10l-1-2-2-1h-3l-1 2v11h-2v-15ZM638 436l-5-2-2-5v-1l1-4 2-2 4-1c2 0 3 0 4 2l2 5v1h-10l1 4 3 1 2-1 2-1 2 1c-2 2-3 3-6 3Zm0-13-3 1-1 3h7l-1-3-2-1ZM649 436h-2v-21h2Zm0 0"/><path fill="#F4F1F1" d="M492 185H346c-8 0-15-7-15-16v-51c0-9 7-16 15-16h146c8 0 15 7 15 16v51c0 9-7 16-15 16"/><path d="M361 144c-3 0-4-1-5-2l-2-3 2-4 5-2 4 1 2 2 1 3h-3l-1-3-3-1-3 1-1 3 1 2 3 1 4 2 2 2 1 2-2 4-5 2-4-1-2-2-1-3h2l2 2 3 1h3l1-3-1-2-3-2ZM380 152l-4 2-4-2-1-4v-9h2v9c0 2 1 3 3 3s3 0 4-2v-10h3v14h-3ZM399 146l-2 6-4 2-4-2v1h-3v-21h3v8l4-2 4 2 2 6Zm-3 0-1-4-2-2c-2 0-3 1-4 3v6c1 2 2 2 4 2l2-1 1-4ZM411 149l-1-1-3-1-3-1-2-2v-1l1-3 4-2 4 2c2 0 2 2 2 3h-2l-1-2-3-1-2 1-1 2 1 1 3 1 3 1 2 1v2l-1 3-5 2-3-1-2-2-1-2h3l1 2 2 1 3-1 1-2ZM422 152l3-1 1-2h2l-1 2-2 2-3 1-4-2c-2-2-2-4-2-6l1-4a6 6 0 0 1 5-4l5 2 1 4h-2l-1-3-3-1-3 2-1 4 1 4 3 2ZM438 141h-1c-2 0-3 0-3 2v10h-3v-14h3v1a4 4 0 0 1 4-2ZM443 153h-2v-14h2Zm-2-18v-1l1-1 1 1 1 1-1 1h-2v-1ZM460 146l-2 6-4 2-4-2v1h-3v-21h3v8l4-2 4 2 2 6Zm-3 0-1-4c0-1-1-2-3-2l-3 3v6c1 2 2 2 3 2l3-1 1-4ZM469 154l-5-2-2-6 1-4 3-3 3-1 4 2 2 6v1h-10l1 3 3 2 3-1 1-1 2 1c-2 2-3 3-6 3Zm0-14-3 1-1 4h7v-1l-1-3-2-1ZM485 141h-1c-2 0-3 0-4 2v10h-2v-14h2v1a4 4 0 0 1 5-2Zm0 0" fill="#0F0E0C"/><path fill="#FFF6D1" d="M452 451H326c-10 0-19-9-19-19v-64c0-10 9-19 19-19h126c10 0 19 9 19 19v64c0 10-9 19-19 19"/><path d="m338 376 6 16 7-16h3v20h-2v-16l-7 16h-2l-6-16v16h-2v-20ZM365 396l-5-2c-2-1-2-3-2-5v-1l1-4 2-2 3-1c2 0 4 0 5 2l1 5v1h-10l2 4 3 1 2-1 2-1 1 1c-1 2-3 3-5 3Zm-1-13-2 1-2 3h8l-1-3-3-1ZM382 392l-1-2-3-1-3-1-1-1-1-2 2-3 4-1 4 1 1 3h-2l-1-2h-5v3l3 1 3 1 2 2v2l-1 3-4 1-3-1-3-1v-3h2l1 2 3 1 2-1 1-1ZM396 392v-2l-3-1-3-1-2-1v-2l1-3 4-1 4 1 2 3h-3l-1-2h-4l-1 2 1 1 2 1 4 1 1 2 1 2-2 3-4 1-3-1-2-1-1-3h3l1 2 2 1 2-1 1-1ZM411 396v-2l-4 2-4-1-1-3 1-4 5-1h3v-1l-1-3h-5v2h-3l1-2 2-2h3l4 1 1 3v7l1 3v1Zm-4-2 2-1 2-1v-4h-2c-3 0-5 1-5 3l1 2 2 1ZM417 388l1-5c1-2 3-2 5-2 1 0 3 0 4 2v-2h2v14l-1 5-5 1h-3l-3-2 2-2c1 2 2 2 4 2l3-1 1-3v-1l-4 2-5-2-1-6Zm2 0 1 4 3 2 4-2v-7c-1-2-2-2-4-2l-3 1-1 4ZM439 396l-5-2-2-5v-1l1-4 3-2 3-1c2 0 3 0 4 2l2 5v1h-10l1 4 3 1 3-1 1-1 2 1c-2 2-3 3-6 3Zm0-13-3 1-1 3h7l-1-3-2-1ZM351 435v-20h6l5 1 2 4-1 2-2 2 2 2 1 3-1 4-5 2Zm2-10v7h5l3-1 1-2c0-3-2-4-4-4Zm0-2h4l3-1 1-2-1-2-3-1h-4ZM375 422h-1l-4 2v11h-2v-15h2v2a4 4 0 0 1 5-2ZM377 427v-4a6 6 0 0 1 6-3c2 0 4 0 5 2l2 5-1 4a6 6 0 0 1-6 4l-5-2-1-6Zm2 0 1 4 3 2c2 0 3-1 3-2l1-4-1-4-3-1-3 1-1 4ZM397 428l-1 1v6h-3v-21h3v12l1-1 5-5h3l-6 6 6 9h-3ZM413 435l-4-2c-2-1-2-3-2-5v-1l1-4 2-2 3-1 5 1 1 6v1h-10l1 3 4 2 2-1 1-1 2 1c-1 2-3 3-6 3Zm0-13-2 1-2 3h8l-1-3-3-1ZM429 422h-1c-2 0-3 1-3 2v11h-3v-15h3v2a4 4 0 0 1 4-2Zm0 0" fill="#040505"/><path stroke-linecap="round" transform="matrix(0 2.24888 -2.44653 0 167 185)" fill="none" d="M1 0h71" stroke="#737373"/><path stroke-linecap="round" transform="matrix(0 2.24888 -2.44653 0 167 349)" fill="none" stroke-linejoin="round" d="m-3-2 3 2-3 1" stroke="#737373"/><path stroke-linecap="round" transform="matrix(2.25945 0 0 2.24584 225 405)" fill="none" d="M1 0h26" stroke="#737373"/><path stroke-linecap="round" transform="matrix(2.25945 0 0 2.24584 287 405)" fill="none" stroke-linejoin="round" d="m-3-2 2 2-2 1" stroke="#737373"/><path stroke-linecap="round" transform="matrix(-1.51133 -1.65646 1.80732 -1.64898 599 363)" fill="none" d="M0 0h102" stroke="#737373"/><path stroke-linecap="round" transform="matrix(-1.51133 -1.65646 1.80732 -1.64898 444 192)" fill="none" stroke-linejoin="round" d="m-3-2 2 2-1 1" stroke="#737373"/><path stroke-linecap="round" transform="matrix(2.24155 .03496 -.03502 2.24557 471 402)" fill="none" d="M1 0h30" stroke="#737373"/><path stroke-linecap="round" transform="matrix(2.24155 .03496 -.03502 2.24557 543 403)" fill="none" stroke-linejoin="round" d="m-3-2 2 2-2 2" stroke="#737373"/><path stroke-linecap="round" transform="matrix(1.43235 -1.72705 1.58807 1.31708 600 363)" fill="none" d="M0 0h99" stroke="#737373"/><path stroke-linecap="round" transform="matrix(1.43235 -1.72705 1.58807 1.31708 743 191)" fill="none" stroke-linejoin="round" d="m-2-1 2 1-2 1" stroke="#737373"/><path stroke-linecap="round" transform="matrix(-.05247 -2.24112 2.24523 -.05257 600 363)" fill="none" d="M0 0h76" stroke="#737373"/><path stroke-linecap="round" transform="matrix(-.05247 -2.24112 2.24523 -.05257 596 191)" fill="none" stroke-linejoin="round" d="m-3-2 3 2-2 2" stroke="#737373"/><path fill="#F4F1F1" d="M673 186H533c-9 0-16-7-16-16v-51c0-9 7-16 16-16h140c9 0 16 7 16 16v51c0 9-7 16-16 16"/><path d="m545 145-5-2-2-3 2-4 5-2 4 1 2 2 1 3h-3l-1-3-3-1-3 1-1 2 1 3 4 1 3 2 2 2 1 2c0 2 0 3-2 4l-5 2-4-1-2-2-1-4h2c0 2 1 3 2 3l3 1h3l2-3-2-2-3-2ZM564 153l-4 2-4-2-1-4v-10h3v10c0 2 0 3 2 3s4 0 4-2v-11h3v15h-3ZM583 147l-2 5c-1 2-2 3-4 3l-4-2v1h-2v-21h2v8l4-2 4 2 2 6Zm-3 0-1-4-2-2c-2 0-3 1-4 3v6c1 2 2 2 4 2l2-1 1-4ZM595 150l-1-1-3-1-3-1-1-2-1-1 2-4 4-1 4 2 1 3h-2l-1-2-2-1-3 1v3l3 1 3 1 2 1v2l-1 3-4 2-4-1-2-2v-2h2l1 2h5l1-2ZM607 152h2l1-2h2v2l-3 2-2 1-5-2-2-6 1-4a6 6 0 0 1 6-4l4 2 1 4h-2l-1-3-2-1c-2 0-3 1-3 2l-2 4 2 4 3 1ZM622 142h-1c-2 0-3 0-3 2v10h-3v-15h3v2a4 4 0 0 1 4-2ZM627 154h-2v-15h2Zm-2-18v-1l1-1 1 1 1 1-1 1h-2v-1ZM644 147l-2 5c-1 2-2 3-4 3l-4-2v1h-3v-21h3v8l4-2 4 2 2 6Zm-3 0-1-4-2-2c-2 0-3 1-4 3v6c1 2 2 2 4 2l2-1 1-4ZM653 155l-5-2-2-6 1-4 3-3 3-1 4 2 2 6v1h-10l1 3 3 1h3l1-2 2 2c-1 2-3 3-6 3Zm0-14-3 1-1 4h8v-1l-2-3-2-1ZM669 142h-1c-2 0-3 0-4 2v10h-2v-15h2v2a4 4 0 0 1 5-2Zm0 0" fill="#0F0E0C"/><path fill="#F4F1F1" d="M858 185H728c-8 0-15-7-15-16v-51c0-9 7-16 15-16h130c9 0 16 7 16 16v51c0 9-7 16-16 16"/><path d="m735 145-5-2-2-3 2-4 5-2 4 1 2 2 1 3h-2l-2-3-3-1-3 1-1 2 1 3 4 1 4 2 2 2v2c0 2 0 3-2 4l-5 2-3-1-3-2-1-4h2c0 2 1 3 2 3l3 1h4l1-3-1-2-4-2ZM754 153l-4 2-4-2-1-4v-10h3v10c0 2 1 3 2 3 2 0 4 0 4-2v-11h3v15h-3ZM773 147l-1 5c-1 2-3 3-5 3l-4-2v1h-2v-21h2v8l4-2 5 2 1 6Zm-2 0-1-4-3-2c-2 0-3 1-4 3v6c1 2 2 2 4 2l3-1 1-4ZM785 150l-1-1-3-1-3-1-1-2-1-1 2-4 4-1 4 2 1 3h-2l-1-2-2-1-2 1-1 1v2l3 1 3 1 2 1v2l-1 3-4 2-3-1-3-2v-2h2l1 2h5l1-2ZM797 152h2l1-2h3l-1 2-2 2-3 1-5-2-2-6 1-4a6 6 0 0 1 6-4l4 2 2 4h-3l-1-3-2-1c-2 0-3 1-3 2l-1 4 1 4 3 1ZM813 142h-2c-1 0-3 0-3 2v10h-3v-15h3v2a4 4 0 0 1 5-2ZM818 154h-3v-15h3Zm-3-18v-1l1-1 1 1 1 1-1 1h-2v-1ZM834 147l-1 5c-1 2-3 3-5 3l-4-2v1h-2v-21h2v8l4-2 5 2 1 6Zm-2 0-1-4-3-2c-2 0-3 1-4 3v6c1 2 2 2 4 2l3-1 1-4ZM843 155l-4-2c-2-2-2-4-2-6v-4l3-3 3-1 5 2 1 6v1h-10l1 3 4 1h2l1-2 2 2c-1 2-3 3-6 3Zm0-14-2 1-2 4h8v-1l-1-3-3-1ZM859 142h-1c-2 0-3 0-3 2v10h-3v-15h3v2a4 4 0 0 1 4-2Zm0 0" fill="#0F0E0C"/></svg>