<svg viewBox="0 0 1280 720" fill="none" stroke-linecap="square" stroke-miterlimit="10" xmlns="http://www.w3.org/2000/svg"><clipPath id="a"><path d="M0 0h1280v720H0V0z"/></clipPath><g clip-path="url(#a)"><path fill="#fff" d="M0 0h1280v720H0z" fill-rule="evenodd"/><path shape-rendering="crispEdges" fill="#c1f9c1" d="M325 43h270v71H325V43z"/><path shape-rendering="crispEdges" fill="#fff2cc" d="M595 43h360v71H595V43z"/><path stroke="#c1f9c1" stroke-linecap="butt" d="M325 43v70"/><path stroke="#666" stroke-linecap="butt" d="M325 113v564"/><path stroke="#fff2cc" stroke-linecap="butt" d="M595 43v70"/><path stroke="#666" stroke-linecap="butt" d="M595 113v564"/><path stroke="#fff2cc" stroke-linecap="butt" d="M955 43v70"/><path stroke="#666" stroke-linecap="butt" d="M955 113v564"/><path stroke="#c1f9c1" stroke-linecap="butt" d="M325 43h269"/><path stroke="#fff2cc" stroke-linecap="butt" d="M594 43h361"/><path stroke="#c1f9c1" stroke-linecap="butt" d="M325 114h269"/><path stroke="#fff2cc" stroke-linecap="butt" d="M594 114h361"/><path stroke="#666" stroke-linecap="butt" d="M325 184h630M325 254h630M325 325h630M325 395h630M325 466h630M325 536h630M325 606h630M325 677h630"/><path fill="#000" d="M389 84h-12l-2 7h-4l10-26h4l10 26h-4l-2-7zm-11-3h10l-5-12-5 12zm25 5 5-15h4l-7 20h-3l-7-20h3l5 15zm24 5-1-2q-2 2-5 2l-5-1-2-4q0-3 2-5 3-2 7-2h3v-1l-1-3-3-1-3 1-1 2h-4l1-3 3-2 4-1q4 0 6 2 2 1 2 4v14h-3zm-6-3h3l2-2v-5h-2q-7 0-7 4l1 3h3zm18 3h-4V71h4v20zm-4-25v-1l2-1 1 1 1 1-1 1-1 1-2-1v-1zm13 25h-4V63h4v28zm17 0v-2l-6 2-5-1-2-4q0-3 3-5 2-2 6-2h4v-1l-1-3-3-1-4 1-1 2h-3l1-3 3-2 4-1q3 0 5 2 2 1 2 4v9l1 5h-4zm-5-3h3l2-2v-5h-3q-6 0-6 4l1 3h3zm30-7q0 5-2 8-2 2-6 2-3 0-5-2l-1 2h-3V63h4v11q2-3 5-3 4 0 6 3 2 2 2 7zm-3 0q0-3-2-5-1-2-3-2-4 0-5 3v8q1 4 5 4 2 0 3-2 2-2 2-6zm11 10h-3V71h3v20zm-4-25 1-1 1-1 2 1v2l-2 1-1-1-1-1zm13 25h-3V63h3v28zm9 0h-3V71h3v20zm-4-25 1-1 1-1 2 1v2l-2 1-1-1-1-1zm14 1v4h4v3h-4v12l1 2 1 1 2-1v3h-3l-3-1-1-4V74h-4v-3h4v-4h3zm14 19 5-15h3l-8 23q-1 5-5 5h-2v-3h1l2-1 2-2 1-2-7-20h3l5 15zM649 91V65h8l6 1 4 4 1 7v2l-1 6-4 5-7 1h-7zm4-24v21h3q4 0 7-2 2-3 2-7v-2q0-5-2-7-2-3-6-3h-4zm19 14 1-5 3-4 5-1q4 0 7 3 2 3 2 7l-1 6-3 3-5 1q-4 0-6-2-3-3-3-8zm4 0 1 6 4 2q3 0 4-2 2-2 2-6 0-3-2-5-1-2-4-2l-4 2-1 5zm36 5 4-15h3l-6 20h-3l-4-15-5 15h-3l-5-20h3l4 15 4-15h3l5 15zm14-15v3q2-3 6-3 6 0 6 7v13h-3V78l-1-3-3-1-3 1-2 2v14h-4V71h4zm22-4v4h3v3h-3v14l2 1 1-1v3h-2l-4-1-1-4V74h-3v-3h3v-4h4zm11 24h-4V71h4v20zm-4-25 1-1 1-1 2 1v2l-2 1-1-1-1-1zm12 5v3q3-3 6-3 4 0 6 3l3-2 3-1q7 0 7 7v13h-4V75l-4-1-3 1-1 3v13h-4V78q0-4-4-4-3 0-4 3v14h-4V71h3zm38 20q-4 0-6-2-3-3-3-7v-1l1-5 3-4 5-1q4 0 6 3 2 2 2 7v1h-14l2 5 4 2 3-1 2-2 3 2q-3 3-8 3zm0-17-4 1-1 4h9l-1-4-3-1zm12 19h-3l12-28h2l-11 28zm24-15 7-13h4l-10 16v10h-3V81l-9-16h4l7 13zm21 13q-5 0-7-2-3-3-3-7v-1q0-3 2-5l3-4 4-1q4 0 6 3 2 2 2 7v1h-13q0 3 2 5 1 2 4 2l3-1 2-2 2 2q-3 3-7 3zm-1-17-3 1-2 4h10l-2-4-3-1zm24 17v-2l-6 2-5-1-1-4q0-3 2-5t6-2h4v-1l-1-3-3-1-3 1-2 2h-3l1-3 3-2 4-1q3 0 5 2 2 1 2 4v9l1 5h-4zm-5-3h3l2-2v-5h-3q-6 0-6 4l1 3h3zm23-14h-2q-3 0-4 3v14h-4V71h4v3q1-3 4-3h2v3zM440 150l-2 2-3 1q-3 0-4-2l-3-3-1-4 1-5 3-3 4-1q4 0 6 3 3 2 3 8v1q0 7-3 11-3 3-10 3v-2q5 0 7-3 2-2 2-6zm-5 0 3-1q2-1 2-3v-1l-1-6-4-2q-2 0-3 2-2 2-2 5l2 4q1 2 3 2zm30 0q0 6-2 9t-6 3q-5 0-7-3t-2-8v-5q0-6 2-9 2-2 7-2 4 0 6 2 2 3 2 9v4zm-3-4q0-5-2-7-1-2-3-2-3 0-4 2l-1 6v6l1 6q1 2 4 2 2 0 3-2 2-2 2-6v-5zm7-6 1-4 4-1 4 1 2 4v1q0 3-2 4-1 2-4 2-2 0-3-2-2-1-2-4v-1zm2 1 1 3 2 1 3-1v-6l-3-1-2 1-1 2v1zm11 14 1-4 4-2q3 0 4 2l2 4v1q0 3-2 4-1 2-4 2l-4-2-1-4v-1zm2 1 1 3 2 1 2-1 1-3v-1l-1-2-2-1-2 1-1 2v1zm-9 3-2-1 13-20 2 1-13 20zM691 147h3l4-2 1-3q0-5-5-5-2 0-3 2l-1 3h-4q0-3 3-5 2-2 5-2 4 0 6 2t2 5l-1 3-3 3 4 2 1 4q0 4-3 6-2 2-6 2l-6-2q-2-2-2-6h3q0 3 2 4l3 1 4-1 1-4-1-3q-1-2-4-2h-3v-2zm30-12v3h-1q-4 0-6 2-3 2-3 6 2-2 6-2 3 0 5 3 2 2 2 6t-2 6q-2 3-6 3t-6-3q-2-3-2-8v-1q0-7 3-11t9-4h1zm-5 12-3 1-2 3v1q0 3 2 5 1 2 3 2l4-2 1-4-1-4-4-2zm13 13v-2h3l1 2-1 1-1 1-2-1v-1zm11-12 1-13h14v3h-11l-1 7 5-1q3 0 5 3 3 2 3 6t-3 6q-2 3-6 3l-6-2q-2-2-2-6h3q0 3 2 4l3 1 4-2 1-4-1-4-4-2-4 1-1 1-2-1zm24-1h3q2 0 3-2 2-1 2-3 0-5-5-5-2 0-3 2-2 1-2 3h-3q0-3 2-5l6-2q4 0 6 2t2 5l-1 3-3 3 3 2 2 4q0 4-3 6-2 2-6 2t-6-2q-2-2-2-6h3l1 4 4 1 4-1 1-4-1-3-4-2h-3v-2zm25 4q0-4 2-7t6-3q3 0 5 3v-11h4v28h-4v-2q-2 3-5 3-4 0-6-3t-2-7v-1zm3 1q0 3 2 5 1 2 4 2t4-3v-9q-1-3-4-3t-4 2q-2 2-2 6zm31 9v-2q-3 3-6 3t-5-2q-2-1-2-4t3-5l6-1h3v-2l-1-3-3-1-3 1-1 2h-3l1-3 3-2 3-1q4 0 6 2t2 5v9l1 4h-4zm-6-2 3-1 2-2v-4h-2q-6 0-6 4l1 2 2 1zm20-2 5-15h3l-7 23q-2 4-6 4h-2v-3h3l2-3 1-2-7-19h3l5 15zm23-1-1-2-4-1-4-2-2-1-1-3 2-4q2-2 6-2 3 0 5 2t2 5h-3l-1-3-3-1-3 1-1 2 1 2 3 1 4 1 3 2v3q0 3-2 4-2 2-5 2l-4-1-3-2-1-4h3l1 3 4 1 3-1 1-2zM445 220l-3 2-3 1-4-1q-2-1-2-3l-1-5 1-5 2-3 5-1q4 0 6 3t2 8v1q0 8-3 11-3 4-9 4h-1v-3h1q4 0 6-2 3-2 3-7zm-5 0 3-1 2-2v-2q0-3-2-5-1-2-3-2l-4 1-1 5 1 4 4 2zm26 0-3 2-3 1-4-1-3-3v-5l1-5 2-3 5-1q4 0 6 3t2 8v1q0 8-3 11-3 4-9 4h-1v-3h1q4 0 6-2 3-2 3-7zm-5 0 3-1 2-2v-2q0-3-2-5-1-2-3-2l-4 1-1 5 1 4q1 2 4 2zm13-10 1-4 4-1 4 1 1 5v1l-1 4-4 1-4-1-1-4v-2zm2 2 1 2 2 1 2-1 1-2v-2l-1-2-2-1-2 1-1 2v2zm11 13 1-4 4-1 4 1 1 4v2l-1 4-4 1-4-1-1-4v-2zm2 2 1 2 2 1 2-1 1-2v-2l-1-2-2-1-2 1-1 2v2zm-9 3-2-1 13-21 2 1-13 21zM702 217h2l4-1 2-4q0-4-5-4l-4 1-1 3h-3q0-3 2-5t6-2q4 0 6 2t2 5l-1 4-3 2 3 3 1 3q0 4-2 6t-6 2q-4 0-6-2-3-2-3-5h4l1 3 4 1 4-1 1-3-1-4-5-1h-2v-3zm16 13 1-1 1-1 2 1 1 1-1 1-2 1-1-1-1-1zm23-25v3h-1q-4 0-6 2l-3 7q3-3 6-3 4 0 6 3 2 2 2 6t-3 7q-2 2-5 2-4 0-7-3-2-3-2-7v-2q0-7 3-11t9-4h1zm-4 12-4 1-2 3v1q0 3 2 5 1 2 4 2l3-1 1-5-1-4q-1-2-3-2zm13 2 2-14h13v3h-11v8l4-1q4 0 6 2t2 6q0 4-2 7-2 2-6 2t-6-2l-3-5h4l1 3 4 1 3-1q2-2 2-5l-2-4-4-1-3 1h-4zm28 3q0-5 3-7 2-3 5-3 4 0 6 2v-10h3v28h-3v-2q-2 2-6 2-3 0-5-3-3-2-3-7zm4 0 1 5 4 2q3 0 5-3v-9q-2-2-5-2l-4 2-1 5zm31 10-1-2q-2 2-6 2l-4-1q-2-2-2-5t2-4q2-2 7-2h3v-2l-1-2q-1-2-3-2l-3 1-1 3h-4l1-3q1-2 3-2l4-1 5 1q2 2 2 5v9l1 5h-3zm-6-3 3-1 2-2v-4h-3q-6 0-6 4l1 2 3 1zm20-2 4-15h4l-8 23q-2 5-6 5h-2v-3h1l3-1 1-2 1-2-7-20h4l5 15zm22 0-1-2-3-2-4-1-2-2-1-2q0-3 2-5l5-1q4 0 6 2 2 1 2 4h-4l-1-2-3-1h-3l-1 2 1 2 4 1 4 2 2 2 1 2q0 3-2 5l-6 1-4-1q-2 0-3-2l-1-3h4l1 2 3 1h3l1-2zM425 291l-3 2h-3l-4-1q-2-1-2-3l-1-4 1-5 2-4 5-1q4 0 6 3t2 8v1q0 8-3 12-3 3-9 3h-1v-3h1q4 0 6-2 3-2 3-6zm-5 0 3-1 2-3v-1q0-4-2-6-1-2-3-2l-4 2-1 4 1 5 4 2zm26 0-3 2h-3l-4-1-3-3v-4l1-5 2-4 5-1q4 0 6 3t2 8v1q0 8-3 12-3 3-9 3h-1v-3h1q4 0 6-2 3-2 3-6zm-5 0 3-1 2-3v-1q0-4-2-6-1-2-3-2l-4 2-1 4 1 5q1 2 4 2zm13 9 1-1 1-1 2 1v3h-3l-1-2zm23-9-3 2h-3l-4-1-3-3-1-4 1-5 3-4 5-1q3 0 6 3 2 3 2 8v1q0 8-3 12-3 3-9 3h-1v-3h1q4 0 6-2l3-6zm-6 0 4-1 2-3v-1q0-4-2-6-1-2-3-2-3 0-4 2l-1 4 1 5q1 2 3 2zm13-10q0-3 2-4 1-2 4-2l4 2 1 4v1l-1 4-4 2q-3 0-4-2-2-1-2-4v-1zm3 1 1 3h4l1-3v-1l-1-3h-4l-1 3v1zm10 14q0-3 2-4 1-2 4-2l4 2 1 4v1l-1 4-4 2q-3 0-4-2-2-1-2-4v-1zm3 1 1 3h4l1-3v-1l-1-3-2-1-2 1-1 3v1zm-9 3-2-1 13-21 2 1-13 21zM705 283l-1 3-3 3q2 0 3 2l2 4q0 4-3 6-2 2-6 2t-6-2q-2-2-2-6l1-4q1-2 3-2l-3-3-1-3q0-4 2-6l6-2q4 0 6 2t2 6zm-3 12-1-4-4-1-4 1-1 4 1 4 4 1 4-1 1-4zm-5-17-3 1-1 4 1 3 3 1 3-1q2-1 2-3l-2-4-3-1zm13 22 1-1 1-1 2 1v3h-3l-1-2zm27-22-11 24h-4l11-24h-14v-2h18v2zm21 0-11 24h-4l11-24h-14v-2h18v2zm16 7q3-3 6-3 7 0 7 7v13h-4v-13l-1-3-3-1-3 1-2 2v14h-3v-28h3v11zm17 7 1-5 3-4 5-1q4 0 6 3 3 3 3 7v1l-1 5-4 3-4 2q-4 0-7-3-2-3-2-8zm3 1q0 3 2 5 1 2 4 2l4-2 1-6-1-5-4-2q-3 0-4 2-2 2-2 6zm31 7q-2 3-6 3-3 0-4-2-2-2-2-6v-12h3v12q0 5 4 5t5-3v-14h3v19h-3v-2zm18-14-2-1q-3 0-4 3v14h-3v-19h3v2q2-3 5-3h1v4zm15 11-1-2-4-1-4-2q-2 0-2-2l-1-2 2-4q2-2 5-2 4 0 6 2l2 4h-4l-1-2-3-1-3 1-1 2 1 2 4 1 4 1 2 2 1 3-2 4q-2 2-6 2l-4-1-3-3-1-3h4l1 3 3 1 3-1 2-2zM419 361l-2 2-4 1-4-1-2-4-1-4 1-5 3-3 4-1q4 0 6 3t2 8v1q0 7-3 11t-9 4h-1v-3h1q4 0 7-2 2-2 2-7zm-5 0 3-1 2-3v-1l-1-5-4-2-4 1-1 5 1 4 4 2zm26 0-3 2-3 1-4-1-2-4-1-4 1-5 3-3 4-1q4 0 6 3t2 8v1q0 7-3 11t-9 4h-1v-3h1q4 0 7-2 2-2 2-7zm-5 0 3-1 2-3v-1l-1-5-4-2-4 1-1 5 1 4 4 2zm13 10 1-2h3l1 2-1 1-1 1-2-1-1-1zm23-10-3 2-3 1-4-1-3-4-1-4 1-5 3-3 5-1q4 0 6 3t2 8v1q0 7-3 11t-9 4h-1v-3h1q4 0 6-2 3-2 3-7zm-5 0 3-1 2-3v-1q0-3-2-5-1-2-3-2l-4 1-1 5 1 4q1 2 4 2zm26 0-3 2-3 1-4-1-3-4-1-4 1-5 3-3 5-1q4 0 6 3t2 8v1q0 7-3 11t-9 4h-1v-3h1q4 0 6-2 3-2 3-7zm-5 0 3-1 2-3v-1q0-3-2-5-1-2-3-2l-4 1-1 5 1 4q1 2 4 2zm12-10 2-4 4-1 4 1 1 4v2l-1 4-4 1-4-1q-2-2-2-5v-1zm3 2 1 2 2 1 2-1 1-2v-2l-1-2-2-1-2 1-1 2v2zm10 13 2-4 4-1 4 1 1 4v2l-1 3-4 2-4-2q-2-1-2-4v-1zm3 2 1 2 2 1 2-1 1-3v-1l-1-2-2-1-2 1-1 2v2zm-9 3-2-2 13-20 2 1-13 21zM706 359l2-13h13v3h-10l-1 7 4-1q4 0 6 3 2 2 2 6t-2 7q-2 2-6 2t-6-2l-3-5h4l1 3 4 1 3-1q2-2 2-5l-2-4q-1-2-4-2l-3 1-1 1-3-1zm37 14h-17v-3l9-10 3-4 1-3q0-2-2-3l-3-1-4 1-1 4h-4q0-4 3-6 2-2 6-2t6 2q2 2 2 5 0 4-5 9l-7 8h13v3zm4-2 1-2h3v3l-2 1-1-1-1-1zm23-25v3h-1q-4 0-6 2l-3 7q2-3 6-3 3 0 5 3 3 2 3 6t-3 7q-2 2-6 2t-6-3q-2-3-2-7v-2q0-7 3-11t9-4h1zm-5 12-3 1-2 3v1q0 3 2 5 1 2 3 2l4-1 1-5-1-4q-1-2-4-2zm25-5v2l6-2q4 0 6 3l2-3h4q7 0 7 6v14h-4v-13l-1-4-3-1q-2 0-3 2l-1 3v13h-4v-13q0-5-4-5-3 0-5 3v15h-3v-20h3zm33 20h-3v-20h3v20zm-3-25v-2h3l1 2-1 1-1 1-2-1v-1zm12 5v2q2-2 6-2 6 0 6 7v13h-3v-13l-1-4-3-1-3 1-2 3v14h-3v-20h3zM404 431q-1 2-3 2l-3 1-4-1q-2-1-2-3l-1-5 1-4 3-4 4-1q4 0 6 3t2 8v1q0 8-3 11-3 4-9 4h-1v-3h1q4 0 6-2 3-2 3-7zm-5 0 3-1 2-2v-2l-1-5-4-2-4 2-1 4 1 5 4 1zm26 0q-1 2-3 2l-3 1-4-1q-2-1-2-3l-1-5 1-4 2-4 5-1q4 0 6 3t2 8v1q0 8-3 11-3 4-9 4h-1v-3h1q4 0 6-2 3-2 3-7zm-5 0 3-1 2-2v-2q0-3-2-5-1-2-3-2l-4 2-1 4 1 5 4 1zm13 10 1-1 1-1 2 1 1 1-1 2h-3l-1-2zm23-10q-1 2-3 2l-3 1-4-1-3-3-1-5 1-4 3-4 5-1q4 0 6 3t2 8v1q0 8-3 11-3 4-9 4h-1v-3h1q4 0 6-2t3-7zm-6 0 4-1 2-2v-2q0-3-2-5-1-2-3-2-3 0-4 2l-1 4 1 5 3 1zm27 0q-1 2-3 2l-3 1-4-1-3-3-1-5 1-4 3-4 5-1q3 0 6 3 2 3 2 8v1q0 8-3 11-3 4-9 4h-1v-3h1q4 0 6-2t3-7zm-6 0 4-1 2-2v-2q0-3-2-5-1-2-3-2-3 0-4 2l-1 4 1 5 3 1zm27 0q-1 2-3 2l-3 1-4-1-3-3-1-5 1-4 3-4 5-1q3 0 6 3 2 3 2 8v1q0 8-3 11-3 4-9 4h-1v-3h1q4 0 6-2t3-7zm-6 0 4-1 2-2v-2q0-3-2-5-1-2-3-2-3 0-4 2l-1 4 1 5 3 1zm13-9q0-3 2-4 1-2 4-2l4 2 1 4v1l-1 4-4 1-4-1-2-4v-1zm3 1 1 2 2 1 2-1 1-2v-1l-1-3-2-1-2 1-1 3v1zm10 14q0-3 2-4 1-2 4-2l4 2 1 4v1l-1 4-4 1-4-1-2-4v-1zm3 1 1 2 2 1 2-1 1-2v-1l-1-3-2-1-2 1-1 3v1zm-9 3-2-1 13-21 2 1-13 21zM706 430l2-14h13v4h-10l-1 7 4-1q4 0 6 2t2 7q0 4-2 6t-6 2q-4 0-6-2l-3-5h4l1 3 4 2q2 0 3-2l2-4q0-3-2-5l-4-1-3 1h-4zm20 11 1-1 1-1 2 1v3h-3l-1-2zm27 2h-17v-2l9-11 3-3v-3l-1-4-3-1-4 1-2 4h-3l2-6q3-2 7-2l6 2q2 2 2 5 0 4-5 10l-7 7h13v3zm5-13 1-14h14v4h-11l-1 7 5-1q4 0 6 2t2 7q0 4-2 6-3 2-7 2-3 0-5-2-3-2-3-5h3l2 3q1 2 3 2 3 0 4-2l1-4-1-5-4-1-3 1h-4zm32-7v2l6-2q4 0 6 3l2-2 4-1q7 0 7 7v13h-4v-13l-1-3-3-1-3 1-1 3v13h-4v-13q0-4-4-4-3 0-5 3v14h-3v-20h3zm33 20h-3v-20h3v20zm-3-25v-1l2-1 1 1 1 1-1 1-1 1-2-1v-1zm12 5v3q2-3 6-3 6 0 6 7v13h-3v-13l-1-3-3-1-3 1-2 2v14h-3v-20h3zM393 502l-2 2-3 1q-3 0-4-2l-3-3-1-4 1-5 3-3 4-1q4 0 7 2 2 3 2 8v1q0 8-3 12-3 3-9 3h-1v-2h1q4 0 6-3 2-2 2-6zm-5 0 3-1q2-1 2-3v-1l-1-6q-1-2-4-2-2 0-3 2-2 2-2 5l2 4q1 2 3 2zm26 0-2 2-3 1q-3 0-4-2l-3-3-1-4 1-5 3-3 4-1q4 0 7 2 2 3 2 8v1q0 8-3 12-3 3-10 3v-2h1q4 0 6-3 2-2 2-6zm-5 0 3-1q2-1 2-3v-1l-1-6q-1-2-4-2-2 0-3 2-2 2-2 5l2 4q1 2 3 2zm14 10v-2h4v3l-2 1-2-1v-1zm22-10-2 2-4 1-4-2-2-3-1-4 1-5 3-3 4-1q4 0 6 2 3 3 3 8v1q0 8-3 12-4 3-10 3v-2q5 0 7-3 2-2 2-6zm-5 0 3-1q2-1 2-3v-1l-1-6-4-2q-2 0-3 2-2 2-2 5l2 4q1 2 3 2zm26 0-2 2-4 1-4-2-2-3-1-4 1-5 3-3 4-1q4 0 6 2 3 3 3 8v1q0 8-4 12-3 3-9 3v-2q4 0 7-3 2-2 2-6zm-5 0 3-1q2-1 2-3v-1l-1-6-4-2q-2 0-3 2-2 2-2 5l1 4 4 2zm26 0-2 2-4 1-4-2-2-3-1-4 1-5 3-3 4-1q4 0 6 2 3 3 3 8v1q0 8-4 12-3 3-9 3v-2q4 0 7-3 2-2 2-6zm-5 0 3-1 2-3v-1l-1-6-4-2-4 2-1 5 1 4 4 2zm26 0-2 2-4 1-4-2-2-3-1-4 1-5 3-3 4-1q4 0 6 2 2 3 2 8v1q0 8-3 12-3 3-9 3v-2q4 0 7-3 2-2 2-6zm-5 0 3-1 2-3v-1l-1-6-4-2-4 2-1 5 1 4 4 2zm13-10 1-4 4-1 4 1 2 4v1q0 3-2 4-1 2-4 2l-4-2-1-4v-1zm2 1 1 3 2 1 2-1 1-3v-1l-1-2-2-1-2 1-1 2v1zm11 14 1-4 4-2q3 0 4 2l2 4v1q0 3-2 4-1 2-4 2l-4-2-1-4v-1zm2 1 1 3 2 1 2-1 1-3v-1l-1-2-2-1-2 1-1 2v1zm-9 3-2-1 13-21 2 2-13 20zM701 499h3l3-2q2-1 2-3 0-5-5-5-2 0-3 2-2 1-2 3h-3q0-3 2-5l6-2q4 0 6 2t2 5l-1 3-3 3 3 2 2 4q0 4-3 6-2 2-6 2t-6-2q-2-2-2-6h3l1 4 4 1 4-1 1-4-1-3-4-2h-3v-2zm27 14h-3v-22l-7 2v-3l10-3v26zm11-1v-2h3l1 2-1 1-1 1-2-1v-1zm11-12 1-13h13v3h-10l-1 7 4-1q4 0 6 2 2 3 2 7t-2 6q-2 3-6 3t-6-2q-2-2-2-6h3l1 4 4 1 4-2 1-4q0-3-2-4-1-2-3-2l-4 1-1 1-2-1zm32-13v3q-4 0-7 2-2 2-2 6 2-2 5-2 4 0 6 2 2 3 2 7t-2 6q-3 3-6 3-4 0-7-3-2-3-2-8v-1q0-7 3-11t10-4zm-4 12-3 1-2 2v2l1 5q1 2 4 2 2 0 3-2 2-1 2-4t-2-4q-1-2-3-2zm33 9-1-2-4-1-4-2-2-1-1-3 2-4q2-2 6-2 3 0 5 2t2 5h-3l-1-3-3-1-3 1-1 2 1 2 3 1 4 1 3 2v3q0 3-2 4-2 2-5 2l-4-1-3-2-1-4h3l1 3 4 1 3-1 1-2zm16 6q-4 0-7-3-2-2-2-7v-1l1-5 3-3 4-2q4 0 6 3 3 2 3 7v2h-14l2 4 4 2 3-1 2-2 2 2q-2 4-7 4zm-1-18q-2 0-3 2l-2 4h10l-1-4q-1-2-4-2zm20 15 4-1 1-3h3l-1 3-3 3-4 1q-4 0-6-3t-2-7v-1l1-5 3-3 4-2q4 0 6 2t2 5h-3l-1-3-4-1-4 2-1 5v1l1 5 4 2zM383 572l-3 2-3 1-4-1-2-3-1-5 1-5 3-3 4-1q4 0 6 3t2 8v1q0 8-3 11-3 4-9 4h-1v-3h1q4 0 7-2 2-2 2-7zm-5 0 3-1 2-2v-2l-1-5-4-2-4 1-1 5 1 4 4 2zm26 0-3 2-3 1-4-1q-2-1-2-3l-1-5 1-5 3-3 4-1q4 0 6 3t2 8v1q0 8-3 11-3 4-9 4h-1v-3h1q4 0 6-2 3-2 3-7zm-5 0 3-1 2-2v-2l-1-5-4-2-4 1-1 5 1 4 4 2zm13 10 1-1 1-1 2 1 1 1-1 1-2 1-1-1-1-1zm23-10-3 2-3 1-4-1-3-3-1-5 1-5 3-3 5-1q4 0 6 3t2 8v1q0 8-3 11-3 4-9 4h-1v-3h1q4 0 6-2 3-2 3-7zm-5 0 3-1 2-2v-2q0-3-2-5-1-2-3-2l-4 1-1 5 1 4q1 2 4 2zm26 0-3 2-3 1-4-1-3-3-1-5 1-5 3-3 5-1q4 0 6 3t2 8v1q0 8-3 11-3 4-9 4h-1v-3h1q4 0 6-2t3-7zm-6 0 4-1 2-2v-2q0-3-2-5-1-2-3-2l-4 1-1 5 1 4q1 2 3 2zm27 0-3 2-3 1-4-1-3-3-1-5 1-5 3-3 5-1q3 0 6 3 2 3 2 8v1q0 8-3 11-3 4-9 4h-1v-3h1q4 0 6-2t3-7zm-6 0 4-1 2-2v-2q0-3-2-5-1-2-3-2l-4 1-1 5 1 4q1 2 3 2zm27 0-3 2-3 1-4-1-3-3-1-5 1-5 3-3 5-1q3 0 6 3 2 3 2 8v1q0 8-3 11-3 4-9 4h-1v-3h1q4 0 6-2t3-7zm-6 0 4-1 2-2v-2q0-3-2-5-1-2-3-2l-4 1-1 5 1 4q1 2 3 2zm27 0-3 2-3 1-4-1-3-3-1-5 1-5 3-3 4-1q4 0 7 3 2 3 2 8v1q0 8-3 11-3 4-9 4h-1v-3h1q4 0 6-2t3-7zm-6 0 3-1 3-2v-2q0-3-2-5-1-2-4-2l-3 1-1 5 1 4q1 2 3 2zm13-10 2-4 4-1 4 1 1 4v2l-1 4-4 1-4-1-2-4v-2zm3 2 1 2 2 1 2-1 1-2v-2l-1-2-2-1-2 1-1 2v2zm10 13 2-4 4-1 4 1 1 4v2l-1 4-4 1-4-1-2-4v-2zm3 2 1 2 2 1 2-1 1-2v-2l-1-2-2-1-2 1-1 2v2zm-9 3-2-1 13-21 1 1-12 21zM712 569h2l4-1 1-4q0-4-4-4l-4 1-1 3h-4q0-3 3-5 2-2 6-2 3 0 5 2 3 2 3 5l-1 4-4 2 4 3 1 3q0 4-2 6l-6 2q-4 0-6-2-3-2-3-5h4l1 3 4 1 3-1q2-1 2-4 0-2-2-3l-4-1h-2v-3zm16 13 1-1 1-1 2 1v2l-2 1-1-1-1-1zm21 2h-4v-23l-7 3v-3l10-4h1v27zm11-13 1-14h14v3h-11l-1 8q2-2 5-2t6 3q2 2 2 6t-2 7q-3 2-7 2-3 0-5-2-3-2-3-5h3l2 3 3 1 4-1 1-5-1-4-4-1h-3l-1 1h-3zm40 8-1-3-3-1-4-1-2-2-1-2q0-3 2-5l5-1 6 1q2 2 2 5h-4l-1-2-3-1h-3l-1 2 1 2 4 1 4 2 2 2 1 2q0 3-2 5l-6 1-4-1q-2 0-3-2l-1-3h4l1 2 3 1h3l1-2zm16 5q-4 0-6-2-3-3-3-7v-1l1-5 4-4 4-1q4 0 6 2 2 3 2 8v1h-13l1 5 5 1h3l2-2 2 1q-3 4-8 4zm0-17-3 1q-2 1-2 4h10q0-3-2-4l-3-1zm20 14 3-1 2-2h3l-1 3-3 2-4 1q-4 0-6-3-3-2-3-7l1-6 3-3 5-1q3 0 5 2 3 2 3 5h-3l-2-3-3-1-4 1-1 6 1 6 4 1zM372 643l-2 2h-3l-4-1-3-3-1-5 1-4 3-4 4-1q4 0 7 3 2 3 2 8v1q0 8-3 12-3 3-9 3h-1v-3h1q4 0 6-2t2-6zm-5 0 3-1 2-3v-1l-1-6q-1-2-4-2-2 0-3 2l-2 4q0 3 2 5 1 2 3 2zm26 0-2 2h-3l-4-1-3-3-1-5 1-4 3-4 4-1q4 0 7 3 2 3 2 8v1q0 8-3 12-3 3-9 3h-1v-3h1q4 0 6-2t2-6zm-5 0 3-1 2-3v-1l-1-6q-1-2-4-2-2 0-3 2l-2 4q0 3 2 5 1 2 3 2zm14 9v-1l2-1 2 1v3h-4v-2zm22-9-2 2h-4l-4-1-2-3-1-5 1-4 3-4 4-1q4 0 6 3 3 3 3 8v1q0 8-3 12-4 3-10 3v-3q5 0 7-2t2-6zm-5 0 3-1 2-3v-1l-1-6-4-2q-2 0-3 2l-2 4q0 3 2 5 1 2 3 2zm26 0-2 2h-4l-4-1-2-3-1-5 1-4 3-4 4-1q4 0 6 3 3 3 3 8v1q0 8-3 12-4 3-10 3v-3q5 0 7-2t2-6zm-5 0 3-1 2-3v-1l-1-6-4-2q-2 0-3 2l-2 4q0 3 2 5 1 2 3 2zm26 0-2 2h-4l-4-1-2-3-1-5 1-4 3-4 4-1q4 0 6 3 3 3 3 8v1q0 8-4 12-3 3-9 3v-3q4 0 7-2 2-2 2-6zm-5 0 3-1 2-3v-1l-1-6-4-2q-2 0-3 2l-2 4 1 5 4 2zm26 0-2 2h-4l-4-1-2-3-1-5 1-4 3-4 4-1q4 0 6 3 3 3 3 8v1q0 8-4 12-3 3-9 3v-3q4 0 7-2 2-2 2-6zm-5 0 3-1 2-3v-1l-1-6-4-2-4 2-1 4 1 5 4 2zm26 0-2 2h-4l-4-1-2-3-1-5 1-4 3-4 4-1q4 0 6 3t2 8v1q0 8-3 12-3 3-9 3v-3q4 0 7-2 2-2 2-6zm-5 0 3-1 2-3v-1l-1-6-4-2-4 2-1 4 1 5 4 2zm26 0-2 2h-4l-4-1-2-3-1-5 1-4 3-4 4-1q4 0 6 3t2 8v1q0 8-3 12-3 3-9 3h-1v-3h1q4 0 7-2 2-2 2-6zm-5 0 3-1 2-3v-1l-1-6-4-2-4 2-1 4 1 5 4 2zm13-10 1-4 4-2q3 0 4 2 2 1 2 4v1q0 3-2 4-1 2-4 2l-4-2-1-4v-1zm2 1 1 3h4l1-3v-1l-1-3-2-1-2 1-1 3v1zm11 14 1-4 4-2q3 0 4 2 2 1 2 4v1q0 3-2 4-1 2-4 2l-4-2-1-4v-1zm2 1 1 2 2 1h2l1-3v-1l-1-3-2-1-2 1-1 3v1zm-9 3-2-1 13-21 2 1-13 21zM704 639h3l4-1 1-3q0-5-5-5l-3 1-1 4h-4q0-4 3-6 2-2 5-2 4 0 6 2t2 6l-1 3-3 3 4 2 1 4q0 3-2 5-3 3-7 3l-6-2q-2-2-2-6h3l2 4 3 1 4-1 1-4-1-4-4-1h-3v-3zm28 15h-4v-22l-7 2v-3l10-3h1v26zm11-13 1-13h14v3h-11l-1 7 5-1 6 2q2 3 2 7t-3 6q-2 3-6 3-3 0-5-2-3-2-3-6h3l2 4 3 1q3 0 4-2l1-4-1-4-4-2-3 1-1 1-3-1zm20 11v-1l2-1 1 1 1 1-1 2h-3v-2zm22-24v3q-4 0-6 2-3 2-3 6 2-2 6-2 3 0 5 2 2 3 2 7t-2 6q-2 3-6 3t-6-3q-3-3-3-8v-1q0-8 4-11 3-4 9-4zm-4 12-3 1-2 2v1l1 6 4 2 4-2 1-4-1-5-4-1zm25-6v3q2-3 6-3t6 3l2-2 4-1q6 0 6 7v13h-3v-13l-1-3-3-1-3 1q-2 1-2 3v13h-3v-13q0-4-4-4t-5 3v14h-3v-20h3zm41 15-1-2-4-1-4-2-2-2-1-2q0-3 2-4 2-2 6-2 3 0 5 2l2 4h-3l-1-2-3-1-3 1-1 2 1 2 3 1 4 1 3 2v3l-2 4q-2 2-5 2l-4-1-3-3-1-3h3l1 3 4 1 3-1 1-2z"/></g></svg>