<svg xmlns="http://www.w3.org/2000/svg" width="1280" viewBox="0 0 960 540" height="720" version="1.0"><defs><clipPath id="a"><path d="M1 0h958v539H1Zm0 0"/></clipPath><clipPath id="b"><path d="M226 416h32v25h-32Zm0 0"/></clipPath><clipPath id="c"><path d="M249 388h17v29h-17Zm0 0"/></clipPath><clipPath id="d"><path d="M264 396h2v1h-2Zm0 0"/></clipPath><clipPath id="e"><path d="M206 382h15v13h-15Zm0 0"/></clipPath><clipPath id="f"><path d="M199 395h26v46h-26Zm0 0"/></clipPath><clipPath id="g"><path d="M189 399h26v42h-26Zm0 0"/></clipPath><clipPath id="h"><path d="M168 211h47v27h-47Zm0 0"/></clipPath><clipPath id="i"><path d="M214 194h33v44h-33Zm0 0"/></clipPath><clipPath id="j"><path d="M188 166h33v44h-33Zm0 0"/></clipPath><clipPath id="k"><path d="M456 416h31v25h-31Zm0 0"/></clipPath><clipPath id="l"><path d="M478 388h17v29h-17Zm0 0"/></clipPath><clipPath id="m"><path d="M493 396h2v1h-2Zm0 0"/></clipPath><clipPath id="n"><path d="M436 382h14v13h-14Zm0 0"/></clipPath><clipPath id="o"><path d="M428 395h26v46h-26Zm0 0"/></clipPath><clipPath id="p"><path d="M418 399h27v42h-27Zm0 0"/></clipPath><clipPath id="q"><path d="M730 416h31v25h-31Zm0 0"/></clipPath><clipPath id="r"><path d="M752 388h17v29h-17Zm0 0"/></clipPath><clipPath id="s"><path d="M767 396h2v1h-2Zm0 0"/></clipPath><clipPath id="t"><path d="M710 382h14v13h-14Zm0 0"/></clipPath><clipPath id="u"><path d="M702 395h26v46h-26Zm0 0"/></clipPath><clipPath id="v"><path d="M692 399h26v42h-26Zm0 0"/></clipPath><clipPath id="w"><path d="M424 211h47v27h-47Zm0 0"/></clipPath><clipPath id="x"><path d="M470 194h33v44h-33Zm0 0"/></clipPath><clipPath id="y"><path d="M443 166h34v44h-34Zm0 0"/></clipPath><clipPath id="z"><path d="M683 222h47v27h-47Zm0 0"/></clipPath><clipPath id="A"><path d="M729 205h33v44h-33Zm0 0"/></clipPath><clipPath id="B"><path d="M702 177h34v44h-34Zm0 0"/></clipPath></defs><g clip-path="url(#a)" fill="#FFF"><path d="M1 0h958v539H1Zm0 0"/><path d="M1 0h958v539H1Zm0 0"/><path d="M1 0h958v539H1Zm0 0"/></g><g clip-path="url(#b)"><path fill="#424242" d="m258 439-12-1h-1v-15h-1v-5h2l12-1v-1h-31v1l12 1h1v20h-1l-12 1v1h31Zm0 0"/></g><path fill="#424242" d="M224 414h37v2h-37ZM229 413h9v-2h-7l-2 2ZM247 382h2v20h-2Zm0 0"/><g clip-path="url(#c)"><path fill="#424242" d="M250 394h1v-2h1v1h2l10 4v3l-4 9v3h-1v1h3v3h-3v1h3v-8l4-8v-5l-1-1-11-4h-2v1h-1v-2h-1v-2h-1v8h1Zm11 15v1-1Zm4-13v1-1Zm-11-4v1l-1-1h1Zm0 0"/></g><path fill="#424242" d="M254 392h-1 1ZM261 409v1-1Zm0 0"/><g clip-path="url(#d)"><path fill="#424242" d="M265 396v1-1Zm0 0"/></g><g clip-path="url(#e)"><path fill="#424242" d="M220 388a7 7 0 0 1-1 4 6 6 0 0 1-3 2 7 7 0 0 1-4 1 7 7 0 0 1-3-2 7 7 0 0 1-2-7 6 6 0 0 1 3-3 7 7 0 0 1 10 5Zm0 0"/></g><g clip-path="url(#f)"><path fill="#424242" d="M204 421h1a13 13 0 0 0 3 0h8l1 16a4 4 0 0 0 4 4c2 0 4-2 3-4l-1-19c0-2-2-4-4-4h-9v-5l-5-6a3 3 0 0 1 0-5 3 3 0 0 1 4 1l3 2c0-2-1-5-3-6-3 0-6 1-8 5-2 6-2 10-1 16 0 4 2 5 4 5Zm0 0"/></g><g clip-path="url(#g)"><path fill="#424242" d="M189 407v1l6 16c1 2 4 3 8 3h1v7l-9 2v1a2 2 0 0 0 1 3l2-1-1-2 7-2v2l-1 2 2 1 1-1-1-2v-2l7 2a2 2 0 0 0 1 3l2-1-1-2v-1l-9-2v-7h2c4 0 7-2 7-3s-14-2-18-1l-3-8 4 3c1-1-5-19-7-18v7h-1Zm0 0"/></g><path fill="#424242" d="m206 399-1 3 9 9 2 1h12c2 0 3-1 3-2 0-2-1-3-3-3h-11l-8-8h-3Zm0 0"/><g clip-path="url(#h)"><path fill="#545454" d="M215 222h-21c-1-6-6-10-13-10s-13 6-13 13a13 13 0 0 0 26 3h21v-6Zm0 0"/></g><g clip-path="url(#i)"><path fill="#545454" d="M234 212h-3l-11-18-5 4 10 18c-3 2-4 5-4 9 0 7 6 13 13 13s13-6 13-13-6-13-13-13Zm0 0"/></g><g clip-path="url(#j)"><path fill="#545454" d="M208 166c-8 0-13 6-13 13 0 4 1 7 4 10l-11 18 6 3 10-18h4c7 0 13-6 13-13s-6-13-13-13Zm0 0"/></g><path transform="matrix(-.87613 -2.07189 2.0685 -.8747 214 366)" fill="none" d="M0 0h50" stroke="#424242"/><path stroke-linecap="round" transform="matrix(-.87613 -2.07189 2.0685 -.8747 169 261)" fill="none" stroke-linejoin="round" d="m-3-1 3 1-2 1" stroke="#424242"/><path transform="matrix(.25023 -2.23581 2.2319 .2498 231 367)" fill="none" d="M0 0h47" stroke="#424242"/><path stroke-linecap="round" transform="matrix(.25023 -2.23581 2.2319 .2498 243 260)" fill="none" stroke-linejoin="round" d="m-2-1 2 1-3 2" stroke="#424242"/><path transform="matrix(-.25256 2.23456 -2.23163 -.25223 264 269)" fill="none" d="M0 0h43" stroke="#424242"/><path stroke-linecap="round" transform="matrix(-.25256 2.23456 -2.23163 -.25223 253 367)" fill="none" stroke-linejoin="round" d="m-3-1 2 1-2 2" stroke="#424242"/><path transform="matrix(-.02578 -2.24004 2.2457 -.02585 450 367)" fill="none" d="M0 0h43" stroke="#424242"/><path stroke-linecap="round" transform="matrix(-.02578 -2.24004 2.2457 -.02585 449 269)" fill="none" stroke-linejoin="round" d="m-2-1 2 1-2 1" stroke="#424242"/><path transform="matrix(0 2.23992 -2.24584 0 479 269)" fill="none" d="M0 0h43" stroke="#424242"/><path stroke-linecap="round" transform="matrix(0 2.23992 -2.24584 0 479 367)" fill="none" stroke-linejoin="round" d="m-2-1 2 1-2 1" stroke="#424242"/><path fill="none" d="m721 371-28-109" stroke="#424242" stroke-width="2.24584"/><path stroke-linecap="round" fill="none" stroke-linejoin="round" d="m691 267 2-5 5 3" stroke="#424242" stroke-width="2.24584"/><path transform="matrix(-.3556 2.2225 -2.21763 -.35482 764 260)" fill="none" d="M0 0h49" stroke="#424242"/><path stroke-linecap="round" transform="matrix(-.3556 2.2225 -2.21763 -.35482 746 371)" fill="none" stroke-linejoin="round" d="m-3-1 2 1-1 2" stroke="#424242"/><path d="M140 121c0 2-1 4-3 5-1 2-3 2-6 2l-6-2c-2-2-3-5-3-8v-2l2-6a8 8 0 0 1 8-5l5 2c2 1 3 3 3 6h-3l-2-4-3-1c-2 0-4 0-5 2l-2 6v2l2 6 4 2 4-1 2-4ZM143 120l1-5 2-3 4-1 6 2 2 7-1 4a7 7 0 0 1-7 4c-2 0-4 0-5-2-2-2-2-4-2-6Zm3 0 1 4c1 2 2 2 3 2 2 0 3 0 4-2l1-4-1-5-4-2-3 2-1 5ZM164 111l1 2 5-2c3 0 5 2 5 6v11h-3v-11l-1-3-2-1-3 1-1 2v12h-3v-17ZM189 124l-1-2-3-1-3-1-2-2-1-2 2-4 4-1 5 1 2 4h-3l-1-2-3-1-2 1-1 2 1 1 3 1 3 2 2 1 1 2-2 4-4 1h-4l-2-2-1-3h3l1 2 3 1 2-1 1-1ZM199 128h-3v-17h3Zm-3-21v-1l2-1 1 1v2h-3v-1ZM213 124l-1-2-3-1-3-1-2-2-1-2 2-4 5-1 4 1c2 1 2 3 2 4h-3l-1-2-2-1-3 1-1 2 1 1 3 1 4 2 2 1v2c0 2 0 3-2 4l-4 1h-4l-2-2-1-3h3l1 2 3 1 2-1 1-1ZM224 107v4h3v2h-3v12l2 1h1v2h-2l-3-1-1-3v-11h-3v-2h3v-4ZM237 128c-2 0-4 0-5-2-2-1-2-3-2-6l1-5 2-3 4-1 5 2 2 6v2h-11l1 4 4 1 2-1 2-1 2 1c-2 2-4 3-7 3Zm0-15-3 2-1 3h8l-1-3-3-2ZM250 111v2l5-2c4 0 6 2 6 6v11h-3v-11l-1-3-3-1-2 1-2 2v12h-3v-17ZM272 126l2-1 2-2h2l-1 3-2 2h-3c-3 0-4 0-6-2l-2-6v-1l1-4a7 7 0 0 1 7-4l4 2c2 1 2 2 2 4h-2l-2-3-2-1-4 2-1 4v1l1 5 4 1ZM287 124l4-13h3l-7 20c-1 3-2 4-5 4h-1v-3h3l1-2 1-2-6-17h3ZM395 122h-10l-2 6h-3l9-23h2l9 23h-3Zm-9-2h8l-4-11ZM408 124l4-13h3l-6 17h-2l-6-17h3ZM429 128l-1-2c-1 2-3 2-5 2l-4-1-1-4c0-1 0-3 2-4l5-1h3v-1l-1-3-2-1-3 1-1 2h-3l1-2 2-2 4-1 4 1 2 4v8l1 4Zm-5-2 2-1 2-2v-3h-2c-4 0-5 1-5 3v2l3 1ZM439 128h-3v-17h3Zm-3-21v-1l1-1 2 1v2h-3v-1ZM446 128h-2v-24h2ZM461 128v-2c-1 2-3 2-5 2l-4-1-1-4c0-1 0-3 2-4l5-1h3v-1l-1-3-3-1-2 1-1 2h-3l1-2 2-2 4-1 4 1 2 4v12Zm-4-2 2-1 2-2v-3h-2c-4 0-6 1-6 3l1 2 3 1ZM483 120l-2 6c-1 2-3 2-5 2s-4 0-5-2v2h-3v-24h3v9l5-2 5 2 2 7Zm-3 0-1-5-4-2-4 3v7l4 3 4-2 1-4ZM489 128h-2v-17h2Zm-3-21 1-1 1-1 1 1 1 1-1 1h-2l-1-1ZM497 128h-3v-24h3ZM505 128h-3v-17h3Zm-3-21v-1l2-1 1 1v2h-3v-1ZM513 107v4h4v2h-4v11l1 1 1 1h2v2h-2l-3-1-1-3v-11h-3v-2h3v-4ZM526 124l3-13h4l-7 20c-1 3-3 4-5 4h-2v-3h3l2-2v-2l-6-17h3ZM595 119v9h-3v-23h8l6 2c2 2 2 3 2 5 0 3 0 4-2 5-1 2-3 2-6 2Zm0-2h5l4-1 1-4-1-3-3-1h-6ZM622 128v-2c-2 2-3 2-5 2l-4-1-2-4 2-4 6-1h3v-1l-1-3-3-1-3 1-1 2h-2v-2l3-2 3-1 5 1 2 4v12Zm-5-2 3-1 2-2v-3h-3c-3 0-5 1-5 3l1 2 2 1ZM637 114h-1l-4 2v12h-3v-17h3v2l4-2h1ZM644 107v4h3v2h-3v12l2 1h1v2h-2l-3-1-1-3v-11h-3v-2h3v-4ZM653 128h-2v-17h2Zm-3-21 1-1 1-1 1 1 1 1-1 1h-2l-1-1ZM662 107v4h3v2h-3v12l2 1h1v2h-2l-3-1-1-3v-11h-3v-2h3v-4ZM672 128h-3v-17h3Zm-4-21 1-1 1-1 1 1 1 1-1 1h-2l-1-1ZM675 120l1-5 3-3 4-1 6 2 2 7-1 4a7 7 0 0 1-7 4c-2 0-4 0-5-2l-3-6Zm3 0 2 4c1 2 2 2 3 2 2 0 3 0 4-2l1-4-1-5-4-2-3 2-2 5ZM697 111v2l5-2c4 0 6 2 6 6v11h-3v-11l-1-3-3-1-2 1-2 2v12h-3v-17ZM736 108h-7v20h-3v-20h-7v-3h17ZM738 120l1-5 3-3 4-1 5 2c2 2 3 4 3 7l-1 4a7 7 0 0 1-7 4c-2 0-4 0-6-2l-2-6Zm3 0 1 4c1 2 2 2 4 2 1 0 3 0 3-2l2-4-2-5-3-2-4 2-1 5ZM760 128h-3v-24h3ZM772 128c-2 0-4 0-6-2l-2-6 1-5 3-3 4-1 5 2 2 6v2h-12l2 4 3 1 3-1 2-1 1 1c-1 2-3 3-6 3Zm0-15c-2 0-3 1-3 2l-2 3h9c0-2-1-3-2-3l-2-2ZM790 114h-1l-4 2v12h-3v-17h3v2l4-2h1ZM800 128c-3 0-4 0-6-2l-2-6 1-5 3-3 3-1c3 0 4 1 5 2 2 2 2 4 2 6v2h-11l1 4 4 1 2-1 2-1 2 1c-1 2-3 3-6 3Zm-1-15-3 2-1 3h8l-1-3c-1-1-1-2-3-2ZM812 111v2l5-2c4 0 6 2 6 6v11h-3v-11l-1-3-2-1-3 1-2 2v12h-2v-17ZM834 126l3-1 1-2h3l-1 3-3 2h-3c-2 0-4 0-6-2l-2-6v-1l1-4a7 7 0 0 1 7-4l5 2 2 4h-3l-1-3-3-1c-2 0-3 1-3 2l-2 4v1l2 5 3 1ZM851 128c-2 0-4 0-6-2l-2-6 1-5 3-3 4-1 5 2 2 6v2h-12l2 4 3 1 3-1 2-1 1 1c-1 2-3 3-6 3Zm0-15c-2 0-3 1-3 2l-2 3h9c0-2-1-3-2-3l-2-2Zm0 0" fill="#100F0D"/><path transform="matrix(1.88559 3.23107 -3.23284 1.88662 688 167)" fill="none" d="M0 0h29" stroke="#F1521B"/><path d="m112 320 3-5h3l-5 7 5 8h-3l-3-6-4 6h-2l5-8-5-7h3ZM139 319h-11v-3h11Zm0 5h-11v-2h11ZM162 311l-8 19h-2l8-18h-11v-2h13ZM210 302l4-6h3l-5 8 5 7h-3l-3-5-4 5h-3l5-7-5-8h3ZM222 305l1-2 1-2 2-2 1-3-1-2-2-1-2 1-1 2h-2l1-4 4-1 4 1 2 4c0 2-1 3-3 5l-1 1-1 3Zm0 5 1-1 1-1 1 1v2h-2l-1-1ZM285 311l-8 19h-3l8-18h-10v-2h13Zm0 0" fill="#100F0D"/><g clip-path="url(#k)"><path fill="#424242" d="m487 439-12-1h-1v-15h-1v-5h2l12-1v-1h-31v1l12 1h2v5h-1v15h-1l-12 1v1h31Zm0 0"/></g><path fill="#424242" d="M453 414h37v2h-37ZM458 413h9v-2h-7l-2 2ZM476 382h2v20h-2Zm0 0"/><g clip-path="url(#l)"><path fill="#424242" d="M480 394v-2h1v1h2l10 4v3l-4 9v3h-1v1h3v3h-3v1h3v-8l4-8v-5l-1-1-11-4h-2v1h-1v-4h-2v8h2Zm10 15v1l-1-1h1Zm4-13v1-1Zm-11-4h-1 1Zm0 0"/></g><path fill="#424242" d="M483 392ZM490 409v1-1Zm0 0"/><g clip-path="url(#m)"><path fill="#424242" d="M494 396v1-1Zm0 0"/></g><g clip-path="url(#n)"><path fill="#424242" d="M449 388a7 7 0 0 1-1 4 7 7 0 0 1-10 1 7 7 0 0 1-1-7 6 6 0 0 1 2-3 7 7 0 0 1 10 5Zm0 0"/></g><g clip-path="url(#o)"><path fill="#424242" d="M433 421h1a13 13 0 0 0 3 0h8l1 16a4 4 0 0 0 4 4c2 0 4-2 4-4l-2-19c0-2-2-4-4-4h-9l1-5-6-6a3 3 0 0 1 0-5 3 3 0 0 1 5 1l2 2c0-2-1-5-3-6-2 0-6 1-8 5-2 6-2 10-1 16 0 4 2 5 4 5Zm0 0"/></g><g clip-path="url(#p)"><path fill="#424242" d="m419 407-1 1 6 16c1 2 4 3 8 3h1v7l-8 2v1a2 2 0 0 0 0 3l2-1-1-2 7-2v2a2 2 0 0 0 1 3l1-1v-4l7 2a2 2 0 0 0 0 3l2-1-1-2v-1l-8-2v-7h1c4 0 7-2 7-3s-13-2-18-1l-3-8 4 3c2-1-5-19-7-18v7Zm0 0"/></g><path fill="#424242" d="M435 399v3l8 9 2 1h12c2 0 3-1 3-2 0-2-1-3-3-3h-11l-8-8h-3Zm0 0"/><g clip-path="url(#q)"><path fill="#424242" d="m761 439-12-1h-1v-15h-1v-5h2l12-1v-1h-31v1l12 1h2v5h-1v15h-1l-12 1v1h31Zm0 0"/></g><path fill="#424242" d="M727 414h37v2h-37ZM732 413h9v-2h-7l-2 2ZM750 382h2v20h-2Zm0 0"/><g clip-path="url(#r)"><path fill="#424242" d="M754 394v-2h1v1h2l10 4v3l-4 9v3h-1v1h3v3h-3v1h3v-8l4-8v-5l-1-1-11-4h-2v1h-1v-4h-2v8h2Zm10 15v1-1Zm4-13v1-1Zm-11-4v1l-1-1h1Zm0 0"/></g><path fill="#424242" d="M757 392ZM764 409v1-1Zm0 0"/><g clip-path="url(#s)"><path fill="#424242" d="M768 396v1-1Zm0 0"/></g><g clip-path="url(#t)"><path fill="#424242" d="M723 388a7 7 0 0 1-1 4 7 7 0 0 1-12-4 7 7 0 0 1 1-3 6 6 0 0 1 3-3 7 7 0 0 1 8 3 6 6 0 0 1 1 3Zm0 0"/></g><g clip-path="url(#u)"><path fill="#424242" d="M707 421h1a13 13 0 0 0 3 0h8l1 16a4 4 0 0 0 4 4c2 0 4-2 4-4l-2-19c0-2-2-4-4-4h-9l1-5-6-6-1-3 1-2a3 3 0 0 1 5 1l2 2c0-2-1-5-3-6-3 0-6 1-8 5-2 6-2 10-1 16 0 4 2 5 4 5Zm0 0"/></g><g clip-path="url(#v)"><path fill="#424242" d="m693 407-1 1 6 16c1 2 4 3 8 3h1v7l-9 2v1a2 2 0 0 0 1 3l2-1-1-2 7-2v2l-1 2 2 1 1-1-1-2v-2l8 2-1 2 1 1 2-1-1-2v-1l-9-2v-7h2c4 0 7-2 7-3s-13-2-18-1l-3-8 4 3c1-1-5-19-7-18v7Zm0 0"/></g><path fill="#424242" d="M709 399v3l8 9 2 1h12c2 0 3-1 3-2 0-2-1-3-3-3h-11l-8-8h-3Zm0 0"/><g clip-path="url(#w)"><path fill="#545454" d="M470 222h-20a13 13 0 0 0-26 3 13 13 0 0 0 26 3h20Zm0 0"/></g><g clip-path="url(#x)"><path fill="#545454" d="M490 212h-4l-10-18-6 4 10 18c-2 2-4 5-4 9 0 7 6 13 14 13 7 0 13-6 13-13s-6-13-13-13Zm0 0"/></g><g clip-path="url(#y)"><path fill="#545454" d="M463 166c-7 0-13 6-13 13 0 4 2 7 4 10l-10 18 5 3 11-18h3c8 0 13-6 13-13s-5-13-13-13Zm0 0"/></g><g clip-path="url(#z)"><path fill="#545454" d="M729 233h-20a13 13 0 0 0-26 3 13 13 0 0 0 26 3h20Zm0 0"/></g><g clip-path="url(#A)"><path fill="#545454" d="M749 223h-4l-10-18-6 4 11 18c-3 2-4 5-4 9 0 7 6 13 13 13s13-6 13-13-6-13-13-13Zm0 0"/></g><g clip-path="url(#B)"><path fill="#545454" d="M722 177c-7 0-13 6-13 13 0 4 2 7 4 10l-10 18 6 3 10-18h3c8 0 14-6 14-13s-6-13-14-13Zm0 0"/></g></svg>