<svg xmlns="http://www.w3.org/2000/svg" width="1280" viewBox="0 0 960 540" height="720" version="1.0"><defs><clipPath id="a"><path d="M1 0h958v539H1Zm0 0"/></clipPath><clipPath id="b"><path d="M73 156h204v204H73Zm0 0"/></clipPath><clipPath id="c"><path d="M662 158h225v221H662Zm0 0"/></clipPath></defs><g clip-path="url(#a)" fill="#FFF"><path d="M1 0h958v10922H1Zm0 0"/><path d="M1 0h958v539H1Zm0 0"/><path d="M1 0h958v539H1Zm0 0"/><path d="M1 0h958v539H1Zm0 0"/></g><g clip-path="url(#b)"><path fill="#545454" d="M175 156a51 51 0 1 0 0 102 51 51 0 0 0 0-102Zm0 128c-34 0-102 17-102 51v25h204v-25c0-34-68-51-102-51Zm0 0"/></g><g clip-path="url(#c)"><path fill="#545454" d="M863 158H687c-14 0-24 11-24 24v18c0 14 10 25 24 25h84v10h-84c-14 0-24 11-24 24v19c0 13 10 24 24 24h84v10h-84c-14 0-24 11-24 25v18c0 13 10 24 24 24h176c13 0 24-11 24-24v-18c0-14-11-25-24-25h-85v-10h85c13 0 24-11 24-24v-19c0-13-11-24-24-24h-85v-10h85c13 0 24-11 24-25v-18c0-13-11-24-24-24Zm17 179v18c0 10-8 17-17 17H687c-10 0-17-7-17-17v-18c0-10 7-17 17-17h176c9 0 17 7 17 17Zm0-78v19c0 9-8 17-17 17H687c-10 0-17-8-17-17v-19c0-9 7-17 17-17h176c9 0 17 8 17 17Zm0-59c0 10-8 18-17 18H687c-10 0-17-8-17-18v-18c0-10 7-17 17-17h176c9 0 17 7 17 17Zm0 0"/></g><path fill="#545454" d="M754 179h-60c-6 0-10 4-10 10v4c0 6 4 10 10 10h60c5 0 10-4 10-10v-4c0-6-4-10-10-10Zm3 14c0 2-1 3-3 3h-60c-2 0-3-1-3-3v-4c0-1 1-3 3-3h60c1 0 3 1 3 3ZM850 179c-6 0-12 5-12 12s6 12 12 12c7 0 13-5 13-12s-6-12-13-12Zm0 17c-2 0-5-2-5-5s3-5 5-5c3 0 6 2 6 5s-3 5-6 5ZM798 182c-5 0-9 4-9 9s4 9 9 9 9-4 9-9-4-9-9-9Zm0 11-2-2c0-1 0-2 2-2l2 2c0 2-1 2-2 2ZM822 182c-4 0-9 4-9 9s4 9 9 9 10-4 10-9-5-9-10-9Zm0 11-2-2c0-2 1-2 2-2s3 0 3 2l-3 2ZM754 256h-60c-6 0-10 5-10 11v3c0 6 4 11 10 11h60c5 0 10-5 10-11v-3c0-6-4-11-10-11Zm3 14c0 2-1 4-3 4h-60c-2 0-3-2-3-4v-3c0-2 1-4 3-4h60c1 0 3 2 3 4ZM850 280c7 0 13-5 13-12s-6-12-13-12c-6 0-12 5-12 12s6 12 12 12Zm0-17c3 0 6 2 6 5s-3 5-6 5c-2 0-5-2-5-5s3-5 5-5ZM798 277c5 0 9-4 9-9s-4-9-9-9-9 4-9 9 4 9 9 9Zm0-11c1 0 2 1 2 3l-2 2-2-2c0-2 1-3 2-3ZM822 277c5 0 10-4 10-9s-4-9-10-9c-4 0-9 4-9 9 1 5 5 9 9 9Zm0-11c1 0 3 1 3 3 0 1-1 2-3 2l-2-2 2-3ZM754 334h-60c-6 0-10 4-10 10v4c0 5 4 10 10 10h60c5 0 10-4 10-10v-4c0-6-4-10-10-10Zm3 14c0 1-1 3-3 3h-60c-2 0-3-1-3-3v-4c0-2 1-3 3-3h60c1 0 3 1 3 3ZM850 358c7 0 13-5 13-12s-6-12-13-12c-6 0-12 5-12 12s6 12 12 12Zm0-17c3 0 6 2 6 5s-3 5-6 5c-2 0-5-2-5-5s3-5 5-5ZM798 355c5 0 9-4 9-9s-4-9-9-9-9 4-9 9c0 6 4 9 9 9Zm0-11 2 2c0 2-1 2-2 2s-2 0-2-2l2-2ZM822 355c5 0 10-4 10-9s-5-9-10-9c-4 0-9 4-9 9 0 6 5 9 9 9Zm0-11 3 2c0 2-1 2-3 2-1 0-2 0-2-2l2-2Zm0 0"/><path transform="matrix(3.74185 0 0 3.98155 332 146)" fill="none" d="M0 0h67" stroke="#008037"/><path stroke-linecap="round" transform="matrix(3.74185 0 0 3.98155 584 146)" fill="none" stroke-linejoin="round" d="m-2-2 2 2-2 2" stroke="#008037"/><path transform="matrix(-3.74185 0 0 -3.98155 583 213)" fill="none" d="M0 0h67" stroke="#000"/><path stroke-linecap="round" transform="matrix(-3.74185 0 0 -3.98155 332 213)" fill="none" stroke-linejoin="round" d="m-3-1 3 1-3 2" stroke="#000"/><path d="m154 424-3 5c-2 2-4 2-6 2l-7-2-2-8v-2l1-6a8 8 0 0 1 8-5l6 2 3 6h-3l-2-4-4-1c-2 0-3 0-4 2l-2 6v2l2 6 4 2 4-1 2-4ZM160 431h-3v-24h3ZM168 431h-3v-17h3Zm-3-21v-1l2-1 1 1v2h-3v-1ZM180 431c-3 0-4 0-6-2l-2-6 1-5 3-3 3-1 5 2c2 2 2 4 2 6v1h-11l1 5 4 1 2-1 2-1 2 1c-1 2-4 3-6 3Zm-1-15-3 2-1 3h8l-1-4-3-1ZM192 414v2l5-2c4 0 6 2 6 6v11h-3v-11l-1-3-2-1-3 1-2 2v12h-2v-17ZM211 410v4h3v2h-3v11l1 1 1 1h1v2h-2l-3-1-1-3v-11h-3v-2h3v-4ZM739 421l-5-3-2-4 2-4 6-2 4 1 3 2 1 4h-3l-2-3-3-1-4 1-1 2 1 3 4 1 5 2 2 2 1 3-2 5-6 1h-5l-3-3-1-3h3l2 3 4 1 3-1 2-3-1-2-5-2ZM758 431c-2 0-4 0-5-2-2-1-3-3-3-6l1-5 3-3 4-1 5 2 2 6v1h-12l2 5 3 1 3-1 2-1 1 1c-1 2-3 3-6 3Zm0-15-3 2-2 3h9l-1-4-3-1ZM776 417h-1l-4 2v12h-3v-17h3v2l4-2h1ZM784 427l5-13h3l-7 17h-2l-6-17h3ZM801 431c-2 0-4 0-5-2-2-1-2-3-2-6l1-5 2-3 4-1 5 2 2 6v1h-12l2 5 3 1 3-1 2-1 2 1c-2 2-4 3-7 3Zm0-15-3 2-1 3h8l-1-4-3-1ZM819 417h-1l-4 2v12h-3v-17h3v2l4-2h1Zm0 0" fill="#0F0E0C"/><path transform="matrix(-3.7422 0 0 -3.98155 583 269)" fill="none" d="M0 0h67" stroke="#000"/><path stroke-linecap="round" transform="matrix(-3.7422 0 0 -3.98155 333 269)" fill="none" stroke-linejoin="round" d="m-2-1 2 1-2 2" stroke="#000"/><path transform="matrix(-3.74185 0 0 -3.98155 583 319)" fill="none" d="M0 0h67" stroke="#000"/><path stroke-linecap="round" transform="matrix(-3.74185 0 0 -3.98155 332 319)" fill="none" stroke-linejoin="round" d="m-3-1 3 1-3 2" stroke="#000"/><path transform="matrix(-3.74185 0 0 -3.98155 595 399)" fill="none" d="M0 0h67" stroke="#FF5757"/><path stroke-linecap="round" transform="matrix(-3.74185 0 0 -3.98155 344 399)" fill="none" stroke-linejoin="round" d="m-3-2 2 2-2 2" stroke="#FF5757"/><path d="M349 117c-3 0-4-1-5-2l-2-3 2-4 5-2 4 1 2 2 1 3h-3l-1-3-3-1-3 1-1 3 1 2 3 1 4 2 2 2 1 2-2 4-5 2-4-1-3-2v-3h2l1 2 4 1h3l1-3-1-2-3-2ZM365 127l-5-2-2-6 1-4 2-3 4-1 4 2 2 6v1h-10l1 3 3 2 2-1 2-1 2 1c-2 2-3 3-6 3Zm0-14-3 1-1 4h7v-1l-1-3-2-1ZM380 125l2-1 1-2h2v2l-3 2-2 1-5-2-2-6 1-4a6 6 0 0 1 6-4l4 2 1 4h-2l-1-3-2-1c-2 0-3 1-3 2l-1 4 1 4c0 1 1 2 3 2ZM397 125l-4 2-3-2-2-4v-9h3v9c0 2 1 3 3 3 1 0 3 0 3-2v-10h3v14h-3ZM411 114h-1c-2 0-3 0-4 2v10h-2v-14h2v1a4 4 0 0 1 5-2ZM419 127l-5-2-1-6v-4l3-3 3-1 4 2c2 1 2 3 2 6v1h-10l1 3 3 2 3-1 1-1 2 1c-1 2-3 3-6 3Zm0-14-3 1-1 4h8v-1l-1-3-3-1ZM450 120l-2 5-6 2c-2 0-4-1-5-3-2-2-2-4-2-7v-2l1-4a7 7 0 0 1 7-5l5 2 2 5h-3l-1-4-3-1-4 2-2 5v2l2 6 3 1 4-1 1-3ZM452 119l1-4a6 6 0 0 1 6-4l5 2 2 6-1 4a6 6 0 0 1-6 4c-2 0-3-1-5-3l-2-5Zm3 0 1 4 3 2 3-2 1-4-1-4-3-2-3 2-1 4ZM471 112l1 1 4-2c3 0 5 2 5 6v9h-3v-9l-1-3-2-1-2 1-1 2v10h-3v-14ZM487 112v1l4-2c3 0 5 2 5 6v9h-2v-9l-1-3-2-1-3 1-1 2v10h-3v-14ZM506 127l-5-2-2-6 1-4 2-3 4-1 4 2 2 6v1h-10l1 3 3 2 2-1 2-1 2 1-6 3Zm0-14-3 1-1 4h7v-1l-1-3-2-1ZM521 125l2-1 1-2h2v2l-3 2-2 1-5-2-2-6 1-4a6 6 0 0 1 6-4l4 2 1 4h-2l-1-3-2-1c-2 0-3 1-3 2l-1 4 1 4c0 1 1 2 3 2ZM533 108v4h2v1h-2v11h3v2l-2 1-3-1-1-3v-10h-2v-1h2v-4ZM541 126h-2v-14h2Zm-3-18 1-1 1-1 1 1v2h-2l-1-1ZM545 119v-4a6 6 0 0 1 6-4l5 2 2 6-1 4a6 6 0 0 1-6 4c-2 0-3-1-5-3l-1-5Zm2 0 1 4 3 2c2 0 3-1 3-2l1-4-1-4c0-1-1-2-3-2l-3 2-1 4ZM564 112v1l4-2c3 0 5 2 5 6v9h-3v-12l-3-1-2 1-1 2v10h-3v-14Zm0 0" fill="#008037"/><path d="M437 185h-9v7h10v2h-13v-20h13v3h-10v6h9ZM446 191l3-11h3l-5 14h-2l-6-14h3ZM461 195l-5-2c-2-2-2-3-2-6l1-4 2-3 3-1 5 2 1 6v1h-10l2 3c0 1 1 2 3 2l2-1 2-1 1 1c-1 2-3 3-5 3Zm-1-14-2 2-2 3h8v-1l-1-3-3-1ZM472 180v1l4-2c3 0 5 2 5 6v9h-3v-12l-3-1-2 1-1 2v10h-3v-14ZM488 176v4h3v2h-3v10h3v2l-2 1-3-1v-12h-3v-2h3v-4ZM437 242h-9v7h10v2h-13v-20h13v2h-10v7h9ZM446 248l3-12h3l-5 15h-2l-6-15h3ZM461 251c-2 0-4 0-5-2-2-1-2-3-2-5l1-4 2-3 3-1 5 2 1 5v2h-10l2 3 3 1h2l2-2 1 2c-1 2-3 2-5 2Zm-1-13-2 1-2 3h8l-1-3-3-1ZM472 236v2l4-2c3 0 5 2 5 5v10h-3v-12l-3-1-2 1-1 2v10h-3v-15ZM488 233v3h3v2h-3v11h3v2h-2l-3-1v-12h-3v-2h3v-3ZM437 299h-9v7h10v3h-13v-20h13v2h-10v6h9ZM446 305l3-11h3l-5 15h-2l-6-15h3ZM461 309l-5-2c-2-1-2-3-2-5v-1l1-4 2-3h3l5 1 1 6v1h-10l2 3c0 1 1 2 3 2l2-1 2-1 1 1c-1 2-3 3-5 3Zm-1-13-2 1-2 3h8l-1-3-3-1ZM472 294v2c1-2 2-2 4-2 3 0 5 1 5 5v10h-3v-13h-5l-1 2v11h-3v-15ZM488 290v4h3v2h-3v10l2 1h1v2h-2l-3-1v-12h-3v-2h3v-4Zm0 0" fill="#0F0E0C"/><path d="m369 366-2 5-5 1-6-2-2-7v-2l1-5a7 7 0 0 1 7-4l5 2c1 1 2 2 2 5h-2l-2-4-3-1-4 2-1 5v2l1 5c1 2 2 2 4 2l3-1 2-3ZM372 365l1-4a6 6 0 0 1 5-4l5 2c2 2 2 3 2 6l-1 4a6 6 0 0 1-6 3c-2 0-3 0-4-2-2-1-2-3-2-5Zm2 0 1 4 3 1 3-1 2-4-2-4c0-1-1-2-3-2l-3 2-1 4ZM391 357v2l4-2c3 0 5 2 5 5v10h-3v-12l-3-1-2 1-1 2v10h-3v-15ZM406 357v2l5-2c3 0 4 2 4 5v10h-2v-10l-1-2-2-1-2 1-2 2v10h-2v-15ZM425 372c-2 0-3 0-5-2l-1-5v-4l3-3 3-1 4 2c2 1 2 3 2 5v1h-10l1 4 3 1h3l1-2 2 1c-1 2-3 3-6 3Zm0-13-3 1-1 3h8l-2-3-2-1ZM440 370l2-1 1-2h3l-1 3-2 2h-3c-2 0-4 0-5-2l-2-5v-1l1-3a6 6 0 0 1 6-4l4 2 2 3h-3l-1-2-2-1-3 1-1 4v1l1 4 3 1ZM452 354v3h3v2h-3v11h3v2h-2l-3-1-1-3v-9h-2v-2h2v-3ZM460 372h-2v-15h2Zm-2-19v-1h2l1 1-1 1-1 1-1-1v-1ZM464 365l1-4a6 6 0 0 1 6-4l4 2c2 2 2 3 2 6l-1 4a6 6 0 0 1-5 3c-2 0-4 0-5-2-2-1-2-3-2-5Zm2 0 2 4 3 1 3-1 1-4-1-4-3-2c-2 0-3 1-3 2l-2 4ZM483 357v2l4-2c3 0 5 2 5 5v10h-2v-10l-1-2-2-1-3 1-1 2v10h-3v-15ZM518 366c0 2-1 3-3 5l-5 1-5-2c-2-2-3-4-3-7v-2l1-5a7 7 0 0 1 7-4l6 2c1 1 2 2 2 5h-3l-1-4-4-1-3 2-2 5v2l1 5c1 2 3 2 4 2l4-1 1-3ZM524 372h-3v-21h3ZM527 365l1-4a6 6 0 0 1 6-4l5 2 2 6-1 4a6 6 0 0 1-6 3c-2 0-4 0-5-2l-2-5Zm3 0 1 4 3 1 3-1 1-4-1-4-3-2-3 2-1 4ZM552 368l-1-1-2-1-3-1-2-2v-2l1-3 4-1 4 1 2 4h-3l-1-2-2-1-2 1-1 1 1 2 2 1 3 1 2 1 1 2-2 3-4 1h-3l-2-2-1-2h3l1 2h4l1-2ZM564 372c-2 0-3 0-5-2l-2-5 1-4 3-3 3-1 4 2 2 5v1h-10l1 4 3 1h3l1-2 2 1c-1 2-3 3-6 3Zm0-13-3 1-1 3h7l-1-3-2-1ZM572 365l2-6 4-2 4 2v-8h3v21h-3v-2c-1 2-2 2-4 2s-3 0-4-2l-2-5Zm3 0 1 4 3 1 3-2v-7l-3-2c-2 0-2 1-3 2l-1 4Zm0 0" fill="#FF1616"/></svg>