<svg xmlns="http://www.w3.org/2000/svg" width="1280" viewBox="0 0 960 540" height="720" version="1.0"><defs><clipPath id="a"><path d="M1 0h958v539H1Zm0 0"/></clipPath><clipPath id="b"><path d="M142 135h145v145H142Zm0 0"/></clipPath><clipPath id="c"><path d="M671 135h147v145H671Zm0 0"/></clipPath></defs><g clip-path="url(#a)" fill="#FFF"><path d="M1 0h958v539H1Zm0 0"/><path d="M1 0h958v539H1Zm0 0"/><path d="M1 0h958v539H1Zm0 0"/></g><g clip-path="url(#b)"><path fill="#545454" d="M215 135a36 36 0 1 0 0 73 36 36 0 0 0 0-73Zm0 91c-24 0-73 12-73 36v18h145v-18c0-24-48-36-72-36Zm0 0"/></g><g clip-path="url(#c)"><path d="M802 135H687c-9 0-16 7-16 16v12c0 9 7 16 16 16h55v7h-55c-9 0-16 7-16 16v12c0 8 7 15 16 15h55v7h-55c-9 0-16 7-16 16v12c0 9 7 16 16 16h115c8 0 15-7 15-16v-12c0-9-7-16-15-16h-56v-7h56c8 0 15-7 15-15v-12c0-9-7-16-15-16h-56v-7h56c8 0 15-7 15-16v-12c0-9-7-16-15-16Zm11 117v12c0 6-5 11-11 11H687c-7 0-12-5-12-11v-12c0-6 5-11 12-11h115c6 0 11 5 11 11Zm0-50v12c0 6-5 11-11 11H687c-7 0-12-5-12-11v-12c0-7 5-12 12-12h115c6 0 11 5 11 12Zm0-39c0 6-5 11-11 11H687c-7 0-12-5-12-11v-12c0-6 5-11 12-11h115c6 0 11 5 11 11Zm0 0"/></g><path d="M730 149h-39c-3 0-6 3-6 7v2c0 4 3 7 6 7h39c4 0 7-3 7-7v-2c0-4-3-7-7-7Zm3 9c0 1-1 3-3 3h-39c-1 0-2-1-2-3v-2l2-2h39c2 0 3 1 3 2ZM794 149c-5 0-8 4-8 8s3 8 8 8c4 0 8-4 8-8s-4-8-8-8Zm0 12c-2 0-4-2-4-4s2-3 4-3c1 0 3 1 3 3s-2 4-3 4ZM759 151c-3 0-6 3-6 6 0 4 3 6 6 6s6-2 6-6c0-3-3-6-6-6Zm0 7-1-1 1-1 2 1-2 1ZM775 151c-3 0-6 3-6 6 0 4 3 6 6 6 4 0 6-2 6-6 0-3-2-6-6-6Zm0 7-1-1 1-1 2 1-2 1ZM730 200h-39c-3 0-6 3-6 6v3c0 3 3 7 6 7h39c4 0 7-3 7-7v-3c0-3-3-6-7-6Zm3 9c0 1-1 2-3 2h-39l-2-2v-3l2-2h39c2 0 3 1 3 2ZM794 215c4 0 8-3 8-8 0-4-4-8-8-8-5 0-8 4-8 8 0 5 3 8 8 8Zm0-11 3 3c0 2-2 4-3 4-2 0-4-2-4-4 0-1 2-3 4-3ZM759 213c3 0 6-2 6-6 0-3-2-6-6-6-3 0-6 3-6 6 0 4 3 6 6 6Zm0-7 2 2-2 1-1-1 1-2ZM775 213c4 0 6-2 6-6 0-3-2-6-6-6-3 0-6 3-6 6 1 4 3 6 6 6Zm0-7 2 2-2 1-1-1 1-2ZM730 250h-39c-3 0-6 3-6 7v2c0 4 3 7 6 7h39c4 0 7-3 7-7v-2c0-4-3-7-7-7Zm3 9c0 1-1 2-3 2h-39c-1 0-2 0-2-2v-2l2-2h39c2 0 3 1 3 2ZM794 266c4 0 8-4 8-8s-4-8-8-8c-5 0-8 4-8 8s3 8 8 8Zm0-11c1 0 3 1 3 3s-2 3-3 3c-2 0-4-1-4-3s2-3 4-3ZM759 264c3 0 6-3 6-6s-3-6-6-6-6 3-6 6c0 4 3 6 6 6Zm0-7 2 1-2 2-1-2 1-1ZM775 264c4 0 6-3 6-6s-2-6-6-6c-3 0-6 3-6 6 0 4 3 6 6 6Zm0-7 2 1-2 2-1-2 1-1Zm0 0"/><path transform="matrix(3.74582 0 0 3.74307 372 179)" fill="none" d="M0 0h59" stroke="#000"/><path stroke-linecap="round" transform="matrix(3.74582 0 0 3.74307 595 179)" fill="none" stroke-linejoin="round" d="m-2-1 2 1-2 1" stroke="#000"/><path transform="matrix(-3.74582 0 0 -3.74307 595 264)" fill="none" d="M0 0h59" stroke="#000"/><path stroke-linecap="round" transform="matrix(-3.74582 0 0 -3.74307 372 264)" fill="none" stroke-linejoin="round" d="m-3-2 2 2-2 2" stroke="#000"/><path d="M451 152h-3v-19l-6 2v-3l9-3ZM461 141l1-11h12v2h-10v6l4-1 4 2c2 2 2 4 2 6s0 4-2 6l-5 2-5-2-2-5h3l1 3 3 1 3-1 1-4-1-4-3-1-3 1h-1ZM488 135v2l5-2c3 0 4 1 5 3l2-2 4-1c3 0 5 2 5 6v11h-3v-14l-3-1-3 1-1 3v11h-3v-11c0-2-1-4-4-4-2 0-3 1-4 3v12h-2v-17ZM523 148v-2l-4-1-3-1-2-2v-2l1-4 5-1 4 2c2 0 2 2 2 3h-3l-1-2-2-1-3 1-1 2 1 1 3 1 4 2 2 1v3l-1 3-5 2-4-1-2-2-1-3h3l1 2 3 1h2l1-2ZM456 309h-14v-2l7-8 3-4v-2l-1-3-2-1-4 1-1 3h-3l2-5 6-2 5 2 1 4c0 3-1 5-4 8l-6 7h11ZM461 298l1-11h12v2h-10v7l4-1c2 0 3 0 4 2 2 1 2 3 2 5 0 3 0 4-2 6l-5 2-5-2-2-5h3l1 3 3 1 3-1 1-4-1-3-3-2-3 1-1 1ZM488 293v1l5-2c3 0 4 1 5 3l2-2 4-1c3 0 5 2 5 6v11h-3v-13l-3-1-3 1-1 2v11h-3v-11c0-2-1-3-4-3-2 0-3 0-4 2v12h-2v-16ZM523 305v-2l-4-1-3-1-2-2v-2l1-3 5-2 4 2c2 1 2 2 2 3h-3l-1-2h-5l-1 2 1 2 3 1 4 1 2 1v3l-1 3-5 2-4-1-2-2-1-3h3l1 3h5l1-2ZM193 340l-2 6-6 2c-3 0-5-1-7-3l-2-8v-2l1-6a8 8 0 0 1 8-5l6 2 2 6h-3l-1-4-4-1c-2 0-3 0-4 2-2 1-2 3-2 6v2l1 6 5 2 4-1 1-4ZM200 347h-3v-24h3ZM208 347h-3v-17h3Zm-3-21v-1l1-1 2 1v2h-3v-1ZM220 348c-3 0-5-1-6-3-2-1-2-3-2-6l1-5 2-3 4-1 5 2 2 6v2h-11l1 4 4 1h2l2-2 2 1c-2 2-4 4-6 4Zm-1-16-3 2-1 3h8l-1-3-3-2ZM232 330v2l5-2c4 0 6 2 6 6v11h-3v-11l-1-3-3-1-2 1-2 2v12h-3v-17ZM251 326v4h3v3h-3v12h3v2l-2 1-3-2-1-3v-10h-3v-3h3v-4ZM709 337l-6-3-2-4 2-4 6-2 4 1 3 3 1 3h-3l-1-3-4-1-4 1-1 2 1 3 4 1 5 2 2 2 1 3-2 5-6 2-4-1-3-3-2-3h3l2 3 4 1 4-1 1-3-1-2-4-2ZM727 348c-2 0-4-1-5-3-2-1-2-3-2-6l1-5 2-3 4-1 5 2 2 6v2h-12l2 4 4 1h2l2-2 2 1c-2 2-4 4-7 4Zm0-16-3 2-1 3h8l-1-3-3-2ZM745 333h-1l-4 2v12h-3v-17h3v2l4-2h1ZM754 343l4-13h3l-6 17h-2l-7-17h3ZM771 348c-3 0-5-1-6-3l-2-6 1-5 2-3 4-1 5 2c2 2 2 4 2 6v2h-11l1 4 4 1h2l2-2 2 1c-2 2-4 4-6 4Zm-1-16-3 2-1 3h8l-1-3-3-2ZM789 333h-2l-4 2v12h-3v-17h3v2l4-2h2ZM303 406h11v3h-14v-23h3ZM328 409l-1-2-5 2-4-2-1-3c0-2 0-3 2-4l5-2h3v-1l-1-2-2-1h-3l-1 2h-3l1-2 2-2 4-1 4 2 2 4v8l1 3v1Zm-5-3h2l2-2v-4h-2c-4 0-5 1-5 3l1 3h2ZM338 388v4h4v2h-4v10l1 2h3v3h-2l-3-1-1-4v-10h-3v-2h3v-4ZM352 409l-6-2-2-6v-1l1-4 3-4 4-1 5 2 2 7v1h-12l2 4 3 1h3l2-2 1 2c-1 2-3 3-6 3Zm0-15-3 1-2 4h9v-1l-1-3-3-1ZM365 392v2c1-2 3-3 5-3 3 0 5 2 5 6v12h-3v-12l-1-2-2-1-3 1-1 1v13h-3v-17ZM386 406h3l1-3h3l-1 3-2 2-4 1-5-2c-2-2-2-4-2-7l1-5a7 7 0 0 1 6-4l5 2 2 4h-3l-1-2-3-1-3 1-1 5 1 5 3 1ZM402 404l4-12h3l-7 19c-1 3-3 4-5 4h-2v-2h1l2-1 2-2v-2l-6-16h4ZM432 396h-13v-3h13Zm0 6h-13v-2h13ZM454 409h-3v-20l-6 2v-2l8-3h1ZM464 397l1-11h11v2h-9v7l3-1c2 0 4 0 5 2 2 1 2 3 2 5l-2 6-5 2-5-2-2-4h3l1 2 3 1 3-1 1-4-1-3-3-2-3 1-1 1ZM497 396h6v3h-6v7h-3v-7h-6v-3h6v-6h3ZM529 409h-15v-3l8-8 2-4 1-2-1-3-3-1-3 1-1 3h-3c0-2 0-3 2-5l5-2 5 2 2 5-4 8-6 6h11ZM533 397l2-11h11v2h-9l-1 7 4-1c2 0 4 0 5 2l2 5-2 6-5 2-5-2-2-4h2l2 2 3 1 3-1 1-4-1-3-4-2-2 1-1 1ZM571 396h-13v-3h13Zm0 6h-13v-2h13ZM596 401h3v2h-3v6h-3v-6h-11v-1l11-16h3Zm-10 0h7v-11h-1ZM616 399l-2 7c-1 2-3 3-6 3-2 0-4-1-5-3l-2-7v-4l2-7c1-2 3-3 5-3 3 0 5 1 6 3l2 7Zm-3-4-1-5c-1-2-2-2-4-2-1 0-2 0-3 2l-1 5v4l1 6 3 1 4-1 1-5ZM630 392v2c1-2 3-3 5-3 3 0 4 1 5 3l2-2 3-1c4 0 6 2 6 6v12h-3v-12l-1-2-2-1-3 1-1 2v12h-3v-12c0-2-1-3-4-3l-4 2v13h-3v-17ZM665 404l-1-2-3-1-3-1-2-2-1-2 2-3 5-2 4 2 2 4h-3l-1-2-2-1h-3l-1 2 1 2 3 1 4 1 1 2 1 2c0 1 0 3-2 3l-4 2-4-1-2-2-1-3h3l1 3h5l1-2Zm0 0" fill="#0F0E0C"/></svg>