<svg xmlns="http://www.w3.org/2000/svg" width="1280" viewBox="0 0 960 540" height="720" version="1.0"><defs><clipPath id="a"><path d="M.9 0H959v539H1Zm0 0"/></clipPath><clipPath id="b"><path d="M709.3 81.6h129.5V209H709.3Zm0 0"/></clipPath><clipPath id="c"><path d="M709.3 256.6h129.5V384H709.3Zm0 0"/></clipPath><clipPath id="d"><path d="M91.5 118.9H138v85.3H91.5Zm0 0"/></clipPath><clipPath id="e"><path d="M55 290h119.6v72.7H55Zm0 0"/></clipPath></defs><g clip-path="url(#a)" fill="#fff"><path d="M.9 0H959v546.5H1Zm0 0"/><path d="M.9 0H959v539H1Zm0 0"/><path d="M.9 0H959v539H1Zm0 0"/><path d="M.9 0H959v539H1Zm0 0"/></g><g clip-path="url(#b)"><path fill="#545454" d="M824.8 81.6H723.3a14 14 0 0 0-14 14V106a14 14 0 0 0 14 14h48.8v6h-48.8a14 14 0 0 0-14 14v10.4a14 14 0 0 0 14 14h48.8v6h-48.8a14 14 0 0 0-14 14V195a14 14 0 0 0 14 14h101.5a14 14 0 0 0 14-14v-10.5a14 14 0 0 0-14-14h-48.7v-6h48.7a14 14 0 0 0 14-14V140a14 14 0 0 0-14-14h-48.7v-6h48.7a14 14 0 0 0 14-14V95.7a14 14 0 0 0-14-14Zm10 102.9V195a10 10 0 0 1-10 9.9H723.3a10 10 0 0 1-9.9-10v-10.4a10 10 0 0 1 10-10h101.4a10 10 0 0 1 10 10Zm0-44.5v10.5a10 10 0 0 1-10 10H723.3a10 10 0 0 1-9.9-10V140a10 10 0 0 1 10-9.9h101.4a10 10 0 0 1 10 10Zm0-34a10 10 0 0 1-10 10H723.3a10 10 0 0 1-9.9-10V95.7a10 10 0 0 1 10-10h101.4a10 10 0 0 1 10 10Zm0 0"/></g><path fill="#545454" d="M762 93.8h-34.4a6 6 0 0 0-6.1 6v2a6 6 0 0 0 6 6.1H762a6 6 0 0 0 6.1-6v-2a6 6 0 0 0-6-6.1Zm2 8c0 1-.8 2-2 2h-34.4c-1 0-2-.7-2-2v-2c0-1 .8-2 2-2h34.3c1 0 2 .8 2 2ZM817.8 93.8c-3.9 0-7.1 3.2-7.1 7 0 3.9 3.2 7.1 7 7.1 4 0 7.1-3.2 7.1-7 0-3.9-3.2-7.1-7-7.1Zm0 10c-1.7 0-3-1.3-3-3 0-1.6 1.3-3 3-3 1.6 0 3 1.4 3 3 0 1.7-1.4 3-3 3ZM787.4 95.6a5.2 5.2 0 0 0-5.2 5.2c0 3 2.2 5.3 5.2 5.3 2.9 0 5.3-2.2 5.3-5.3 0-3-2.4-5.2-5.3-5.2Zm0 6.2c-.6 0-1.2-.4-1.2-1s.4-1.2 1.2-1.2c.6 0 1.2.4 1.2 1.2 0 .8-.6 1-1.2 1ZM801.6 95.6a5.2 5.2 0 0 0-5.3 5.2c0 3 2.3 5.3 5.3 5.3 2.8 0 5.2-2.2 5.2-5.3 0-3-2.4-5.2-5.2-5.2Zm0 6.2c-.6 0-1.2-.4-1.2-1.2 0-.8.4-1.2 1.2-1.2.6 0 1.2.4 1.2 1.2 0 .8-.6 1.2-1.2 1.2ZM762 138.2h-34.4a6 6 0 0 0-6.1 6v2a6 6 0 0 0 6 6.1H762a6 6 0 0 0 6.1-6v-2a6 6 0 0 0-6-6Zm2 8c0 1.1-.8 2.1-2 2.1h-34.4c-1 0-2-.8-2-2v-2c0-1 .8-2 2-2h34.3c1 0 2 .8 2 2ZM817.8 152.1c3.8 0 7-3.2 7-7 0-3.9-3.2-7-7-7-3.9 0-7.1 3.1-7.1 7 0 3.8 3.2 7 7 7Zm0-10c1.6 0 3 1.4 3 3s-1.4 3-3 3c-1.7 0-3-1.4-3-3s1.3-3 3-3ZM787.4 150.3a5.2 5.2 0 1 0 0-10.5 5.2 5.2 0 0 0-5.2 5.3c0 3 2.4 5.2 5.2 5.2Zm0-6.2c.6 0 1.2.4 1.2 1.2 0 .6-.4 1.2-1.2 1.2-.6 0-1.2-.4-1.2-1.2 0-.8.6-1.2 1.2-1.2ZM801.6 150.3c2.8 0 5.2-2.2 5.2-5.2a5.2 5.2 0 1 0-10.5 0c.2 3 2.5 5.2 5.3 5.2Zm0-6.2c.6 0 1.2.4 1.2 1.2 0 .6-.4 1.2-1.2 1.2-.6 0-1.2-.4-1.2-1.2.2-.8.6-1.2 1.2-1.2ZM762 182.6h-34.4a6 6 0 0 0-6.1 6.1v2a6 6 0 0 0 6 6H762a6 6 0 0 0 6.1-6v-2a6 6 0 0 0-6-6Zm2 8.1c0 1-.8 2-2 2h-34.4c-1 0-2-.8-2-2v-2c0-1 .8-2 2-2h34.3c1 0 2 .8 2 2ZM817.8 196.8c3.8 0 7-3.2 7-7 0-4-3.2-7.2-7-7.2-3.9 0-7.1 3.3-7.1 7.1 0 3.9 3.2 7 7 7Zm0-10.1c1.6 0 3 1.4 3 3s-1.4 3-3 3c-1.7 0-3-1.4-3-3s1.3-3 3-3ZM787.4 195c2.9 0 5.3-2.3 5.3-5.3s-2.4-5-5.3-5a5.2 5.2 0 0 0-5.2 5.2c0 3 2.4 5 5.2 5Zm0-6.3c.6 0 1.2.4 1.2 1.2 0 .8-.4 1.2-1.2 1.2-.6 0-1.2-.4-1.2-1.2 0-.8.6-1.2 1.2-1.2ZM801.6 195c2.8 0 5.2-2.3 5.2-5.3s-2.4-5-5.2-5a5.2 5.2 0 0 0-5.3 5.2c0 3 2.5 5 5.3 5Zm0-6.3c.6 0 1.2.4 1.2 1.2 0 .8-.4 1.2-1.2 1.2-.6 0-1.2-.4-1.2-1.2 0-.8.6-1.2 1.2-1.2Zm0 0"/><path d="M467.1 171.8a73 73 0 1 0-9.4 145.7 73 73 0 0 0 9.4-145.7Zm28.3 109a129 129 0 0 0 4.8-33.4h29.4a67 67 0 0 1-16.2 41c-4.4-3-10.6-5.7-18-7.7Zm-84.1 7.6a67 67 0 0 1-16.2-41h29.4a129 129 0 0 0 4.8 33.3c-7.5 2-13.6 4.6-18 7.7Zm18-80a129 129 0 0 0-4.8 33.3H395a67 67 0 0 1 16-40.8c4.5 3 10.7 5.6 18.2 7.5Zm30.2 33.3h-29.4c.2-11.6 2-22.5 4.8-32 7.6 1.5 16 2.4 24.6 2.6Zm0 5.7v29.4c-8.6.2-17 1-24.6 2.6-2.8-9.5-4.6-20.4-4.8-32Zm5.6 0h29.5c-.3 11.6-2 22.5-4.8 32a137 137 0 0 0-24.7-2.6Zm0-5.7v-29.4c8.7-.2 17-1 24.7-2.6 2.8 9.5 4.5 20.4 4.8 32Zm0-35v-29.2c9.2 1.8 17.5 12 22.9 26.8-7 1.4-14.9 2.2-22.9 2.3Zm-5.6-29.2v29.1c-8-.1-15.8-.9-22.8-2.3 5.4-14.8 13.6-25 22.8-26.8Zm0 105v29.1c-9.2-1.7-17.4-12-22.8-26.8 7-1.4 14.8-2.2 22.8-2.3Zm5.6 29.1v-29.1c8 .1 15.9 1 22.9 2.3-5.4 14.8-13.7 25-22.9 26.8Zm35-69.9c-.2-12.1-1.9-23.4-4.7-33.3 7.5-2 13.6-4.5 18.1-7.5a67 67 0 0 1 16 40.8Zm9.5-45c-3.9 2.5-9.4 4.7-16 6.4-3.5-10-8.2-18.1-13.9-23.6 11.5 3 21.7 9 30 17.2ZM431 203a57 57 0 0 1-16-6.4 67.3 67.3 0 0 1 30-17.2 61.4 61.4 0 0 0-14 23.6Zm-15.8 89.5c3.8-2.6 9.3-4.8 15.8-6.5 3.5 10 8.3 18 14 23.5-11.5-3-21.7-9-29.8-17Zm78.4-6.5c6.6 1.7 12 4 15.9 6.5-8.2 8-18.4 14-29.8 17a61.4 61.4 0 0 0 14-23.5Zm0 0"/><path d="M81.5 442.8a8.4 8.4 0 0 1-2.6 5.5 8.7 8.7 0 0 1-6 2 8 8 0 0 1-6.4-2.9c-1.7-2-2.5-4.5-2.5-7.7v-2.2c0-2.1.4-4 1.2-5.6a8.4 8.4 0 0 1 8-5c2.4 0 4.3.7 5.8 2a8.5 8.5 0 0 1 2.5 5.7h-3c-.2-1.8-.8-3.1-1.7-4a5 5 0 0 0-3.6-1.2c-2 0-3.4.7-4.5 2.2a9.7 9.7 0 0 0-1.7 6v2.2c0 2.4.6 4.4 1.6 5.9a5 5 0 0 0 4.3 2.1c1.7 0 3-.3 3.8-1 1-.8 1.5-2.2 1.8-4ZM88.3 450h-2.9v-24h2.9ZM96 450h-2.8V433H96Zm-3-21.4c0-.4 0-.8.3-1.2.3-.3.8-.4 1.3-.4.6 0 1 .1 1.3.4.3.4.4.8.4 1.2 0 .5-.1.9-.4 1.2-.3.3-.7.5-1.3.5-.5 0-1-.2-1.3-.5-.2-.3-.4-.7-.4-1.2ZM107.7 450.3c-2.3 0-4.2-.8-5.6-2.3a8.4 8.4 0 0 1-2.2-6v-.5c0-1.7.3-3.2 1-4.5a7.5 7.5 0 0 1 2.7-3 6.7 6.7 0 0 1 3.7-1.2c2.2 0 3.9.7 5.1 2.2a9.4 9.4 0 0 1 1.8 6.2v1.2h-11.4c0 1.6.5 3 1.5 4 .9 1 2 1.5 3.5 1.5a5 5 0 0 0 2.6-.6c.7-.4 1.3-1 1.9-1.6l1.7 1.3a7 7 0 0 1-6.3 3.3Zm-.4-15.1c-1.2 0-2.2.4-3 1.2-.7.9-1.2 2-1.4 3.6h8.4v-.2c0-1.5-.4-2.6-1.1-3.4a3.6 3.6 0 0 0-2.9-1.2ZM120.3 433.1v2.1c1.4-1.6 3-2.4 5.1-2.4 3.6 0 5.4 2 5.4 6V450H128v-11.2c0-1.2-.2-2.1-.8-2.7-.5-.6-1.4-.9-2.5-.9-1 0-1.8.3-2.5.8a5 5 0 0 0-1.7 2v12h-2.8V433ZM139.1 429v4.1h3.2v2.2H139v10.5c0 .7.1 1.2.4 1.5.3.4.8.5 1.5.5.3 0 .7 0 1.3-.2v2.4c-.7.2-1.5.3-2.2.3-1.3 0-2.3-.4-3-1.2a5 5 0 0 1-.9-3.3v-10.5h-3v-2.2h3v-4ZM155.4 445.5c0-.8-.3-1.4-.8-1.8-.6-.4-1.6-.8-3.1-1.1-1.5-.3-2.6-.7-3.5-1.2a5 5 0 0 1-1.9-1.5 4.4 4.4 0 0 1 1.1-5.7c1.2-1 2.7-1.4 4.5-1.4 2 0 3.5.5 4.7 1.5 1.2 1 1.8 2.2 1.8 3.8h-3c0-.8-.3-1.5-1-2-.6-.6-1.4-1-2.5-1a4 4 0 0 0-2.4.8c-.6.4-1 1-1 1.7s.3 1.3.9 1.6c.6.4 1.5.7 3 1 1.4.4 2.6.7 3.5 1.2a5 5 0 0 1 2 1.6c.4.6.6 1.4.6 2.3 0 1.5-.6 2.7-1.8 3.6a7.6 7.6 0 0 1-4.7 1.4c-1.3 0-2.5-.3-3.6-.7a6 6 0 0 1-2.4-2c-.6-.9-.9-1.8-.9-2.8h2.9a3 3 0 0 0 1.2 2.3c.7.5 1.6.8 2.8.8 1.1 0 2-.2 2.7-.6.6-.5 1-1 1-1.8ZM731 439.9a14 14 0 0 1-5.5-2.8 5.2 5.2 0 0 1-1.8-4c0-1.7.7-3.2 2.2-4.4a8.5 8.5 0 0 1 5.5-1.7c1.6 0 3 .3 4.2.9 1.2.6 2.2 1.4 2.8 2.5.7 1 1 2.2 1 3.4h-3c0-1.3-.4-2.4-1.3-3.2a5.4 5.4 0 0 0-3.7-1.2c-1.4 0-2.6.4-3.4 1-.9.6-1.3 1.5-1.3 2.7a3 3 0 0 0 1.2 2.4c.8.6 2.1 1.2 4 1.7a18 18 0 0 1 4.4 1.8c1.1.6 2 1.3 2.4 2.2.5.9.8 1.9.8 3 0 1.8-.7 3.3-2.2 4.4a9.2 9.2 0 0 1-5.7 1.7c-1.6 0-3-.3-4.4-.9a7.5 7.5 0 0 1-3.1-2.5 6 6 0 0 1-1.1-3.5h3c0 1.4.5 2.5 1.5 3.2 1 .8 2.4 1.2 4.1 1.2a6 6 0 0 0 3.6-1c.9-.6 1.3-1.4 1.3-2.6a3 3 0 0 0-1.2-2.5c-.8-.6-2.2-1.3-4.2-1.8ZM749.9 450.3c-2.3 0-4.2-.8-5.6-2.3a8.4 8.4 0 0 1-2.1-6v-.5c0-1.7.3-3.2.9-4.5a7.5 7.5 0 0 1 2.7-3 6.7 6.7 0 0 1 3.7-1.2c2.2 0 4 .7 5.1 2.2a9.4 9.4 0 0 1 1.9 6.2v1.2H745c0 1.6.5 3 1.5 4s2.1 1.5 3.5 1.5a5 5 0 0 0 2.6-.6c.7-.4 1.3-1 1.9-1.6l1.7 1.3a7 7 0 0 1-6.3 3.3Zm-.4-15.1c-1.1 0-2.1.4-3 1.2-.7.9-1.2 2-1.4 3.6h8.5v-.2c-.1-1.5-.5-2.6-1.2-3.4a3.6 3.6 0 0 0-2.9-1.2ZM768 435.7a9 9 0 0 0-1.5-.1c-1.9 0-3.1.8-3.8 2.4v12h-2.9V433h2.8v2c1-1.6 2.3-2.3 4-2.3.6 0 1 0 1.4.2ZM776.2 446l4.2-12.9h2.9l-6 16.9H775l-6-16.9h2.9ZM793 450.3c-2.2 0-4-.8-5.5-2.3a8.4 8.4 0 0 1-2.2-6v-.5c0-1.7.4-3.2 1-4.5a7.5 7.5 0 0 1 2.7-3 6.7 6.7 0 0 1 3.7-1.2c2.2 0 4 .7 5.1 2.2a9.4 9.4 0 0 1 1.9 6.2v1.2h-11.5c0 1.6.5 3 1.5 4s2 1.5 3.5 1.5a5 5 0 0 0 2.6-.6c.7-.4 1.3-1 1.9-1.6l1.7 1.3a7 7 0 0 1-6.3 3.3Zm-.3-15.1c-1.2 0-2.1.4-3 1.2-.7.9-1.2 2-1.4 3.6h8.5v-.2c-.1-1.5-.5-2.6-1.2-3.4a3.6 3.6 0 0 0-2.9-1.2ZM811.1 435.7a9 9 0 0 0-1.4-.1c-1.9 0-3.2.8-3.8 2.4v12h-3V433h2.9v2c1-1.6 2.3-2.3 4-2.3.6 0 1 0 1.3.2ZM823.6 445.5c0-.8-.3-1.4-.9-1.8-.6-.4-1.6-.8-3-1.1-1.5-.3-2.7-.7-3.5-1.2a5 5 0 0 1-2-1.5c-.3-.6-.5-1.3-.5-2.2 0-1.3.6-2.5 1.7-3.5 1.2-1 2.7-1.4 4.5-1.4 2 0 3.5.5 4.7 1.5 1.2 1 1.7 2.2 1.7 3.8h-2.8c0-.8-.4-1.5-1-2-.7-.6-1.6-1-2.6-1a4 4 0 0 0-2.5.8c-.6.4-.9 1-.9 1.7s.3 1.3.9 1.6c.5.4 1.5.7 3 1 1.4.4 2.6.7 3.5 1.2a5 5 0 0 1 2 1.6c.4.6.6 1.4.6 2.3 0 1.5-.6 2.7-1.8 3.6a7.6 7.6 0 0 1-4.7 1.4c-1.4 0-2.6-.3-3.6-.7a6 6 0 0 1-2.4-2c-.6-.9-.9-1.8-.9-2.8h2.9a3 3 0 0 0 1.1 2.3c.8.5 1.7.8 2.9.8 1.1 0 2-.2 2.6-.6.7-.5 1-1 1-1.8Zm0 0" fill="#0f0e0c"/><g clip-path="url(#c)"><path fill="#545454" d="M824.8 256.6H723.3a14 14 0 0 0-14 14V281a14 14 0 0 0 14 14h48.8v6h-48.8a14 14 0 0 0-14 14v10.4a14 14 0 0 0 14 14h48.8v6h-48.8a14 14 0 0 0-14 14V370a14 14 0 0 0 14 14h101.5a14 14 0 0 0 14-14v-10.5a14 14 0 0 0-14-14h-48.7v-6h48.7a14 14 0 0 0 14-14V315a14 14 0 0 0-14-14h-48.7v-6h48.7a14 14 0 0 0 14-14v-10.4a14 14 0 0 0-14-14Zm10 102.9V370a10 10 0 0 1-10 9.9H723.3a10 10 0 0 1-9.9-10v-10.4a10 10 0 0 1 10-10h101.4a10 10 0 0 1 10 10Zm0-44.5v10.5a10 10 0 0 1-10 10H723.3a10 10 0 0 1-9.9-10V315a10 10 0 0 1 10-9.9h101.4a10 10 0 0 1 10 10Zm0-34a10 10 0 0 1-10 10H723.3a10 10 0 0 1-9.9-10v-10.4a10 10 0 0 1 10-10h101.4a10 10 0 0 1 10 10Zm0 0"/></g><path fill="#545454" d="M762 268.8h-34.4a6 6 0 0 0-6.1 6v2a6 6 0 0 0 6 6.1H762a6 6 0 0 0 6.1-6v-2a6 6 0 0 0-6-6.1Zm2 8c0 1-.8 2-2 2h-34.4c-1 0-2-.7-2-2v-2c0-1 .8-2 2-2h34.3c1 0 2 .8 2 2ZM817.8 268.8c-3.9 0-7.1 3.2-7.1 7 0 3.9 3.2 7.1 7 7.1 4 0 7.1-3.2 7.1-7 0-4-3.2-7.1-7-7.1Zm0 10c-1.7 0-3-1.4-3-3s1.3-3 3-3c1.6 0 3 1.4 3 3s-1.4 3-3 3ZM787.4 270.6a5.2 5.2 0 0 0-5.2 5.2c0 3 2.2 5.3 5.2 5.3 2.9 0 5.3-2.2 5.3-5.3 0-3-2.4-5.2-5.3-5.2Zm0 6.2c-.6 0-1.2-.4-1.2-1s.4-1.2 1.2-1.2c.6 0 1.2.4 1.2 1.2 0 .8-.6 1-1.2 1ZM801.6 270.6a5.2 5.2 0 0 0-5.3 5.2c0 3 2.3 5.3 5.3 5.3 2.8 0 5.2-2.2 5.2-5.3 0-3-2.4-5.2-5.2-5.2Zm0 6.2c-.6 0-1.2-.4-1.2-1.2 0-.8.4-1.2 1.2-1.2.6 0 1.2.4 1.2 1.2 0 .8-.6 1.2-1.2 1.2ZM762 313.2h-34.4a6 6 0 0 0-6.1 6v2a6 6 0 0 0 6 6.1H762a6 6 0 0 0 6.1-6v-2a6 6 0 0 0-6-6.1Zm2 8c0 1-.8 2.1-2 2.1h-34.4c-1 0-2-.8-2-2v-2c0-1 .8-2 2-2h34.3c1 0 2 .8 2 2ZM817.8 327.1c3.8 0 7-3.2 7-7 0-3.9-3.2-7.1-7-7.1-3.9 0-7.1 3.2-7.1 7 0 4 3.2 7.1 7 7.1Zm0-10c1.6 0 3 1.4 3 3s-1.4 3-3 3c-1.7 0-3-1.4-3-3s1.3-3 3-3ZM787.4 325.3a5.2 5.2 0 1 0 0-10.5 5.2 5.2 0 0 0-5.2 5.3c0 3 2.4 5.2 5.2 5.2Zm0-6.2c.6 0 1.2.4 1.2 1.2 0 .6-.4 1.2-1.2 1.2-.6 0-1.2-.4-1.2-1.2 0-.8.6-1.2 1.2-1.2ZM801.6 325.3c2.8 0 5.2-2.2 5.2-5.2 0-2.9-2.2-5.3-5.2-5.3a5.2 5.2 0 0 0-5.3 5.3c.2 3 2.5 5.2 5.3 5.2Zm0-6.2c.6 0 1.2.4 1.2 1.2 0 .6-.4 1.2-1.2 1.2-.6 0-1.2-.4-1.2-1.2.2-.8.6-1.2 1.2-1.2ZM762 357.6h-34.4a6 6 0 0 0-6.1 6.1v2a6 6 0 0 0 6 6H762a6 6 0 0 0 6.1-6v-2a6 6 0 0 0-6-6Zm2 8.1c0 1-.8 2-2 2h-34.4c-1 0-2-.8-2-2v-2c0-1 .8-2 2-2h34.3c1 0 2 .8 2 2ZM817.8 371.8c3.8 0 7-3.2 7-7 0-4-3.2-7.2-7-7.2-3.9 0-7.1 3.3-7.1 7.1 0 3.9 3.2 7 7 7Zm0-10.1c1.6 0 3 1.4 3 3s-1.4 3-3 3c-1.7 0-3-1.4-3-3s1.3-3 3-3ZM787.4 370c2.9 0 5.3-2.3 5.3-5.3s-2.4-5-5.3-5a5.2 5.2 0 0 0-5.2 5.2c0 3 2.4 5 5.2 5Zm0-6.3c.6 0 1.2.4 1.2 1.2 0 .8-.4 1.2-1.2 1.2-.6 0-1.2-.4-1.2-1.2 0-.8.6-1.2 1.2-1.2ZM801.6 370c2.8 0 5.2-2.3 5.2-5.3s-2.4-5-5.2-5a5.2 5.2 0 0 0-5.3 5.2c0 3 2.5 5 5.3 5Zm0-6.3c.6 0 1.2.4 1.2 1.2 0 .8-.4 1.2-1.2 1.2-.6 0-1.2-.4-1.2-1.2 0-.8.6-1.2 1.2-1.2Zm0 0"/><path transform="matrix(2.02959 .96214 -.96203 2.02936 186.6 155.5)" fill="none" d="M2.7 0h89.5" stroke="#737373"/><path stroke-linecap="round" transform="matrix(2.02959 .96214 -.96203 2.02936 186.6 155.5)" fill="#737373" stroke-linejoin="round" d="M2.5-1.5.5 0l2 1.5Zm0 0" stroke="#737373"/><path stroke-linecap="round" transform="matrix(2.02959 .96214 -.96203 2.02936 374.7 244.7)" fill="none" stroke-linejoin="round" d="m-2.5-1.5 2 1.5-2 1.5" stroke="#737373"/><path transform="matrix(2.12336 -.73276 .73263 2.12298 187 326.3)" fill="none" d="M2.7 0h85.5" stroke="#737373"/><path stroke-linecap="round" transform="matrix(2.12336 -.73276 .73263 2.12298 187 326.3)" fill="#737373" stroke-linejoin="round" d="M2.5-1.5.5 0l2 1.5Zm0 0" stroke="#737373"/><path stroke-linecap="round" transform="matrix(2.12336 -.73276 .73263 2.12298 375.2 261.3)" fill="none" stroke-linejoin="round" d="m-2.5-1.5 2 1.5-2 1.5" stroke="#737373"/><path transform="matrix(2.05873 -.89858 .8984 2.05832 538.2 233.4)" fill="none" d="M.5 0h77.7" stroke="#737373"/><path stroke-linecap="round" transform="matrix(2.05873 -.89858 .8984 2.05832 538.2 233.4)" fill="none" stroke-linejoin="round" d="M2.5-1.5.5 0l2 1.5" stroke="#737373"/><path stroke-linecap="round" transform="matrix(2.05873 -.89858 .8984 2.05832 700.1 162.7)" fill="none" stroke-linejoin="round" d="m-2.5-1.5 2 1.5-2 1.5" stroke="#737373"/><path transform="matrix(1.99897 1.01412 -1.01608 2.00284 538.2 251.3)" fill="none" d="M.5 0h79.8" stroke="#737373"/><path stroke-linecap="round" transform="matrix(1.99897 1.01412 -1.01608 2.00284 538.2 251.3)" fill="none" stroke-linejoin="round" d="M2.5-1.5.5 0l2 1.5" stroke="#737373"/><path stroke-linecap="round" transform="matrix(1.99897 1.01412 -1.01608 2.00284 699.8 333.3)" fill="none" stroke-linejoin="round" d="m-2.5-1.5 2 1.5-2 1.5" stroke="#737373"/><path d="M413.6 450h-3v-22.7h3ZM421.3 433.1l.1 2.1c1.3-1.6 3-2.4 5-2.4 3.6 0 5.4 2 5.5 6V450h-3v-11.2c0-1.2-.2-2.1-.7-2.7-.6-.6-1.4-.9-2.6-.9-1 0-1.8.3-2.5.8a5 5 0 0 0-1.6 2v12h-2.9V433ZM440.1 429v4.1h3.2v2.2H440v10.5c0 .7.2 1.2.5 1.5.2.4.7.5 1.4.5.3 0 .8 0 1.4-.2v2.4c-.8.2-1.5.3-2.3.3-1.2 0-2.2-.4-2.9-1.2a5 5 0 0 1-1-3.3v-10.5h-3v-2.2h3v-4ZM453.7 450.3c-2.3 0-4.2-.8-5.6-2.3a8.4 8.4 0 0 1-2.2-6v-.5c0-1.7.3-3.2 1-4.5a7.5 7.5 0 0 1 2.7-3 6.7 6.7 0 0 1 3.7-1.2c2.2 0 3.9.7 5.1 2.2a9.4 9.4 0 0 1 1.8 6.2v1.2h-11.4c0 1.6.5 3 1.4 4 1 1 2.2 1.5 3.6 1.5a5 5 0 0 0 2.6-.6c.7-.4 1.3-1 1.8-1.6l1.8 1.3a7 7 0 0 1-6.3 3.3Zm-.4-15.1c-1.2 0-2.2.4-3 1.2-.7.9-1.2 2-1.4 3.6h8.4v-.2c0-1.5-.4-2.6-1.1-3.4a3.6 3.6 0 0 0-2.9-1.2ZM471.7 435.7a9 9 0 0 0-1.4-.1c-1.9 0-3.2.8-3.9 2.4v12h-2.8V433h2.8v2c1-1.6 2.3-2.3 4-2.3.6 0 1 0 1.3.2ZM477.1 433.1v2.1c1.4-1.6 3-2.4 5.2-2.4 3.5 0 5.3 2 5.3 6V450h-2.8v-11.2c0-1.2-.3-2.1-.9-2.7-.5-.6-1.4-.9-2.5-.9-1 0-1.8.3-2.5.8a5 5 0 0 0-1.6 2v12h-3V433ZM499 450.3c-2.3 0-4.2-.8-5.6-2.3a8.4 8.4 0 0 1-2.1-6v-.5c0-1.7.3-3.2 1-4.5a7.5 7.5 0 0 1 2.6-3 6.7 6.7 0 0 1 3.7-1.2c2.2 0 4 .7 5.1 2.2a9.4 9.4 0 0 1 1.9 6.2v1.2H494c0 1.6.6 3 1.5 4 1 1 2.1 1.5 3.6 1.5a5 5 0 0 0 2.5-.6c.7-.4 1.4-1 1.9-1.6l1.8 1.3a7 7 0 0 1-6.4 3.3Zm-.4-15.1c-1.1 0-2.1.4-2.9 1.2-.8.9-1.3 2-1.5 3.6h8.5v-.2c-.1-1.5-.5-2.6-1.2-3.4a3.6 3.6 0 0 0-2.9-1.2ZM512.8 429v4.1h3.2v2.2h-3.2v10.5c0 .7.2 1.2.4 1.5.3.4.8.5 1.5.5.3 0 .8 0 1.4-.2v2.4c-.8.2-1.5.3-2.3.3-1.3 0-2.2-.4-2.9-1.2a5 5 0 0 1-1-3.3v-10.5h-3v-2.2h3v-4Zm0 0" fill="#0f0e0c"/><g clip-path="url(#d)"><path d="M134 119a3.1 3.1 0 0 1 .8 0 3.9 3.9 0 0 1 1.8 1 3.9 3.9 0 0 1 1.2 2.8 8294.2 8294.2 0 0 1 0 78.4 3.7 3.7 0 0 1-1.1 1.9 4 4 0 0 1-1.2.8 4 4 0 0 1-1.5.3 4224.8 4224.8 0 0 1-39.4-.1 3.7 3.7 0 0 1-1.3-.6 4 4 0 0 1-1-1 3.6 3.6 0 0 1-.5-1.3l-.1-.5v-.3c-.2-25.9-.2-51.8 0-77.6v-.3a4.1 4.1 0 0 1 .6-1.8 3.8 3.8 0 0 1 1.7-1.4 4 4 0 0 1 1.2-.3H134Zm-18 77.8h-2.5c-.9 0-1.7.8-1.7 1.7v2.4c0 1 .8 1.7 1.7 1.7h2.4c1 0 1.7-.8 1.7-1.7v-2.4c0-1-.7-1.7-1.7-1.7Zm-.5 1.1c.6 0 1 .5 1 1v1.6c0 .5-.4 1-1 1H114a1 1 0 0 1-1-1V199c0-.6.4-1.1 1-1.1Zm21-73H93v70.5h43.5v-70.5Zm-14.2-3.7h-15.2c-.1 0-.3.2-.3.4v.6c0 .2.2.3.3.3h15.2c.2 0 .4-.1.4-.3v-.6c0-.2-.2-.4-.4-.4Zm0 0" fill-rule="evenodd"/></g><g clip-path="url(#e)"><path fill="#1a1a1a" d="M69.1 290a3.3 3.3 0 0 0-3.3 3.3v60c0 1.8-.3 3.2 1.3 3.3h-11c-1.3 0-.6 1-.6 2.3v1.5c0 1.3 1 2.3 2.3 2.3h113.7c1.3 0 2.4-1 2.4-2.3v-1.5c0-1.3.6-2.3-.7-2.3h-11c1.6-.1 1.4-1.5 1.4-3.3v-60c0-1.8-1.5-3.2-3.4-3.2Zm28.9.8c.4 0 .8.4.8.9s-.4.8-.8.8a.9.9 0 0 1-.9-.8c0-.5.4-.9.9-.9Zm-29 2.5h91.3v60H69Zm30.8 63.3h29.7c0 .6-.5 1.1-1 1.1h-27.6c-.6 0-1-.5-1-1Zm60.3 1.8c.7 0 1.3.6 1.3 1.2 0 .7-.6 1.3-1.3 1.3-.7 0-1.3-.6-1.3-1.3 0-.6.6-1.2 1.3-1.2Zm4 0c.7 0 1.3.6 1.3 1.2 0 .7-.6 1.3-1.3 1.3-.7 0-1.3-.6-1.3-1.3 0-.6.6-1.2 1.3-1.2Zm4 0c.7 0 1.2.6 1.2 1.2 0 .7-.5 1.3-1.2 1.3s-1.3-.6-1.3-1.3c0-.6.6-1.2 1.3-1.2Zm-107.5.8h6.6c.3 0 .6.2.6.4 0 .3-.3.4-.6.4h-6.6c-.4 0-.6-.1-.6-.4 0-.2.2-.4.6-.4Zm0 0"/></g></svg>