<svg xmlns="http://www.w3.org/2000/svg" width="1280" viewBox="0 0 960 540" height="720" version="1.0"><defs><clipPath id="a"><path d="M.9 0H959v539H1Zm0 0"/></clipPath><clipPath id="b"><path d="M458 85.3h44V129h-44Zm0 0"/></clipPath><clipPath id="c"><path d="M458 410h44v43.6h-44Zm0 0"/></clipPath><clipPath id="d"><path d="M621 247h43.1v44H621Zm0 0"/></clipPath><clipPath id="e"><path d="M295.8 247H339v44h-43.2Zm0 0"/></clipPath></defs><g clip-path="url(#a)" fill="#FFF"><path d="M.9 0H959v539H1Zm0 0"/><path d="M.9 0H959v539H1Zm0 0"/><path d="M.9 0H959v539H1Zm0 0"/></g><path fill="none" stroke-linejoin="round" d="M480 124.6v291.6M334.2 270.4h291.6" stroke="#224C8D" stroke-width="7.278999999999999" stroke-miterlimit="10"/><path fill="#FFF" stroke-linejoin="round" d="M376.9 373.5 583 167.3M376.9 167.3 583 373.5" stroke="#224C8D" stroke-width="7.278999999999999" stroke-miterlimit="10"/><path fill="#FFF" d="M480 381a107.7 107.7 0 0 1 0-215.1 107.7 107.7 0 0 1 0 215"/><path fill="#545454" d="M480 162.2a111.3 111.3 0 0 0-111.3 111.2A111.3 111.3 0 1 0 480 162.2Zm0 7.3a104 104 0 1 1 0 207.8 104 104 0 0 1 0-207.8"/><path fill="#C1F9C1" d="M462.1 106.8a17.8 17.8 0 1 1 35.7 0 17.8 17.8 0 0 1-35.7 0"/><g clip-path="url(#b)"><path fill="none" stroke-linejoin="round" d="M462.1 106.7a17.8 17.8 0 1 1 35.7 0 17.8 17.8 0 0 1-35.7 0Zm0 0" stroke="#224C8D" stroke-width="7.278999999999999" stroke-miterlimit="10"/></g><path fill="#C1F9C1" d="M462.1 432.1a17.8 17.8 0 1 1 35.7 0 17.8 17.8 0 0 1-35.7 0"/><g clip-path="url(#c)"><path fill="none" stroke-linejoin="round" d="M462.1 432.1a17.8 17.8 0 1 1 35.7 0 17.8 17.8 0 0 1-35.7 0Zm0 0" stroke="#224C8D" stroke-width="7.278999999999999" stroke-miterlimit="10"/></g><path fill="#C1F9C1" d="M642.6 251.6a17.8 17.8 0 1 1 0 35.7 17.8 17.8 0 0 1 0-35.7"/><g clip-path="url(#d)"><path fill="none" stroke-linejoin="round" d="M642.6 251.6a17.8 17.8 0 1 1 0 35.7 17.8 17.8 0 0 1 0-35.7Zm0 0" stroke="#224C8D" stroke-width="7.278999999999999" stroke-miterlimit="10"/></g><path fill="#C1F9C1" d="M317.3 251.6a17.8 17.8 0 1 1 0 35.7 17.8 17.8 0 0 1 0-35.7"/><g clip-path="url(#e)"><path fill="none" stroke-linejoin="round" d="M317.3 251.6a17.8 17.8 0 1 1 0 35.7 17.8 17.8 0 0 1 0-35.7Zm0 0" stroke="#224C8D" stroke-width="7.278999999999999" stroke-miterlimit="10"/></g><path fill="#C1F9C1" d="M582.4 141.8a17.8 17.8 0 1 1 25.2 25.2 17.8 17.8 0 0 1-25.2-25.2"/><path fill="none" stroke-linejoin="round" d="M582.4 141.8a17.8 17.8 0 1 1 25.2 25.2 17.8 17.8 0 0 1-25.2-25.2Zm0 0" stroke="#224C8D" stroke-width="7.278999999999999" stroke-miterlimit="10"/><path fill="#C1F9C1" d="M352.3 371.9a17.8 17.8 0 1 1 25.2 25.2 17.8 17.8 0 0 1-25.2-25.2"/><path fill="none" stroke-linejoin="round" d="M352.3 371.9a17.8 17.8 0 1 1 25.2 25.2 17.8 17.8 0 0 1-25.2-25.2Zm0 0" stroke="#224C8D" stroke-width="7.278999999999999" stroke-miterlimit="10"/><path fill="#C1F9C1" d="M352.3 167a17.9 17.9 0 1 1 25.3-25.2 17.9 17.9 0 0 1-25.3 25.2"/><path fill="none" stroke-linejoin="round" d="M352.3 167a17.9 17.9 0 1 1 25.3-25.2 17.9 17.9 0 0 1-25.3 25.2Zm0 0" stroke="#224C8D" stroke-width="7.278999999999999" stroke-miterlimit="10"/><path fill="#C1F9C1" d="M582.4 397a17.8 17.8 0 1 1 25.2-25.1 17.8 17.8 0 0 1-25.2 25.2"/><path fill="none" stroke-linejoin="round" d="M582.4 397a17.8 17.8 0 1 1 25.2-25.1 17.8 17.8 0 0 1-25.2 25.2Zm0 0" stroke="#224C8D" stroke-width="7.278999999999999" stroke-miterlimit="10"/><path fill="#C1F9C1" d="M480 356a82.3 82.3 0 0 1 0-164.4 82.3 82.3 0 0 1 0 164.4"/><path fill="#545454" d="M480 188a86 86 0 0 0 0 171.7 86 86 0 0 0 0-171.7Zm0 7.3a78.5 78.5 0 1 1 0 157 78.5 78.5 0 0 1 0-157"/><path fill="none" stroke-linejoin="round" d="M519.8 273.8c0 43.4-17.8 78.6-39.8 78.6-22 0-40-35.2-40-78.6 0-43.4 18-78.5 40-78.5s39.8 35.1 39.8 78.5Zm0 0" stroke="#224C8D" stroke-width="7.278999999999999" stroke-miterlimit="10"/><path fill="none" stroke-linejoin="round" d="M480 313.7c-43.4 0-78.6-17.8-78.6-39.9 0-22 35.2-39.8 78.6-39.8 43.3 0 78.5 17.8 78.5 39.8 0 22-35.2 39.9-78.5 39.9ZM480 195.3v157M401.4 273.8h157.1" stroke="#224C8D" stroke-width="7.278999999999999" stroke-miterlimit="10"/></svg>