<svg xmlns="http://www.w3.org/2000/svg" width="1280" viewBox="0 0 960 540" height="720" version="1.0"><defs><clipPath id="a"><path d="M1 0h958v539H1Zm0 0"/></clipPath><clipPath id="b"><path d="M475 120h32v26h-32Zm0 0"/></clipPath><clipPath id="c"><path d="M460 131h38v36h-38Zm0 0"/></clipPath><clipPath id="d"><path d="M276 182h32v26h-32Zm0 0"/></clipPath><clipPath id="e"><path d="M260 193h38v36h-38Zm0 0"/></clipPath><clipPath id="f"><path d="M278 321h32v26h-32Zm0 0"/></clipPath><clipPath id="g"><path d="M263 332h38v36h-38Zm0 0"/></clipPath><clipPath id="h"><path d="M668 182h32v26h-32Zm0 0"/></clipPath><clipPath id="i"><path d="M653 193h38v36h-38Zm0 0"/></clipPath><clipPath id="j"><path d="M668 315h32v26h-32Zm0 0"/></clipPath><clipPath id="k"><path d="M653 326h38v36h-38Zm0 0"/></clipPath><clipPath id="l"><path d="M475 372h32v26h-32Zm0 0"/></clipPath><clipPath id="m"><path d="M460 383h38v36h-38Zm0 0"/></clipPath></defs><g clip-path="url(#a)" fill="#FFF"><path d="M1 0h958v539H1Zm0 0"/><path d="M1 0h958v539H1Zm0 0"/><path d="M1 0h958v539H1Zm0 0"/></g><path fill="#C1F9C1" d="M497 135a2 2 0 0 0-1-2h-34l-1 1v20h36Zm0 0"/><path fill="#FFF" d="M461 154v4a2 2 0 0 0 1 2 2 2 0 0 0 1 0h32a2 2 0 0 0 1 0 2 2 0 0 0 1-2v-4Zm0 0"/><path fill="#FFF" d="M473 160h12v6h-12ZM503 140a2 2 0 0 1-1 1 2 2 0 0 1-3-2 2 2 0 0 1 1-1 2 2 0 0 1 1 0 2 2 0 0 1 2 2ZM503 126a2 2 0 0 1-1 1l-1 1a2 2 0 0 1-1 0l-1-1a2 2 0 0 1 0-1 2 2 0 0 1 0-1l1-1a2 2 0 0 1 1 0l1 1 1 1ZM480 131h23v4h-23Zm0 0"/><path fill="#FFF" d="M501 142a2 2 0 0 0 1-1 2 2 0 0 0 1-1l-1-1a2 2 0 0 0-1-1 2 2 0 0 0-2 0 2 2 0 0 0 0 2 2 2 0 0 0 2 2Zm-24 1v-6a2 2 0 0 1 1-2 2 2 0 0 1 1 0h25a2 2 0 0 1 2 1v7a2 2 0 0 1 0 1 2 2 0 0 1-2 1h-26a2 2 0 0 1-1-2ZM501 128a2 2 0 0 0 1-1 2 2 0 0 0 0-2l-1-1a2 2 0 0 0-1 0l-1 1a2 2 0 0 0 0 1 2 2 0 0 0 0 1 2 2 0 0 0 2 1Zm2 3h-24a2 2 0 0 1-2-2v-6a2 2 0 0 1 2-2h25a2 2 0 0 1 2 1 2 2 0 0 1 0 1v7a2 2 0 0 1-2 1Zm0 0"/><g clip-path="url(#b)"><path fill="#545454" d="M507 129v-6a3 3 0 0 0-3-3h-26a3 3 0 0 0-2 2v7a3 3 0 0 0 1 2 3 3 0 0 0 2 1v2a3 3 0 0 0-3 3v7a3 3 0 0 0 2 1l1 1h25a3 3 0 0 0 3-2v-7a3 3 0 0 0-1-3h-2v-2h2l1-1a3 3 0 0 0 0-2Zm-29 0v-7h27v8h-27v-1Zm27 8v6l-1 1h-25l-1-1v-7h27v1Zm-2-3h-22v-2h22Zm0 0"/></g><path fill="#545454" d="M501 137a3 3 0 0 0-3 3 3 3 0 1 0 3-3Zm0 4-1-1v-1h1l1 1h-1v1ZM501 129a3 3 0 0 0 2-2 3 3 0 0 0 0-2 3 3 0 1 0-2 4Zm0-4 1 1-1 1h-1v-2h1ZM494 139h2v2h-2ZM494 125h2v2h-2ZM480 125h12v2h-12ZM480 139h12v2h-12Zm0 0"/><g clip-path="url(#c)"><path fill="#545454" d="m496 158-1 1h-32l-1-1v-3h32v-1h-32v-19l1-1h13v-2h-13a3 3 0 0 0-3 2v24a3 3 0 0 0 3 3h9v4h-2v2h18v-2h-2v-4h10a3 3 0 0 0 1-1l1-2v-10h-2Zm-12 7h-10v-4h10Zm0 0"/></g><path stroke-linecap="round" transform="matrix(.72176 .1934 -.19225 .7175 310 359)" fill="none" d="M1 0h184" stroke="#000"/><path stroke-linecap="round" transform="matrix(0 .74826 -.74281 0 283 235)" fill="none" d="M1 0h98" stroke="#000"/><path stroke-linecap="round" transform="matrix(-.70226 .26492 -.26219 -.695 445 153)" fill="none" d="M1 0h190" stroke="#000"/><path stroke-linecap="round" transform="matrix(-.69738 -.26772 .26622 -.69347 645 204)" fill="none" d="M1 0h187" stroke="#000"/><path stroke-linecap="round" transform="matrix(-.73554 .13311 -.13228 -.73094 670 372)" fill="none" d="M1 0h217" stroke="#000"/><path stroke-linecap="round" transform="matrix(-.58164 -.47111 .46753 -.57722 482 363)" fill="none" d="M0 0h304" stroke="#000"/><path stroke-linecap="round" transform="rotate(-45 561 -217) scale(.74823 .74281)" fill="none" d="M1 0h301" stroke="#000"/><path stroke-linecap="round" transform="rotate(45 28 663) scale(.74767 .74281)" fill="none" d="M0 0h323" stroke="#000"/><path stroke-linecap="round" transform="matrix(-.53969 .51963 -.5152 -.5351 647 205)" fill="none" d="M1 0h305" stroke="#000"/><path fill="#C1F9C1" d="M297 196a2 2 0 0 0-2-2h-32a2 2 0 0 0-1 1 2 2 0 0 0-1 1v20h36Zm0 0"/><path fill="#FFF" d="M261 216v4a2 2 0 0 0 1 1 2 2 0 0 0 1 1h32a2 2 0 0 0 2-2v-4ZM273 222h12v6h-12ZM303 201a2 2 0 1 1-4 0 2 2 0 0 1 0-1 2 2 0 0 1 2-1 2 2 0 0 1 2 2ZM303 188a2 2 0 0 1-1 1 2 2 0 0 1-1 1 2 2 0 0 1-2-1 2 2 0 0 1 2-3h1a2 2 0 0 1 1 2ZM280 193h24v3h-24Zm0 0"/><path fill="#FFF" d="M301 203a2 2 0 1 0 0-4 2 2 0 0 0-2 1 2 2 0 0 0 0 1v2h2Zm-24 1v-6a2 2 0 0 1 1-1l1-1h26v1h1v1h1v6a2 2 0 0 1-1 2 2 2 0 0 1-1 0h-27a2 2 0 0 1-1-2ZM301 190v-1a2 2 0 0 0 2-1 2 2 0 0 0 0-1 2 2 0 0 0-4-1 2 2 0 0 0 2 4Zm3 3h-25l-1-1-1-1v-7l1-1a2 2 0 0 1 1 0h26a2 2 0 0 1 2 2v6h-1v1h-1v1Zm0 0"/><g clip-path="url(#d)"><path fill="#545454" d="M308 191v-6l-1-1a3 3 0 0 0-1-2h-27a3 3 0 0 0-2 1 3 3 0 0 0-1 2v6a3 3 0 0 0 3 2v2a3 3 0 0 0-3 3v6a3 3 0 0 0 2 3h27a3 3 0 0 0 3-3v-6a3 3 0 0 0-1-2 3 3 0 0 0-2-1v-2a3 3 0 0 0 3-2Zm-30 0v-7h27l1 1v6h-1v1h-26l-1-1Zm28 7v6l-1 1h-27v-7l1-1h26v1h1Zm-3-3h-22v-2h22Zm0 0"/></g><path fill="#545454" d="M301 198a3 3 0 0 0-2 1 3 3 0 0 0-1 3 3 3 0 0 0 3 2 3 3 0 1 0 0-6Zm0 4h-1v-1l1-1v1h1l-1 1ZM301 191a3 3 0 1 0 0-6 3 3 0 0 0 0 6Zm0-4 1 1h-1v1l-1-1v-1h1ZM294 200h2v2h-2ZM294 187h2v2h-2ZM280 187h12v2h-12ZM280 200h12v2h-12Zm0 0"/><g clip-path="url(#e)"><path fill="#545454" d="M296 220v1h-33l-1-1v-3h32v-2h-32v-19h1v-1h13v-2h-13a3 3 0 0 0-3 3v24a3 3 0 0 0 1 2 3 3 0 0 0 2 1h9v4h-2v2h18v-2h-2v-4h9a3 3 0 0 0 3-3v-11h-2Zm-12 7h-10v-4h10Zm0 0"/></g><path fill="#C1F9C1" d="M299 335a2 2 0 0 0-2-2h-31a2 2 0 0 0-1 1 2 2 0 0 0-1 1v20h35Zm0 0"/><path fill="#FFF" d="M264 355v5a2 2 0 0 0 1 1h32a2 2 0 0 0 2-2v-4ZM276 361h12v6h-12ZM305 340a2 2 0 1 1-4 0 2 2 0 0 1 1-1 2 2 0 0 1 1-1 2 2 0 0 1 2 1 2 2 0 0 1 0 1ZM305 326a2 2 0 0 1 0 2 2 2 0 0 1-2 0 2 2 0 0 1 0-3 2 2 0 0 1 1 0h1a2 2 0 0 1 0 1ZM283 331h23v4h-23Zm0 0"/><path fill="#FFF" d="M303 342a2 2 0 0 0 2 0 2 2 0 0 0 0-2 2 2 0 0 0 0-1 2 2 0 0 0-2-1 2 2 0 0 0-1 1 2 2 0 0 0 0 2v1h1Zm-23 1v-6a2 2 0 0 1 2-2h26l1 1a2 2 0 0 1 0 1v6a2 2 0 0 1 0 2 2 2 0 0 1-2 0h-25a2 2 0 0 1-2 0 2 2 0 0 1 0-2ZM303 328a2 2 0 0 0 2 0 2 2 0 0 0 0-2 2 2 0 0 0-2-2v1h-1a2 2 0 0 0 1 3Zm3 3h-24a2 2 0 0 1-2 0 2 2 0 0 1 0-2v-5a2 2 0 0 1 0-2 2 2 0 0 1 2 0h25a2 2 0 0 1 2 2v5a2 2 0 0 1-2 2Zm0 0"/><g clip-path="url(#f)"><path fill="#545454" d="M310 329v-7a3 3 0 0 0-2-1h-28a3 3 0 0 0-1 3v5a3 3 0 0 0 3 3v2a3 3 0 0 0-3 2v7a3 3 0 0 0 3 3h25a3 3 0 0 0 3-3v-6a3 3 0 0 0-1-2 3 3 0 0 0-2-1v-2a3 3 0 0 0 3-3Zm-29 0v-6h27v7h-27v-1Zm27 8v7h-27v-7l1-1h25l1 1Zm-3-3h-21v-2h21Zm0 0"/></g><path fill="#545454" d="M303 337a3 3 0 0 0-2 1 3 3 0 0 0 0 3 3 3 0 0 0 2 2 3 3 0 1 0 0-6Zm0 4-1-1h1v-1l1 1v1h-1ZM303 329a3 3 0 0 0 2 0 3 3 0 0 0 1-4 3 3 0 0 0-2-1 3 3 0 1 0-1 5Zm0-4 1 1v1h-1l-1-1h1v-1ZM296 339h2v2h-2ZM296 325h2v2h-2ZM283 325h11v2h-11ZM283 339h11v2h-11Zm0 0"/><g clip-path="url(#g)"><path fill="#545454" d="M298 359v1h-33v-4h31v-2h-31v-19l1-1h13v-2h-13a3 3 0 0 0-3 3v24a3 3 0 0 0 1 2 3 3 0 0 0 2 1h9v4h-2v2h18v-2h-2v-4h8a3 3 0 0 0 3-3v-11h-2Zm-11 7h-10v-4h10Zm0 0"/></g><path fill="#C1F9C1" d="M689 196a2 2 0 0 0-2-2h-31a2 2 0 0 0-2 1 2 2 0 0 0 0 1v20h35Zm0 0"/><path fill="#FFF" d="M654 216v4a2 2 0 0 0 0 1 2 2 0 0 0 2 1h31a2 2 0 0 0 1-1 2 2 0 0 0 1-1v-4Zm0 0"/><path fill="#FFF" d="M665 222h12v6h-12ZM695 201a2 2 0 0 1-4 1v-1a2 2 0 0 1 1-1 2 2 0 0 1 1-1 2 2 0 0 1 2 2ZM695 188a2 2 0 0 1-1 1 2 2 0 0 1-1 1 2 2 0 0 1-1-1 2 2 0 0 1 2-3 2 2 0 0 1 1 2ZM672 193h24v3h-24Zm0 0"/><path fill="#FFF" d="M693 203a2 2 0 0 0 2-2 2 2 0 0 0-1-1 2 2 0 1 0-2 3h1Zm-24 1v-6a2 2 0 0 1 1-1h1v-1h26l1 1 1 1v6a2 2 0 0 1-1 2 2 2 0 0 1-1 0h-26a2 2 0 0 1-1 0 2 2 0 0 1-1-2ZM693 190a2 2 0 0 0 1-1 2 2 0 0 0 1-1 2 2 0 0 0-1-2 2 2 0 0 0-2 0 2 2 0 0 0 1 4Zm3 3h-25v-1h-1v-1h-1v-6l1-1v-1a2 2 0 0 1 1 0h26a2 2 0 0 1 2 2v6l-1 1-1 1Zm0 0"/><g clip-path="url(#h)"><path fill="#545454" d="M700 191v-6a3 3 0 0 0-3-3h-26a3 3 0 0 0-2 1 3 3 0 0 0-1 2v6a3 3 0 0 0 3 2v2a3 3 0 0 0-3 3v6a3 3 0 0 0 1 2 3 3 0 0 0 2 1h26a3 3 0 0 0 3-3v-6a3 3 0 0 0-3-3v-2a3 3 0 0 0 3-2Zm-30 0v-6l1-1h27v7l-1 1h-26v-1h-1Zm28 7v7h-27l-1-1v-6h1v-1h26l1 1Zm-3-3h-22v-2h22Zm0 0"/></g><path fill="#545454" d="m693 198-1 1a3 3 0 0 0-2 1 3 3 0 0 0 0 2l1 1a3 3 0 0 0 3 1l1-1a3 3 0 0 0 1-2 3 3 0 0 0-3-3Zm0 4h-1v-1l1-1 1 1v1h-1ZM693 191a3 3 0 1 0 0-6 3 3 0 0 0 0 6Zm0-4h1v1l-1 1-1-1v-1h1ZM686 200h2v2h-2ZM686 187h2v2h-2ZM672 187h12v2h-12ZM672 200h12v2h-12Zm0 0"/><g clip-path="url(#i)"><path fill="#545454" d="M688 220v1h-33v-4h31v-2h-31v-19l1-1h12v-2h-12a3 3 0 0 0-3 2v25a3 3 0 0 0 3 3h8v4h-1v2h17v-2h-2v-4h9a3 3 0 0 0 2-1 3 3 0 0 0 1-2v-11h-2Zm-12 7h-10v-4h10Zm0 0"/></g><path stroke-linecap="round" transform="matrix(0 .74826 -.74281 0 675 241)" fill="none" d="M0 0h99" stroke="#000"/><path fill="#C1F9C1" d="M689 330v-1a2 2 0 0 0-2-1h-31a2 2 0 0 0-2 0v22h35Zm0 0"/><path fill="#FFF" d="M654 350v3a2 2 0 0 0 0 2 2 2 0 0 0 2 0h31a2 2 0 0 0 1 0 2 2 0 0 0 1-2v-3Zm0 0"/><path fill="#FFF" d="M665 355h12v6h-12ZM695 335a2 2 0 0 1-4 1v-1a2 2 0 0 1 1-2 2 2 0 0 1 1 0 2 2 0 0 1 2 2ZM695 321a2 2 0 0 1-1 1 2 2 0 0 1-1 1 2 2 0 0 1-1-1 2 2 0 1 1 2-2 2 2 0 0 1 1 1ZM672 326h24v4h-24Zm0 0"/><path fill="#FFF" d="M693 337a2 2 0 0 0 2-2 2 2 0 0 0-1-2 2 2 0 1 0-2 4h1Zm-24 1v-6a2 2 0 0 1 1-2 2 2 0 0 1 1 0h27a2 2 0 0 1 1 2v6a2 2 0 0 1-1 1 2 2 0 0 1-1 1h-26a2 2 0 0 1-1-1 2 2 0 0 1-1-1ZM693 323a2 2 0 0 0 1-1 2 2 0 0 0 1-1 2 2 0 0 0-1-1v-1a2 2 0 0 0-2 0 2 2 0 0 0-1 1 2 2 0 0 0 0 2 2 2 0 0 0 1 1h1Zm3 3h-25l-1-1-1-1v-6l1-1a2 2 0 0 1 1-1h26a2 2 0 0 1 2 2v7h-1v1h-1Zm0 0"/><g clip-path="url(#j)"><path fill="#545454" d="M700 324v-6a3 3 0 0 0-3-3h-26a3 3 0 0 0-2 1 3 3 0 0 0-1 2v6a3 3 0 0 0 3 3v2a3 3 0 0 0-3 3v6a3 3 0 0 0 1 2 3 3 0 0 0 2 1h26a3 3 0 0 0 3-3v-6a3 3 0 0 0-2-3h-1v-2a3 3 0 0 0 3-3Zm-30 0v-6l1-1h27v8h-27l-1-1Zm28 8v6l-1 1h-26v-1h-1v-6l1-1h27v1Zm-3-3h-22v-2h22Zm0 0"/></g><path fill="#545454" d="M693 332h-1a3 3 0 0 0-2 2 3 3 0 0 0 0 2l1 1a3 3 0 0 0 3 0h1a3 3 0 0 0 1-2 3 3 0 0 0-3-3Zm0 4-1-1v-1h2v1l-1 1ZM693 324a3 3 0 1 0 0-6 3 3 0 0 0 0 6Zm0-4h1v2h-2v-2h1ZM686 334h2v2h-2ZM686 320h2v2h-2ZM672 320h12v2h-12ZM672 334h12v2h-12Zm0 0"/><g clip-path="url(#k)"><path fill="#545454" d="M688 353v1h-33v-4h31v-1h-31v-20h13v-2h-12a3 3 0 0 0-3 2v24a3 3 0 0 0 3 3h8v4h-1v2h17v-2h-2v-4h9a3 3 0 0 0 2 0 3 3 0 0 0 1-3v-10h-2Zm-12 7h-10v-4h10Zm0 0"/></g><path fill="#C1F9C1" d="m497 387-1-1a2 2 0 0 0-1-1h-32a2 2 0 0 0-2 2v19h36Zm0 0"/><path fill="#FFF" d="M461 406v5l1 1a2 2 0 0 0 1 0h32a2 2 0 0 0 1 0 2 2 0 0 0 1-2v-4Zm0 0"/><path fill="#FFF" d="M473 412h12v6h-12ZM503 392h-1a2 2 0 0 1-3 0 2 2 0 0 1 0-2 2 2 0 0 1 4 2ZM503 378a2 2 0 0 1-1 1 2 2 0 0 1-1 1 2 2 0 0 1-2-1 2 2 0 0 1 0-1 2 2 0 0 1 0-1l1-1a2 2 0 0 1 1 0l1 1 1 1ZM480 383h23v4h-23Zm0 0"/><path fill="#FFF" d="M501 394a2 2 0 0 0 1-1 2 2 0 0 0 0-2 2 2 0 0 0-1-1 2 2 0 0 0-1 0 2 2 0 0 0 0 3l1 1Zm-24 1v-6a2 2 0 0 1 2-2h25a2 2 0 0 1 2 0 2 2 0 0 1 0 2v6a2 2 0 0 1 0 1 2 2 0 0 1-2 1h-25a2 2 0 0 1-2-2ZM501 380a2 2 0 0 0 1-1 2 2 0 0 0 1-1l-1-1-1-1a2 2 0 0 0-1 0l-1 1a2 2 0 0 0 0 1 2 2 0 0 0 0 1 2 2 0 0 0 2 1Zm2 3h-25v-1a2 2 0 0 1-1-1v-6a2 2 0 0 1 1-1 2 2 0 0 1 1-1h25a2 2 0 0 1 2 1 2 2 0 0 1 0 1v7a2 2 0 0 1-2 1Zm0 0"/><g clip-path="url(#l)"><path fill="#545454" d="M507 381v-6a3 3 0 0 0-3-3h-26a3 3 0 0 0-2 3v6a3 3 0 0 0 1 2 3 3 0 0 0 2 1v2a3 3 0 0 0-3 3v7a3 3 0 0 0 2 1l1 1h25a3 3 0 0 0 3-2v-7a3 3 0 0 0-3-3v-2a3 3 0 0 0 3-1 3 3 0 0 0 0-2Zm-29 0v-7h27v8h-27v-1Zm27 8v6l-1 1h-25l-1-1v-7h27v1Zm-2-3h-22v-2h22Zm0 0"/></g><path fill="#545454" d="M501 389h-2a3 3 0 0 0-1 2 3 3 0 0 0 3 4 3 3 0 0 0 2-2 3 3 0 0 0-2-4Zm0 4-1-1v-1h1l1 1h-1v1ZM501 381h1a3 3 0 0 0 1-2 3 3 0 0 0-2-4 3 3 0 0 0-2 6h2Zm0-4 1 1-1 1h-1v-2h1ZM494 391h2v2h-2ZM494 377h2v2h-2ZM480 377h12v2h-12ZM480 391h12v2h-12Zm0 0"/><g clip-path="url(#m)"><path fill="#545454" d="m496 410-1 1h-32l-1-1v-3h32v-2h-32v-18l1-1h13v-2h-13a3 3 0 0 0-3 2v24a3 3 0 0 0 3 3h9v4h-2v2h18v-2h-2v-4h9a3 3 0 0 0 3-3v-10h-2Zm-12 7h-10v-4h10Zm0 0"/></g></svg>