<svg xmlns="http://www.w3.org/2000/svg" width="1280" viewBox="0 0 960 540" height="720" version="1.0"><defs><clipPath id="a"><path d="M1 0h958v539H1Zm0 0"/></clipPath><clipPath id="b"><path d="M122 110h181v181H122Zm0 0"/></clipPath><clipPath id="c"><path d="M650 110h188v185H650Zm0 0"/></clipPath></defs><g clip-path="url(#a)" fill="#FFF"><path d="M1 0h958v539H1Zm0 0"/><path d="M1 0h958v539H1Zm0 0"/><path d="M1 0h958v539H1Zm0 0"/></g><g clip-path="url(#b)"><path fill="#545454" d="M212 110a45 45 0 1 0 0 91 45 45 0 0 0 0-91Zm0 113c-30 0-90 15-90 46v22h181v-22c0-31-60-46-91-46Zm0 0"/></g><g clip-path="url(#c)"><path d="M818 110H671c-12 0-21 9-21 20v16c0 11 9 20 21 20h70v9h-70c-12 0-21 9-21 20v15c0 11 9 20 21 20h70v9h-70c-12 0-21 9-21 20v16c0 11 9 20 21 20h147c11 0 20-9 20-20v-16c0-11-9-20-20-20h-71v-9h71c11 0 20-9 20-20v-15c0-11-9-20-20-20h-71v-9h71c11 0 20-9 20-20v-16c0-11-9-20-20-20Zm14 149v16c0 8-6 14-14 14H671c-8 0-15-6-15-14v-16c0-8 7-14 15-14h147c8 0 14 6 14 14Zm0-64v15c0 8-6 14-14 14H671c-8 0-15-6-15-14v-15c0-8 7-15 15-15h147c8 0 14 7 14 15Zm0-49c0 7-6 14-14 14H671c-8 0-15-7-15-14v-16c0-8 7-14 15-14h147c8 0 14 6 14 14Zm0 0"/></g><path d="M727 128h-50c-5 0-9 3-9 8v3c0 5 4 9 9 9h50c4 0 8-4 8-9v-3c0-5-3-8-8-8Zm2 11c0 2-1 3-2 3h-50c-2 0-3-1-3-3v-3c0-1 1-3 3-3h50l2 3ZM808 128c-6 0-11 4-11 10 0 5 5 10 11 10 5 0 10-5 10-10 0-6-5-10-10-10Zm0 14c-3 0-5-2-5-4s2-5 5-5c2 0 4 3 4 5s-2 4-4 4ZM764 130c-5 0-8 3-8 8 0 4 3 8 8 8 4 0 7-4 7-8 0-5-3-8-7-8Zm0 9-2-1c0-1 0-2 2-2l1 2-1 1ZM784 130c-4 0-8 3-8 8 0 4 4 8 8 8s8-4 8-8c0-5-4-8-8-8Zm0 9-2-1c0-2 1-2 2-2s2 0 2 2l-2 1ZM727 192h-50c-5 0-9 4-9 9v3c0 5 4 9 9 9h50c4 0 8-4 8-9v-3c0-5-3-9-8-9Zm2 12-2 3h-50c-2 0-3-1-3-3v-3c0-1 1-3 3-3h50c1 0 2 1 2 3ZM808 212c5 0 10-4 10-10 0-5-5-10-10-10-6 0-11 5-11 10 0 6 5 10 11 10Zm0-14c2 0 4 2 4 4 0 3-2 5-4 5-3 0-5-2-5-5 0-2 2-4 5-4ZM764 210c4 0 7-3 7-8 0-4-3-7-7-7-5 0-8 3-8 7 0 5 3 8 8 8Zm0-9 1 1-1 2c-1 0-2 0-2-2l2-1ZM784 210c4 0 8-3 8-8 0-4-4-7-8-7s-8 3-8 7c1 5 4 8 8 8Zm0-9 2 1-2 2c-1 0-2 0-2-2l2-1ZM727 257h-50c-5 0-9 4-9 9v2c0 5 4 9 9 9h50c4 0 8-4 8-9v-2c0-5-3-9-8-9Zm2 11c0 2-1 3-2 3h-50c-2 0-3-1-3-3v-2c0-2 1-3 3-3h50c1 0 2 1 2 3ZM808 277c5 0 10-4 10-10s-5-10-10-10c-6 0-11 4-11 10s5 10 11 10Zm0-14c2 0 4 2 4 4s-2 4-4 4c-3 0-5-2-5-4s2-4 5-4ZM764 275c4 0 7-4 7-8s-3-7-7-7c-5 0-8 3-8 7 0 5 3 8 8 8Zm0-9 1 1-1 2-2-2 2-1ZM784 275c4 0 8-4 8-8s-4-7-8-7-8 3-8 7c0 5 4 8 8 8Zm0-9 2 1-2 2-2-2 2-1Zm0 0"/><path transform="matrix(3.74582 0 0 3.74307 351 110)" fill="none" d="M0 0h59" stroke="#000"/><path stroke-linecap="round" transform="matrix(3.74582 0 0 3.74307 575 110)" fill="none" stroke-linejoin="round" d="m-3-2 2 2-2 2" stroke="#000"/><path transform="matrix(-3.74582 0 0 -3.74307 574 160)" fill="none" d="M0 0h59" stroke="#000"/><path stroke-linecap="round" transform="matrix(-3.74582 0 0 -3.74307 351 160)" fill="none" stroke-linejoin="round" d="m-2-1 2 1-2 2" stroke="#000"/><path d="m191 350-2 6-6 1c-3 0-5 0-7-2s-2-5-2-8v-2l1-6a8 8 0 0 1 8-5l6 2 2 6h-3l-2-4-3-1c-2 0-4 0-5 2l-1 6v2l1 6 5 2 3-1 2-4ZM198 357h-3v-24h3ZM206 357h-3v-17h3Zm-3-21v-1l1-1 2 1v2h-3v-1ZM217 357c-2 0-4 0-5-2-2-1-2-3-2-6l1-5 2-3 4-1 5 2 2 6v2h-12l2 4 3 1h3l2-2 2 1c-2 2-4 3-7 3Zm0-15-3 2-1 3h8l-1-3-3-2ZM230 340v2l5-2c4 0 5 2 5 6v11h-2v-11l-1-3-3-1-2 1-2 2v12h-3v-17ZM249 336v4h3v3h-3v12h3v2h-2l-3-1-1-3v-10h-3v-3h3v-4ZM709 347l-6-3-2-4 2-4 6-2 4 1 3 3 1 3h-3l-1-3-4-1-4 1-1 2 1 3 4 1 5 2 2 2 1 3-2 5-6 1h-4l-3-3-2-3h3l2 3 4 1 4-1 1-3-1-2-4-2ZM727 357c-2 0-4 0-5-2-2-1-2-3-2-6l1-5 2-3 4-1 5 2 2 6v2h-12l2 4 4 1h2l2-2 2 1c-2 2-4 3-7 3Zm0-15-3 2-1 3h8l-1-3-3-2ZM745 343h-1l-4 2v12h-3v-17h3v2l4-2h1ZM754 353l4-13h3l-6 17h-2l-7-17h3ZM771 357c-3 0-5 0-6-2l-2-6 1-5 2-3 4-1 5 2c2 2 2 4 2 6v2h-11l1 4 4 1h2l2-2 2 1-6 3Zm-1-15-3 2-1 3h8l-1-3-3-2ZM789 343h-2l-4 2v12h-3v-17h3v2l4-2h2ZM270 414h-5v9h-3v-23h7l6 2 2 5-1 4-3 2 5 10h-3Zm-5-3h4l4-1 1-3-1-3-4-1h-4ZM288 423l-6-2-2-6v-1l1-4 3-3 4-1c2 0 3 0 5 2l1 6v1h-11l1 4 4 2 3-1 1-1 2 1c-1 2-3 3-6 3Zm0-15-3 1-2 4h9l-2-4-2-1ZM297 414l2-6c1-2 3-2 5-2s3 0 5 2v-2h2v23h-3v-8c-1 2-2 2-4 2l-5-2-2-7Zm3 1 1 4 3 2 4-2v-9l-3-2-4 2-1 5ZM326 421c-1 1-2 2-5 2l-4-1-1-5v-11h3v11c0 2 1 4 3 4s4-1 4-3v-12h3v17h-3ZM341 423l-6-2-2-6v-1l1-4 2-3 4-1c2 0 4 0 5 2 2 1 2 3 2 6v1h-11l1 4 4 2 2-1 2-1 2 1-6 3Zm-1-15-3 1-1 4h8l-1-4-3-1ZM360 418l-1-1-3-2-3-1-2-1-1-2 2-4 5-1 4 1 2 4h-3l-1-2-2-1-3 1-1 2 1 1 3 1 4 1 2 2v2c0 2 0 3-2 4l-4 1-4-1-2-2-1-2h3l1 2 3 1 2-1 1-2ZM371 402v4h3v2h-3v12l2 1 1-1v3h-2l-3-1-1-3v-11h-3v-2h3v-4ZM666 414h-6v9h-3v-23h8l6 2 2 5-1 4-4 2 6 10h-3Zm-6-3h5l3-1 2-3-2-3-3-1h-5ZM683 423l-5-2c-2-2-2-4-2-6v-1l1-4 2-3 4-1c2 0 4 0 5 2l2 6v1h-11l1 4 4 2 2-1 2-1 2 1c-2 2-4 3-7 3Zm0-15-3 1-1 4h8l-1-4-3-1ZM703 418l-1-1-3-2-3-1-2-1-1-2 2-4 5-1 4 1 2 4h-3l-1-2-2-1-3 1-1 2 1 1 3 1 3 1 2 2 1 2-2 4-4 1-4-1-2-2-1-2h3l1 2 3 1 2-1 1-2ZM724 415c0 2 0 4-2 6l-4 2c-2 0-4 0-5-2v8h-3v-23h2l1 2c1-2 2-2 5-2 2 0 3 0 4 2 2 1 2 4 2 6Zm-3-1-1-4-3-2-4 2v8c1 2 2 3 4 3l3-2 1-5ZM727 414l1-4 3-3 4-1c2 0 4 0 5 2 2 2 2 4 2 6v1l-1 4a7 7 0 0 1-6 4l-6-2-2-7Zm3 1 1 4 4 2 3-2 1-5-1-4-3-2-4 2-1 5ZM749 406v2c1-2 3-2 5-2 3 0 5 2 5 6v11h-3v-14l-3-1-2 1-2 2v12h-3v-17ZM773 418v-1l-4-2-3-1-2-1-1-2 2-4 5-1 4 1c2 1 2 2 2 4h-3l-1-2-2-1-3 1-1 2 1 1 3 1 4 1 2 2v2l-1 4-5 1-4-1-2-2-1-2h3l1 2 3 1 2-1 1-2ZM787 423l-6-2-2-6v-1l1-4 3-3 4-1c2 0 4 0 5 2l2 6v1h-12l2 4 3 2 3-1 2-1 1 1c-1 2-3 3-6 3Zm0-15-3 1-2 4h9l-1-4-3-1Zm0 0" fill="#0F0E0C"/><path transform="matrix(3.74582 0 0 3.74307 351 243)" fill="none" d="M0 0h59" stroke="#000"/><path stroke-linecap="round" transform="matrix(3.74582 0 0 3.74307 575 243)" fill="none" stroke-linejoin="round" d="m-3-1 2 1-2 1" stroke="#000"/><path transform="matrix(-3.74582 0 0 -3.74307 574 293)" fill="none" d="M0 0h59" stroke="#000"/><path stroke-linecap="round" transform="matrix(-3.74582 0 0 -3.74307 351 293)" fill="none" stroke-linejoin="round" d="m-2-2 2 2-2 2" stroke="#000"/><path transform="matrix(3.74553 0 0 3.74307 393 414)" fill="none" d="M0 0h18" stroke="#000"/><path stroke-linecap="round" transform="matrix(3.74553 0 0 3.74307 464 414)" fill="none" stroke-linejoin="round" d="m-2-1 1 1-1 1" stroke="#000"/><path transform="matrix(-3.7376 0 0 -3.74307 630 416)" fill="none" d="M0 0h19" stroke="#000"/><path stroke-linecap="round" transform="matrix(-3.7376 0 0 -3.74307 559 416)" fill="none" stroke-linejoin="round" d="m-2-2 1 2-1 1" stroke="#000"/></svg>