<svg viewBox="0 0 1280 720" fill="none" stroke-linecap="square" stroke-miterlimit="10" xmlns="http://www.w3.org/2000/svg"><clipPath id="a"><path d="M0 0h1280v720H0V0z"/></clipPath><g clip-path="url(#a)"><path fill="#fff" d="M0 0h1280v720H0z" fill-rule="evenodd"/><path fill="#f3f3f3" d="M133 158c0-28 41-52 90-52 50 0 91 24 91 52 0 29-41 53-91 53-49 0-90-24-90-53z" fill-rule="evenodd"/><path stroke="#000" stroke-linejoin="round" stroke-linecap="butt" d="M133 158c0-28 41-52 90-52 50 0 91 24 91 52 0 29-41 53-91 53-49 0-90-24-90-53z"/><path fill="#000" d="M198 160q-4-1-5-3-2-1-2-4l2-4q2-2 6-2l4 1 3 2 1 4h-3q0-2-2-3l-3-1-4 1-1 2 1 3 4 1 5 2 2 2 1 3q0 3-2 5l-6 1h-5l-3-3-1-3h3q0 2 2 3l4 1 3-1q2-1 2-3l-1-2-5-2zm16-11v4h3v2h-3v12l2 1h1v2h-2l-3-1-1-3v-11h-3v-2h3v-4h3zm17 21v-2q-2 2-5 2l-4-1q-2-1-2-4l2-4 6-1h3v-1l-1-3-3-1-3 1-1 2h-3l1-3 3-1 3-1 5 1 1 4v8l1 4h-3zm-5-2 3-1 2-2v-3h-3q-5 0-5 3l1 2 2 1zm20-12h-1q-3 0-4 2v12h-3v-17h3v2q1-2 4-2h1v3zm8-7v4h3v2h-3v12l1 1h2v2h-2l-3-1-1-3v-11h-3v-2h3v-4h3z"/><path fill="#bfffbf" d="M707 329c0-29 51-52 114-52s115 23 115 52-52 52-115 52-114-23-114-52z" fill-rule="evenodd"/><path stroke="#bfffbf" stroke-linejoin="round" stroke-linecap="butt" d="M707 329c0-29 51-52 114-52s115 23 115 52-52 52-115 52-114-23-114-52z"/><path fill="#000" d="M774 331h-5v9h-3v-22h7l6 1q2 2 2 6l-1 3-3 3 5 9h-3l-5-9zm-5-2h4l4-1 1-3-1-4-4-1h-4v9zm26 10q-1 2-5 2l-4-2-1-4v-11h3v10q0 4 3 4t4-2v-12h3v16h-2l-1-1zm10-15v2q2-3 6-3 5 0 5 6v11h-3v-11l-1-2-2-1h-3l-1 2v12h-3v-16h2zm18 0v2q2-3 5-3 6 0 6 6v11h-3v-11l-1-2-3-1h-2l-2 2v12h-3v-16h3zm18 16h-3v-16h3v16zm-3-21v-1l2-1 1 1v2l-1 1-2-1v-1zm10 5 1 2q1-3 5-3 5 0 5 6v11h-3v-11l-1-2-2-1h-3l-1 2v12h-3v-16h2zm15 8q0-4 2-6 1-3 4-3t5 2v-1h3v16q0 3-2 5t-5 2l-4-1q-2 0-2-2l1-2q2 3 5 3l3-1 1-4v-1q-2 2-5 2t-4-3q-2-2-2-6zm3 0 1 5 3 1q3 0 4-2v-8q-1-2-4-2l-3 1-1 5z"/><path fill="#fff2cc" d="M352 329c0-29 40-52 90-52s90 23 90 52-40 52-90 52-90-23-90-52z" fill-rule="evenodd"/><path stroke="#fff2cc" stroke-linejoin="round" stroke-linecap="butt" d="M352 329c0-29 40-52 90-52s90 23 90 52-40 52-90 52-90-23-90-52z"/><path fill="#000" d="M409 331h-5v9h-3v-22h8l6 1q2 2 2 6 0 2-2 3l-3 3 6 9h-4l-5-9zm-5-2h5l3-1 2-3q0-3-2-4l-3-1h-5v9zm23 12q-3 0-5-3-2-2-2-6l1-5 2-3 4-1q3 0 5 2 2 3 2 7v1h-11l1 4 4 1h2l2-2 2 1q-2 4-7 4zm0-15-3 1-1 3h8l-1-3-3-1zm21 14-1-1-4 2q-3 0-5-2l-1-3q0-3 2-4 2-2 6-2h2v-1l-1-3h-5l-1 2h-3l1-2 3-2 3-1q3 0 4 2 2 1 2 4v7l1 4h-3zm-5-2h3l1-2v-4h-2q-5 0-5 3l1 2 2 1zm11-6q0-4 2-6 2-3 5-3t4 2v-9h3v24h-2v-1q-2 2-5 2t-5-3q-2-2-2-6zm3 0 1 5 3 1q3 0 4-2v-8q-1-2-4-2l-3 1-1 5zm21 4 4-12h3l-6 19q-2 4-5 4h-2v-2h1l2-1 1-2 1-2-6-16h3l4 12z"/><path fill="#cfe2f3" d="M480 567c0-29 55-52 124-52 68 0 124 23 124 52s-56 52-124 52c-69 0-124-23-124-52z" fill-rule="evenodd"/><path stroke="#000" stroke-linejoin="round" stroke-linecap="butt" d="M480 567c0-29 55-52 124-52 68 0 124 23 124 52s-56 52-124 52c-69 0-124-23-124-52z"/><path fill="#000" d="M580 572v3l1-3 4-16h3l4 16 1 3v-3l4-16h3l-6 23h-2l-5-17-1-1v1l-5 17h-2l-6-23h3l4 16zm33 7-1-2q-2 2-5 2l-4-1-1-4 2-4 5-1h3v-2l-1-2-2-1-3 1-1 2h-3l1-3 2-2h4l4 1 2 4v8l1 4h-3zm-5-2 2-1 2-2v-3h-2q-5 0-5 3v2l3 1zm15 2h-3v-17h3v17zm-3-22v-1h3v3h-3v-2zm11 1v4h3v2h-3v11l1 1 1 1h1v2h-2l-3-1-1-3v-11h-3v-2h3v-4h3z"/><path fill="#f6dfdf" d="M846 158c0-31 68-57 151-57s150 26 150 57c0 32-67 58-150 58s-151-26-151-58z" fill-rule="evenodd"/><path stroke="#f6dfdf" stroke-linejoin="round" stroke-linecap="butt" d="M846 158c0-31 68-57 151-57s150 26 150 57c0 32-67 58-150 58s-151-26-151-58z"/><path fill="#000" d="M934 150h-7v20h-3v-20h-7v-3h17v3zm9 20q-4 0-6-2t-2-6l1-5 2-3 4-1q3 0 5 2t2 6v1h-11l1 5 4 1 2-1 2-1 2 1q-2 3-6 3zm-1-15q-2 0-3 2l-1 3h8l-1-4-3-1zm19 1h-2q-3 0-4 2v12h-3v-17h3v2l4-2h2v3zm5-3v2q2-2 5-2 4 0 5 3l2-2 3-1q6 0 6 6v11h-3v-11l-1-3-3-1-2 1-1 3v11h-3v-11q0-4-4-4-3 0-4 3v12h-3v-17h3zm28 17h-2v-17h2v17zm-3-21 1-1 1-1 1 1 1 1-1 1h-2l-1-1zm11 4v2q2-2 5-2 5 0 5 6v11h-3v-14l-3-1-2 1-2 2v12h-3v-17h3zm25 17v-2q-2 2-5 2l-4-1q-2-1-2-4l2-4 6-1h3v-1l-1-3-3-1-2 1-1 2h-3v-3l3-1 3-1 5 1 2 4v12h-3zm-5-2 3-1 2-2v-3h-3q-5 0-5 3l1 2 2 1zm16-19v4h3v2h-3v12l2 1h1v2h-2l-3-1-1-3v-11h-3v-2h3v-4h3zm14 21q-4 0-6-2t-2-6l1-5 3-3 3-1q4 0 5 2 2 2 2 6v1h-11l1 5 4 1 2-1 2-1 2 1q-2 3-6 3zm-1-15-3 2-1 3h8l-1-4-3-1zm10 7q0-4 2-7 2-2 5-2l4 2v-9h3v24h-3v-2q-1 2-5 2l-4-2q-2-2-2-6zm3 0 1 4q1 2 3 2 3 0 4-2v-8q-1-3-4-3-2 0-3 2l-1 5z"/><path fill="none" d="M314 158c64 0 128 59 128 119"/><path stroke="#000" stroke-width="2" stroke-linejoin="round" stroke-linecap="butt" d="M314 158c32 0 64 15 88 37a135 135 0 0 1 37 60 94 94 0 0 1 2 9v1"/><path fill="#000" stroke="#000" stroke-width="2" stroke-linecap="butt" d="m438 265 4 9 3-10z" fill-rule="evenodd"/><path fill="none" d="M506 366c0 19 58 38 117 38s117-19 117-38"/><path stroke="#000" stroke-width="2" stroke-linejoin="round" stroke-linecap="butt" d="M506 366c0 19 58 38 117 38 29 0 59-5 81-12a103 103 0 0 0 30-16h1"/><path fill="#000" stroke="#000" stroke-width="2" stroke-linecap="butt" d="m737 378 2-10-7 7z" fill-rule="evenodd"/><path fill="none" d="M740 292c0-19-58-39-117-39s-117 20-117 39"/><path stroke="#000" stroke-width="2" stroke-linejoin="round" stroke-linecap="butt" d="M740 292c0-19-58-39-117-39-29 0-59 5-81 12a103 103 0 0 0-30 16h-1"/><path fill="#000" stroke="#000" stroke-width="2" stroke-linecap="butt" d="m509 280-2 9 7-6z" fill-rule="evenodd"/><path fill="none" d="M821 381c0 33-32 48-65 67-32 19-65 41-65 82"/><path stroke="#000" stroke-width="2" stroke-linejoin="round" stroke-linecap="butt" d="M821 381c0 33-32 48-65 67-16 9-32 20-44 33a78 78 0 0 0-19 35 68 68 0 0 0-1 2"/><path fill="#000" stroke="#000" stroke-width="2" stroke-linecap="butt" d="m689 518 3 9 4-8z" fill-rule="evenodd"/><path fill="none" d="M516 530c0-41-18-63-37-82-18-19-37-34-37-67"/><path stroke="#000" stroke-width="2" stroke-linejoin="round" stroke-linecap="butt" d="M516 530c0-41-18-63-37-82-9-9-18-18-25-28a65 65 0 0 1-11-27"/><path fill="#000" stroke="#000" stroke-width="2" stroke-linecap="butt" d="m446 393-4-9-2 9z" fill-rule="evenodd"/><path fill="none" d="M821 277c0-16 44-23 88-31 44-7 88-15 88-30"/><path stroke="#000" stroke-width="2" stroke-linejoin="round" stroke-linecap="butt" d="M821 277c0-16 44-23 88-31 22-3 44-7 60-12a83 83 0 0 0 20-8h1"/><path fill="#000" stroke="#000" stroke-width="2" stroke-linecap="butt" d="m992 228 3-10-8 6z" fill-rule="evenodd"/></g></svg>