<svg xmlns="http://www.w3.org/2000/svg" width="1280" viewBox="0 0 960 540" height="720" version="1.0"><defs><clipPath id="a"><path d="M1 0h958v539H1Zm0 0"/></clipPath><clipPath id="b"><path d="M585 374h49v48h-49Zm0 0"/></clipPath><clipPath id="c"><path d="M499 374h49v48h-49Zm0 0"/></clipPath><clipPath id="d"><path d="M412 374h49v48h-49Zm0 0"/></clipPath><clipPath id="e"><path d="M326 374h49v48h-49Zm0 0"/></clipPath><clipPath id="f"><path d="M327 116h306v68H327Zm0 0"/></clipPath></defs><g clip-path="url(#a)" fill="#FFF"><path d="M1 0h958v539H1Zm0 0"/><path d="M1 0h958v539H1Zm0 0"/><path d="M1 0h958v539H1Zm0 0"/></g><g clip-path="url(#b)"><path fill="#545454" d="M609 374h-24v48h49v-48h-25Zm13 36h-25a3 3 0 0 1 0-7h25a3 3 0 1 1 0 7Zm3-20c0 2-1 3-3 3h-25a3 3 0 0 1 0-6h25c2 0 3 1 3 3" fill-rule="evenodd"/></g><g clip-path="url(#c)"><path fill="#545454" d="M523 374h-24v48h48v-48h-24Zm12 36h-24a3 3 0 0 1 0-7h24a3 3 0 1 1 0 7Zm4-20c0 2-2 3-4 3h-24a3 3 0 0 1 0-6h24c2 0 4 1 4 3" fill-rule="evenodd"/></g><g clip-path="url(#d)"><path fill="#545454" d="M437 374h-24v48h48v-48h-24Zm12 36h-25a3 3 0 1 1 0-7h25a3 3 0 1 1 0 7Zm3-20c0 2-1 3-3 3h-25a3 3 0 0 1 0-6h25c2 0 3 1 3 3" fill-rule="evenodd"/></g><g clip-path="url(#e)"><path fill="#545454" d="M351 374h-25v48h48v-48h-23Zm12 36h-25a3 3 0 0 1 0-7h25a3 3 0 1 1 0 7Zm3-20c0 2-2 3-3 3h-25a3 3 0 0 1 0-6h25c1 0 3 1 3 3" fill-rule="evenodd"/></g><path fill="#545454" d="M496 280a16 16 0 0 0-32 0 16 16 0 0 0 32 0M389 150a14 14 0 0 0-27 0 14 14 0 0 0 27 0" fill-rule="evenodd"/><g clip-path="url(#f)"><path fill="#545454" d="M633 172v-44c0-7-5-12-12-12H338c-6 0-11 5-11 12v44c0 6 5 11 11 11h283c7 0 12-5 12-11Zm-258-2a20 20 0 1 1 0-41 20 20 0 0 1 0 41Zm159-17H434a3 3 0 0 1 0-7h100a3 3 0 1 1 0 7Zm54 9a3 3 0 1 1-7 0v-25a3 3 0 1 1 7 0Zm17 0a3 3 0 0 1-7 0v-25a3 3 0 1 1 7 0v25" fill-rule="evenodd"/></g><path fill="#545454" d="M483 258v-68h-6v68a22 22 0 0 1 6 0M458 280v-4H351c-2 0-3 2-3 4v88h6v-85h80v85h7v-85h17v-3M609 276H502a22 22 0 0 1 0 7h18v85h7v-85h79v85h7v-88c0-2-2-4-4-4" fill-rule="evenodd"/></svg>