<svg xmlns="http://www.w3.org/2000/svg" width="1280" viewBox="0 0 960 540" height="720" version="1.0"><defs><clipPath id="a"><path d="M1 0h958v539H1Zm0 0"/></clipPath><clipPath id="b"><path d="M153 174h76v54h-76Zm0 0"/></clipPath><clipPath id="c"><path d="M593 190h30v51h-30Zm0 0"/></clipPath><clipPath id="d"><path d="M594 256h30v52h-30Zm0 0"/></clipPath><clipPath id="e"><path d="M593 332h32v54h-32Zm0 0"/></clipPath><clipPath id="f"><path d="M469 320h4v3h-4Zm0 0"/></clipPath><clipPath id="g"><path d="M473 320h4v3h-4Zm0 0"/></clipPath><clipPath id="h"><path d="M437 284h71v28h-71Zm0 0"/></clipPath><clipPath id="i"><path d="M437 262h19v20h-19Zm0 0"/></clipPath><clipPath id="j"><path d="M469 251h4v3h-4Zm0 0"/></clipPath><clipPath id="k"><path d="M473 251h4v3h-4Zm0 0"/></clipPath><clipPath id="l"><path d="M465 251h3v4h-3Zm0 0"/></clipPath><clipPath id="m"><path d="M489 262h19v20h-19Zm0 0"/></clipPath><clipPath id="n"><path d="M773 216h34v14h-34Zm0 0"/></clipPath><clipPath id="o"><path d="M773 211h34v19h-34Zm0 0"/></clipPath><clipPath id="p"><path d="M773 205h34v14h-34Zm0 0"/></clipPath><clipPath id="q"><path d="M773 204h34v15h-34Zm0 0"/></clipPath><clipPath id="r"><path d="M773 200h34v18h-34Zm0 0"/></clipPath><clipPath id="s"><path d="M773 194h34v14h-34Zm0 0"/></clipPath><clipPath id="t"><path d="M773 193h34v15h-34Zm0 0"/></clipPath><clipPath id="u"><path d="M773 189h34v18h-34Zm0 0"/></clipPath><clipPath id="v"><path d="M773 182h34v15h-34Zm0 0"/></clipPath><clipPath id="w"><path d="M773 182h34v14h-34Zm0 0"/></clipPath><clipPath id="x"><path d="M153 257h76v54h-76Zm0 0"/></clipPath><clipPath id="y"><path d="M153 343h76v54h-76Zm0 0"/></clipPath><clipPath id="z"><path d="M773 292h34v14h-34Zm0 0"/></clipPath><clipPath id="A"><path d="M773 287h34v19h-34Zm0 0"/></clipPath><clipPath id="B"><path d="M773 281h34v14h-34Zm0 0"/></clipPath><clipPath id="C"><path d="M773 280h34v15h-34Zm0 0"/></clipPath><clipPath id="D"><path d="M773 276h34v18h-34Zm0 0"/></clipPath><clipPath id="E"><path d="M773 270h34v14h-34Zm0 0"/></clipPath><clipPath id="F"><path d="M773 269h34v15h-34Zm0 0"/></clipPath><clipPath id="G"><path d="M773 265h34v18h-34Zm0 0"/></clipPath><clipPath id="H"><path d="M773 258h34v15h-34Zm0 0"/></clipPath><clipPath id="I"><path d="M773 258h34v14h-34Zm0 0"/></clipPath><clipPath id="J"><path d="M773 366h34v14h-34Zm0 0"/></clipPath><clipPath id="K"><path d="M773 362h34v18h-34Zm0 0"/></clipPath><clipPath id="L"><path d="M773 355h34v15h-34Zm0 0"/></clipPath><clipPath id="M"><path d="M773 355h34v14h-34Zm0 0"/></clipPath><clipPath id="N"><path d="M773 350h34v19h-34Zm0 0"/></clipPath><clipPath id="O"><path d="M773 344h34v14h-34Zm0 0"/></clipPath><clipPath id="P"><path d="M773 344h34v14h-34Zm0 0"/></clipPath><clipPath id="Q"><path d="M773 339h34v18h-34Zm0 0"/></clipPath><clipPath id="R"><path d="M773 333h34v14h-34Zm0 0"/></clipPath><clipPath id="S"><path d="M773 333h34v14h-34Zm0 0"/></clipPath></defs><g clip-path="url(#a)" fill="#FFF"><path d="M1 0h958v539H1Zm0 0"/><path d="M1 0h958v539H1Zm0 0"/><path d="M1 0h958v539H1Zm0 0"/></g><g clip-path="url(#b)"><path fill="#333" d="M217 222c3 0 6-3 6-7v-35c0-3-3-6-6-6h-51c-4 0-7 3-7 6v35c0 4 3 7 7 7h-13c0 3 3 6 6 6h64c4 0 6-3 6-6Zm-51-42h51v35h-51Zm25 45c-2 0-3-2-3-3a3 3 0 0 1 6 0c0 1-1 3-3 3Zm0 0"/></g><path stroke-linecap="round" transform="matrix(1.13722 .97574 -.88506 1.03153 229 207)" fill="none" d="M0 0h74" stroke="#333"/><path stroke-linecap="round" transform="matrix(1.13722 .97574 -.88506 1.03153 317 282)" fill="#333" stroke-linejoin="round" d="m-3-2 3 2-3 2Zm0 0" stroke="#333"/><path stroke-linecap="round" transform="matrix(1.492 .03733 -.03745 1.49676 392 284)" fill="none" d="M1 0h21" stroke="#333"/><path stroke-linecap="round" transform="matrix(1.492 .03733 -.03745 1.49676 429 285)" fill="#333" stroke-linejoin="round" d="m-2-1 1 1-1 1Zm0 0" stroke="#333"/><path stroke-linecap="round" transform="matrix(1.15182 -.95781 .86904 1.04506 508 283)" fill="none" d="M0 0h72" stroke="#333"/><path stroke-linecap="round" transform="matrix(1.15182 -.95781 .86904 1.04506 592 213)" fill="none" stroke-linejoin="round" d="m-2-2 2 2-3 1" stroke="#333"/><path stroke-linecap="round" transform="matrix(1.49887 0 0 1.35919 508 282)" fill="none" d="M1 0h55" stroke="#333"/><path stroke-linecap="round" transform="matrix(1.49887 0 0 1.35919 593 282)" fill="none" stroke-linejoin="round" d="m-2-2 2 2-2 2" stroke="#333"/><path stroke-linecap="round" transform="matrix(1.11998 1.00015 -.90532 1.0138 509 283)" fill="none" d="M0 0h75" stroke="#333"/><path stroke-linecap="round" transform="matrix(1.11998 1.00015 -.90532 1.0138 594 358)" fill="none" stroke-linejoin="round" d="m-2-2 2 2-2 2" stroke="#333"/><path stroke-linecap="round" transform="matrix(0 1.49592 -1.35919 0 678 214)" fill="none" d="M1 0h97" stroke="#333"/><path stroke-linecap="round" transform="matrix(1.49808 0 0 1.35919 625 283)" fill="none" d="M1 0h81" stroke="#333"/><path stroke-linecap="round" transform="matrix(1.49808 0 0 1.35919 748 283)" fill="none" stroke-linejoin="round" d="m-2-2 2 2-2 2" stroke="#333"/><path stroke-linecap="round" transform="matrix(1.5027 0 0 1.35919 623 214)" fill="none" d="M0 0h36" stroke="#333"/><g clip-path="url(#c)"><path fill="#333" d="M593 190h30v51h-30Zm0 0"/></g><path fill="#FFF" d="M595 192h25v5h-25ZM595 200h25v5h-25ZM595 208h25v5h-25ZM595 215h25v6h-25ZM611 233a3 3 0 0 1-1 2 3 3 0 0 1-3 1 3 3 0 0 1 1-5 3 3 0 0 1 2 1 3 3 0 0 1 1 1Zm0 0"/><path fill="#FFF" d="M617 195a1 1 0 0 1 0 1h-1a1 1 0 0 1-1 0 1 1 0 0 1 0-1v-1a1 1 0 0 1 1 0 1 1 0 0 1 1 0v1ZM617 202a1 1 0 0 1 0 1v1h-1a1 1 0 0 1-1-1 1 1 0 0 1 1-2 1 1 0 0 1 1 0 1 1 0 0 1 0 1ZM617 210a1 1 0 0 1 0 1h-1a1 1 0 0 1-1 0 1 1 0 0 1 0-1 1 1 0 0 1 0-1 1 1 0 0 1 2 0 1 1 0 0 1 0 1ZM617 218a1 1 0 0 1 0 1 1 1 0 0 1-2 0 1 1 0 0 1 1-2 1 1 0 0 1 1 0 1 1 0 0 1 0 1Zm0 0"/><g clip-path="url(#d)"><path fill="#333" d="M594 256h30v52h-30Zm0 0"/></g><path fill="#FFF" d="M597 259h25v5h-25ZM597 266h25v6h-25ZM597 274h25v5h-25ZM597 282h25v5h-25ZM613 300a3 3 0 0 1-1 2h-1a3 3 0 0 1-2 0 3 3 0 0 1-1-4h1a3 3 0 0 1 2 0 3 3 0 0 1 1 1l1 1Zm0 0"/><path fill="#FFF" d="M619 261v1a1 1 0 0 1-2 0 1 1 0 0 1 0-1 1 1 0 0 1 0-1 1 1 0 0 1 2 0 1 1 0 0 1 0 1ZM619 269a1 1 0 0 1 0 1 1 1 0 0 1-2 0 1 1 0 0 1 1-2 1 1 0 0 1 1 0 1 1 0 0 1 0 1ZM619 277a1 1 0 0 1-1 1 1 1 0 0 1-1 0v-1a1 1 0 0 1 0-2 1 1 0 0 1 2 1 1 1 0 0 1 0 1ZM619 284a1 1 0 0 1 0 1 1 1 0 0 1-2 1 1 1 0 0 1 1-3 1 1 0 0 1 1 1Zm0 0"/><g clip-path="url(#e)"><path fill="#333" d="M593 332h32v54h-32Zm0 0"/></g><path fill="#FFF" d="M596 334h26v6h-26ZM596 343h26v5h-26ZM596 351h26v5h-26ZM596 359h26v5h-26ZM612 378a3 3 0 0 1 0 2l-1 1a3 3 0 0 1-2 0 3 3 0 1 1 3-5v2Zm0 0"/><path fill="#FFF" d="M619 337a1 1 0 0 1 0 1 1 1 0 1 1-1-2 1 1 0 0 1 1 1ZM619 345v1a1 1 0 1 1-1-2 1 1 0 0 1 1 1ZM619 354a1 1 0 0 1-2 0 1 1 0 0 1 0-1 1 1 0 0 1 2 0 1 1 0 0 1 0 1ZM619 362a1 1 0 0 1-2 0 1 1 0 0 1 0-1 1 1 0 0 1 2 0 1 1 0 0 1 0 1Zm0 0"/><path stroke-linecap="round" transform="matrix(1.5027 0 0 1.35919 622 359)" fill="none" d="M1 0h35" stroke="#333"/><path fill="#333" d="M358 256a27 27 0 1 0-4 55 27 27 0 0 0 4-55Zm11 41 1-12h11c0 6-2 11-6 15l-6-3Zm-32 3c-4-4-6-9-6-15h11l2 12-7 3Zm7-30-2 13h-11c0-6 2-11 6-16 2 2 4 3 7 3Zm11 13h-11l2-12 9 1Zm0 2v11l-9 1-2-12Zm2 0h11l-2 12-9-1Zm0-2v-11l9-1c2 3 2 7 2 12Zm0-13v-11c4 0 7 4 9 10l-9 1Zm-2-11v11l-9-1c2-6 6-10 9-10Zm0 39v11c-3-1-7-4-9-10l9-1Zm2 11v-11l9 1c-2 6-5 9-9 10Zm13-26-1-13c2 0 5-1 6-3 4 5 6 10 6 16Zm4-17-6 2c-1-4-3-7-5-9l11 7Zm-30 2-6-2c3-3 7-5 12-7-3 2-4 5-6 9Zm-6 34 6-3c2 4 3 7 6 9-5-1-9-3-12-6Zm30-3 6 3c-3 3-7 5-11 6 2-2 4-5 5-9Zm0 0"/><path d="M459 317h-1l-1 1v1h2v-2ZM463 319h-2l1 2 1-1v-1Zm0 0"/><g clip-path="url(#f)"><path d="m471 320-2 1 2 1v1l1-2-1-1Zm0 0"/></g><path d="M467 320h-1l-1 1 1 1h1l1-1-1-1ZM451 313v-1l-1 1v1l1 1 1-1-1-1ZM455 315h-2v2h2v-2ZM492 315h-1v1l1 1 1-1v-1h-1ZM495 312h-1v2h2v-2h-1Zm0 0"/><g clip-path="url(#g)"><path d="m475 320-1 1 1 1h1l1-1-2-1Zm0 0"/></g><path d="M480 320h-1l-1 1 1 1h1l1-2h-1ZM484 318l-1 1v1l1 1 1-1v-1l-1-1ZM488 317h-1v1l1 1h1v-2h-1Zm0 0"/><g clip-path="url(#h)"><path d="m505 292-16-6-4-1h-25l-4 1-16 6c-2 0-3 2-3 3v11c0 2 2 4 3 4h6v1h1l1 1v-2h49l1 1h1l1-1h5c2 0 3-2 3-4v-11c0-1-1-3-3-3Zm-48-4 3-1h25l4 1 10 4h-53Zm49 18-1 1h-65l-1-1v-11l1-1h65l1 1Zm0 0"/></g><path d="M499 296c-2 0-4 2-4 5 0 2 2 4 4 4 3 0 5-2 5-4 0-3-2-5-5-5Zm0 7-2-2a2 2 0 0 1 4 0l-2 2ZM453 297a1 1 0 0 1-2 1 1 1 0 0 1 0-1 1 1 0 0 1 1-1l1 1ZM458 297v1h-1a1 1 0 0 1-1 0 1 1 0 0 1-1-1 1 1 0 0 1 2-1v1a1 1 0 0 1 1 0ZM453 302a1 1 0 0 1 0 1 1 1 0 0 1-2 0v-1a1 1 0 0 1 0-1 1 1 0 0 1 1 0 1 1 0 0 1 1 0v1ZM458 302l-1 1a1 1 0 0 1-1 0l-1-1a1 1 0 0 1 1-1 1 1 0 0 1 1 0 1 1 0 0 1 1 1ZM445 296c-2 0-3 2-3 4s1 3 3 3 3-1 3-3-1-4-3-4Zm0 5-1-1a1 1 0 0 1 2 0l-1 1ZM491 296h-1a1 1 0 0 0 0 3h1l2-2-2-1ZM486 296h-1a1 1 0 0 0 0 3h1l1-2-1-1ZM491 303h-1a1 1 0 0 0 0 2h1l2-1-2-1ZM486 303h-1a1 1 0 0 0 0 2h1l1-1-1-1ZM480 296h-1l-1 1 1 2h1a1 1 0 0 0 0-3ZM475 296h-1l-1 1 1 2h1l1-2-1-1Zm0 0"/><g clip-path="url(#i)"><path d="M439 279h4v1h-1l-1 1 1 1h9l1-1-1-1h-1v-1h4c1 0 2-1 2-3v-10l-2-2h-6v-1h-2v1h-7l-2 2v10c0 2 1 3 2 3Zm6 1v-1h3v1Zm-6-14h15v10h-15Zm0 0"/></g><path d="m450 262 1-1 1-1-2-1v1l-1 1 1 1ZM454 259h1v-2h-2v2h1ZM491 259h1v1l1-1v-2h-2v2ZM495 262h1v-2h-2v2h1ZM458 257h1v-2h-2v1l1 1ZM483 255l1 1 1-1v-2h-1l-1 1v1ZM479 254h1l1-1-1-1-2 1 1 1ZM487 257h2v-2h-2v2Zm0 0"/><g clip-path="url(#j)"><path d="m471 254 1-1-1-2v1l-2 1 2 1Zm0 0"/></g><g clip-path="url(#k)"><path d="M475 254h1l1-1-1-1-1-1-1 2 1 1Zm0 0"/></g><g clip-path="url(#l)"><path d="M466 254h1l1-1-1-1h-1l-1 1 1 1Zm0 0"/></g><path d="M462 255h1v-1l-1-1h-1v2h1Zm0 0"/><g clip-path="url(#m)"><path d="M506 264h-6l-1-1h-1l-1 1h-6l-2 2v10c0 2 1 3 2 3h4v1h-1l-1 1 1 1h9l1-1-1-1h-1v-1h4c1 0 2-1 2-3v-10l-2-2Zm-8 16v-1h2v1Zm8-4h-15v-10h15Zm0 0"/></g><path d="m458 271 1 2h9v5h-2v2l2 2 1 1 1-1 1-2v-2h-1v-7l-1-1h-10l-1 1ZM476 282v1l1-1 2-2v-2h-1v-5h8l1-2-1-1h-10l-1 1v7h-1v2Zm0 0"/><g clip-path="url(#n)"><path fill="#FFF" d="M807 223c0 4-8 7-17 7-10 0-17-3-17-7s7-7 17-7c9 0 17 3 17 7Zm0 0"/></g><g clip-path="url(#o)"><path fill="#545454" d="M773 212Zm34 0Zm0 0c0 4-8 7-17 7-10 0-17-3-17-7v11c0 3 7 6 17 6 9 0 17-3 17-6v-1Zm0 0"/></g><g clip-path="url(#p)"><path fill="#333" d="M807 212c0 4-8 7-17 7-10 0-17-3-17-7s7-7 17-7c9 0 17 3 17 7Zm0 0"/></g><path fill="#FFF" d="M807 212c0 3-8 6-17 6s-17-3-17-6c0-4 8-7 17-7s17 3 17 7Zm0 0"/><g clip-path="url(#q)"><path fill="#FFF" d="M807 212c0 3-8 6-17 6-10 0-17-3-17-6 0-4 7-7 17-7 9 0 17 3 17 7Zm0 0"/></g><g clip-path="url(#r)"><path fill="#545454" d="M773 201Zm34 0Zm0 0c0 3-8 7-17 7-10 0-17-3-17-7v10c0 4 7 7 17 7 9 0 17-3 17-7Zm0 0"/></g><g clip-path="url(#s)"><path fill="#333" d="M807 201c0 4-8 7-17 7-10 0-17-3-17-7s7-7 17-7c9 0 17 3 17 7Zm0 0"/></g><path fill="#FFF" d="M807 200c0 4-8 7-17 7s-17-3-17-7c0-3 8-6 17-6s17 3 17 6Zm0 0"/><g clip-path="url(#t)"><path fill="#FFF" d="M807 200c0 4-8 7-17 7-10 0-17-3-17-7 0-3 7-6 17-6 9 0 17 3 17 6Zm0 0"/></g><g clip-path="url(#u)"><path fill="#545454" d="M773 189Zm34 0v1-1Zm0 1c0 3-8 6-17 6-10 0-17-3-17-6v10c0 4 7 7 17 7 9 0 17-3 17-7Zm0 0"/></g><g clip-path="url(#v)"><path fill="#333" d="M807 190c0 3-8 6-17 6-10 0-17-3-17-6 0-4 7-7 17-7 9 0 17 3 17 7Zm0 0"/></g><g clip-path="url(#w)"><path fill="#FFF" d="M807 189c0 4-8 7-17 7s-17-3-17-7 8-7 17-7 17 3 17 7Zm0 0"/></g><g clip-path="url(#x)"><path fill="#333" d="M217 304c3 0 6-2 6-6v-35c0-3-3-6-6-6h-51c-4 0-7 3-7 6v35c0 4 3 6 7 6h-13c0 4 3 7 6 7h64c4 0 6-3 6-7Zm-51-41h51v35h-51Zm25 45c-2 0-3-2-3-4a3 3 0 0 1 6 0c0 2-1 4-3 4Zm0 0"/></g><g clip-path="url(#y)"><path fill="#333" d="M217 391c3 0 6-3 6-7v-34c0-4-3-7-6-7h-51c-4 0-7 3-7 7v34c0 4 3 7 7 7h-13c0 3 3 6 6 6h64c4 0 6-3 6-6Zm-51-41h51v34h-51Zm25 44c-2 0-3-1-3-3a3 3 0 0 1 6 0c0 2-1 3-3 3Zm0 0"/></g><path stroke-linecap="round" transform="matrix(1.49384 0 0 1.35919 230 288)" fill="none" d="M0 0h56" stroke="#333"/><path stroke-linecap="round" transform="matrix(1.49384 0 0 1.35919 317 288)" fill="#333" stroke-linejoin="round" d="m-3-2 3 2-3 1Zm0 0" stroke="#333"/><path stroke-linecap="round" transform="matrix(1.14328 -.97004 .87935 1.0364 229 370)" fill="none" d="M0 0h74" stroke="#333"/><path stroke-linecap="round" transform="matrix(1.14328 -.97004 .87935 1.0364 317 295)" fill="#333" stroke-linejoin="round" d="m-2-2 2 2-2 1Zm0 0" stroke="#333"/><path d="M443 169h11v2h-14v-22h3ZM456 163l1-5 3-3 4-1 5 2c2 2 2 4 2 7l-1 4a7 7 0 0 1-6 5c-3 0-4-1-6-3l-2-6Zm3 0 1 5 4 1c1 0 2 0 3-2l1-4-1-5-3-2-4 2-1 5ZM485 171v-2c-1 2-3 3-5 3l-4-2-2-3 2-5 6-1h3v-1l-1-3-3-1-2 1-1 2h-3l1-2 2-2 4-1 4 2 2 4v11Zm-4-2 2-1 2-1v-4h-2c-4 0-6 1-6 3l1 2 3 1ZM492 163l1-7 5-2 5 2v-9h3v24h-3v-2c-1 2-3 3-5 3s-3-1-5-3l-1-6Zm3 0 1 5 3 1 4-2v-8c-1-2-2-2-4-2l-3 1-1 5ZM413 215v-22h8l5 1 2 5-1 3-2 1 3 2 1 4-2 5-6 1Zm3-10v8h5l3-1 2-3c0-3-2-4-5-4Zm0-3h5l3-1 1-2-1-3-3-1h-5ZM443 215v-1l-5 2-4-2-2-3 2-4 6-2h3v-1l-1-3h-6l-1 2h-3l1-2 3-2 3-1 5 2 1 4v7l1 4Zm-5-2h3l2-2v-4h-3c-3 0-5 1-5 3l1 2 2 1ZM453 215h-3v-24h3ZM468 215v-1l-5 2-4-2-2-3 2-4 6-2h3v-1l-1-3h-5l-2 2h-2v-2l3-2 3-1 5 2 2 4v11Zm-5-2h3l2-2v-4h-3c-3 0-5 1-5 3l1 2 2 1ZM478 199v2c1-2 3-3 5-3 4 0 5 2 5 6v11h-3v-13l-3-1h-2l-2 2v12h-3v-16ZM499 213l3-1 1-2h3l-1 3-2 2-4 1c-2 0-4-1-5-3l-2-6 1-5a7 7 0 0 1 6-4l5 2 2 4h-3l-1-2-3-1-3 1-1 5 1 5 3 1ZM516 216c-2 0-4-1-5-3-2-1-2-3-2-6l1-5 2-3 4-1 5 2 2 7v1h-11l1 4 4 1h2l2-2 2 1c-2 3-4 4-7 4Zm0-15-3 1-1 3h8l-1-3-3-1ZM535 201h-2l-4 2v12h-3v-16h3v2c1-2 2-3 4-3h2Zm0 0" fill="#333"/><g clip-path="url(#z)"><path fill="#FFF" d="M807 299c0 4-8 7-17 7-10 0-17-3-17-7s7-7 17-7c9 0 17 3 17 7Zm0 0"/></g><g clip-path="url(#A)"><path fill="#545454" d="M773 288Zm34 0Zm0 0c0 4-8 7-17 7-10 0-17-3-17-7v11c0 3 7 6 17 6 9 0 17-3 17-6v-1Zm0 0"/></g><g clip-path="url(#B)"><path fill="#333" d="M807 288c0 4-8 7-17 7-10 0-17-3-17-7s7-7 17-7c9 0 17 3 17 7Zm0 0"/></g><path fill="#FFF" d="M807 288c0 3-8 6-17 6s-17-3-17-6c0-4 8-7 17-7s17 3 17 7Zm0 0"/><g clip-path="url(#C)"><path fill="#FFF" d="M807 288c0 3-8 6-17 6-10 0-17-3-17-6 0-4 7-7 17-7 9 0 17 3 17 7Zm0 0"/></g><g clip-path="url(#D)"><path fill="#545454" d="M773 276v1-1Zm34 0v1-1Zm0 1c0 3-8 6-17 6-10 0-17-2-17-6v10c0 4 7 7 17 7 9 0 17-3 17-7Zm0 0"/></g><g clip-path="url(#E)"><path fill="#333" d="M807 277c0 3-8 7-17 7-10 0-17-4-17-7 0-4 7-7 17-7 9 0 17 3 17 7Zm0 0"/></g><path fill="#FFF" d="M807 276c0 4-8 7-17 7s-17-3-17-7c0-3 8-6 17-6s17 3 17 6Zm0 0"/><g clip-path="url(#F)"><path fill="#FFF" d="M807 276c0 4-8 7-17 7-10 0-17-3-17-7 0-3 7-6 17-6 9 0 17 3 17 6Zm0 0"/></g><g clip-path="url(#G)"><path fill="#545454" d="M773 265Zm34 0Zm0 0c0 4-8 7-17 7-10 0-17-3-17-6v10c0 4 7 7 17 7 9 0 17-3 17-7Zm0 0"/></g><g clip-path="url(#H)"><path fill="#333" d="M807 266c0 3-8 6-17 6-10 0-17-3-17-6 0-4 7-7 17-7 9 0 17 3 17 7Zm0 0"/></g><g clip-path="url(#I)"><path fill="#FFF" d="M807 265c0 4-8 7-17 7s-17-3-17-7 8-7 17-7 17 3 17 7Zm0 0"/></g><g clip-path="url(#J)"><path fill="#FFF" d="M807 373c0 4-8 7-17 7-10 0-17-3-17-7 0-3 7-7 17-7 9 0 17 4 17 7Zm0 0"/></g><g clip-path="url(#K)"><path fill="#545454" d="M773 362Zm34 0Zm0 0c0 4-8 7-17 7-10 0-17-3-17-7v11c0 4 7 6 17 6 9 0 17-2 17-6Zm0 0"/></g><g clip-path="url(#L)"><path fill="#333" d="M807 362c0 4-8 7-17 7-10 0-17-3-17-7 0-3 7-6 17-6 9 0 17 3 17 6Zm0 0"/></g><path fill="#FFF" d="M807 362c0 4-8 7-17 7s-17-3-17-7 8-7 17-7 17 3 17 7Zm0 0"/><g clip-path="url(#M)"><path fill="#FFF" d="M807 362c0 4-8 7-17 7-10 0-17-3-17-7s7-7 17-7c9 0 17 3 17 7Zm0 0"/></g><g clip-path="url(#N)"><path fill="#545454" d="M773 351Zm34 0Zm0 0c0 4-8 7-17 7-10 0-17-3-17-7v11c0 3 7 6 17 6 9 0 17-3 17-6v-1Zm0 0"/></g><g clip-path="url(#O)"><path fill="#333" d="M807 351c0 4-8 7-17 7-10 0-17-3-17-7s7-7 17-7c9 0 17 3 17 7Zm0 0"/></g><path fill="#FFF" d="M807 351c0 3-8 6-17 6s-17-3-17-6c0-4 8-7 17-7s17 3 17 7Zm0 0"/><g clip-path="url(#P)"><path fill="#FFF" d="M807 351c0 3-8 6-17 6-10 0-17-3-17-6 0-4 7-7 17-7 9 0 17 3 17 7Zm0 0"/></g><g clip-path="url(#Q)"><path fill="#545454" d="M773 340Zm34 0Zm0 0c0 4-8 7-17 7-10 0-17-3-17-7v10c0 4 7 7 17 7 9 0 17-3 17-7Zm0 0"/></g><g clip-path="url(#R)"><path fill="#333" d="M807 340c0 4-8 7-17 7-10 0-17-3-17-7s7-7 17-7c9 0 17 3 17 7Zm0 0"/></g><g clip-path="url(#S)"><path fill="#FFF" d="M807 339c0 4-8 7-17 7s-17-3-17-7c0-3 8-6 17-6s17 3 17 6Zm0 0"/></g></svg>