<svg xmlns="http://www.w3.org/2000/svg" width="1280" viewBox="0 0 960 540" height="720" version="1.0"><defs><clipPath id="a"><path d="M1 0h958v539H1Zm0 0"/></clipPath><clipPath id="b"><path d="M120 268h70v84h-70Zm0 0"/></clipPath><clipPath id="c"><path d="M132 259h70v84h-70Zm0 0"/></clipPath><clipPath id="d"><path d="M180 259h22v21h-22Zm0 0"/></clipPath><clipPath id="e"><path d="M751 268h70v84h-70Zm0 0"/></clipPath><clipPath id="f"><path d="M763 259h70v84h-70Zm0 0"/></clipPath><clipPath id="g"><path d="M811 259h22v21h-22Zm0 0"/></clipPath></defs><g clip-path="url(#a)" fill="#FFF"><path d="M1 0h958v539H1Zm0 0"/><path d="M1 0h958v539H1Zm0 0"/><path d="M1 0h958v539H1Zm0 0"/></g><path fill="#FFF" d="M188 351h-67v-82h48v19h19v63"/><g clip-path="url(#b)"><path fill="#292626" d="M188 351v-1h-66v-80h46v18l1 1h18v62h1v-1 1h1v-64h-19v-18l-1-1h-48l-1 1v82a1 1 0 0 0 1 1h67a1 1 0 0 0 1-1h-1"/></g><path fill="#FFF" d="M201 342h-67v-82h47v19h20v63"/><g clip-path="url(#c)"><path fill="#292626" d="M201 342v-1h-66v-80h45v18h1v1h19v62h1v-1 1h1v-63l-1-1h-19v-18l-1-1h-47a1 1 0 0 0-1 1v83h68l1-1h-1"/></g><path fill="#FFF" d="m181 260 20 19h-20Zm0 0"/><g clip-path="url(#d)"><path fill="#292626" d="M181 260v1l17 17h-16v-18h-1v1-1h-1v19h1v1h20a1 1 0 0 0 0-2l-19-18-1-1-1 1h1"/></g><path fill="#292626" d="M175 275h-34l-1 1 1 1h34l1-1-1-1M175 285h-34l-1 1 1 1h34a1 1 0 0 0 0-2M188 296h-47a1 1 0 0 0 0 2h47a1 1 0 0 0 0-2M188 306h-47a1 1 0 0 0 0 2h47a1 1 0 0 0 0-2M188 316h-47a1 1 0 0 0 0 2h47l1-1-1-1M188 327h-47a1 1 0 0 0 0 2h47l1-1-1-1"/><path fill="#C1F9C1" d="M360 231h-61c-3 0-6-3-6-6v-38c0-3 3-6 6-6h61c3 0 6 3 6 6v38c0 3-3 6-6 6M360 331h-61c-3 0-6-3-6-6v-38c0-4 3-6 6-6h61c3 0 6 2 6 6v38c0 3-3 6-6 6M360 426h-61c-3 0-6-3-6-6v-38c0-3 3-6 6-6h61c3 0 6 3 6 6v38c0 3-3 6-6 6"/><path fill="#F4F1F1" d="M502 231h-60c-3 0-6-3-6-6v-38c0-3 3-6 6-6h60c4 0 7 3 7 6v38c0 3-3 6-7 6M502 331h-60c-3 0-6-3-6-6v-38c0-4 3-6 6-6h60c4 0 7 2 7 6v38c0 3-3 6-7 6M502 426h-60c-3 0-6-3-6-6v-38c0-3 3-6 6-6h60c4 0 7 3 7 6v38c0 3-3 6-7 6"/><path fill="#FFF1BA" d="M636 231h-61c-3 0-6-3-6-6v-38c0-3 3-6 6-6h61c3 0 6 3 6 6v38c0 3-3 6-6 6M636 331h-61c-3 0-6-3-6-6v-38c0-4 3-6 6-6h61c3 0 6 2 6 6v38c0 3-3 6-6 6M636 426h-61c-3 0-6-3-6-6v-38c0-3 3-6 6-6h61c3 0 6 3 6 6v38c0 3-3 6-6 6"/><path d="M132 216h-3v-23h3ZM140 199v2l5-2c3 0 5 2 5 6v11h-3v-11l-1-3-2-1-3 1-1 2v12h-3v-17ZM169 208l-2 6-5 2c-2 0-3 0-5-2v8h-2v-23h2v2c1-2 3-2 5-2s4 0 5 2l2 6Zm-3-1-1-4-4-2-4 3v8l4 2 4-2 1-5ZM183 214c-1 2-3 2-5 2l-4-1-2-5v-11h3v11c0 2 1 4 3 4 3 0 4-1 5-3v-12h3v17h-3ZM194 195v4h3v2h-3v12l2 1h1v2h-2l-3-1-1-3v-11h-3v-2h3v-4ZM306 120l8 19 7-19h4v23h-3v-19l-7 19h-2l-8-19 1 10v9h-3v-23ZM340 143v-2l-5 2-4-1-1-4c0-2 0-3 2-4l5-2h3v-1l-1-2-3-1-2 1-1 2h-3l1-3 2-2h4l4 1 2 4v12Zm-4-2 2-1 2-2v-3h-2c-4 0-6 1-6 3l1 2 3 1ZM362 134l-2 7-5 2-5-2v8h-3v-23h3v2c1-2 3-2 5-2s4 0 5 2l2 6Zm-3 0-1-4-4-2-4 2v8c1 2 2 3 4 3l4-2 1-5ZM440 133l-6-3-2-4c0-2 1-3 3-5l5-1 4 1 3 2 1 4h-3l-1-4-4-1-3 1-2 3 2 2 4 2 4 2 2 2 1 3-2 4-6 2-4-1-3-2-1-4h3l1 3 4 2 4-1 1-3-1-3-4-1ZM462 141l-5 2c-2 0-3 0-4-2l-2-4v-11h3v11c0 2 1 4 3 4 3 0 4-1 5-3v-12h3v17h-3ZM471 143v-15h-3v-2h3v-2l1-4 4-2 2 1v2h-2l-2 1-1 2v2h4v2h-4v15ZM482 143v-15h-3v-2h3v-2l1-4 4-2 2 1v2h-2l-2 1v4h3v2h-3v15ZM494 143h-2v-24h2ZM506 143l-6-2-2-6v-1l1-4 3-3 4-1c2 0 4 0 5 2l2 6v1h-12l2 4 3 2 3-1 2-2 1 2c-1 2-3 3-6 3Zm0-15-3 1-2 4h9l-1-4-3-1ZM565 134h-6v9h-3v-23h8l6 2 2 5-1 4-4 2 6 10h-4Zm-6-3h5l3-1 2-3c0-2-1-3-2-3l-3-2h-5ZM582 143l-5-2c-2-2-2-4-2-6v-1l1-4c0-2 1-3 2-3l4-1c2 0 4 0 5 2l2 6v1h-11l1 4 4 2 2-1 2-2 2 2c-2 2-4 3-7 3Zm0-15-3 1-1 4h8l-1-4-3-1ZM592 134l1-6c2-2 3-2 5-2s4 0 5 2v-9h3v24h-3v-2l-5 2-5-2-1-7Zm3 0 1 5 3 2c2 0 3-1 4-3v-8l-4-2-3 2-1 4ZM621 141l-5 2c-2 0-3 0-4-2l-2-4v-11h3v11c0 2 1 4 3 4s4-1 5-3v-12h3v17h-3ZM635 141l2-1 2-3h2l-1 3-2 2-3 1-6-2-2-7 1-4a7 7 0 0 1 7-4l4 1c2 1 2 3 2 5h-2l-2-3-2-1-4 1-1 5v1l1 4 4 2ZM652 143l-6-2-2-6v-1l1-4c1-2 1-3 3-3l3-1c2 0 4 0 5 2 2 1 2 3 2 6v1h-11l1 4 4 2 2-1 2-2 2 2c-1 2-4 3-6 3Zm-1-15-3 1-1 4h8l-1-4-3-1ZM764 205l-1 6-3 4-5 1-5-1-3-4-1-6v-1l1-6 3-4 5-1 5 1 3 4 1 6Zm-3-1-2-6c-1-2-2-3-4-3s-4 1-5 3l-1 6v1l1 6c1 2 3 3 5 3l4-2 2-6ZM778 214c-1 2-2 2-4 2l-5-1-1-5v-11h3v11c0 2 1 4 3 4s4-1 4-3v-12h3v17h-2ZM790 195v4h3v2h-3v12l1 1h2v2h-2l-3-1-1-3v-11h-3v-2h3v-4ZM810 208l-1 6-5 2c-2 0-4 0-5-2v8h-3v-23h3v2c1-2 3-2 5-2s3 0 5 2l1 6Zm-3-1-1-4-3-2c-2 0-3 1-4 3v8l4 2 3-2 1-5ZM824 214c-1 2-2 2-5 2l-4-1-1-5v-11h3v11c0 2 1 4 3 4s4-1 4-3v-12h3v17h-3ZM836 195v4h3v2h-3v12l1 1h2v2h-2l-3-1-1-3v-11h-3v-2h3v-4Zm0 0"/><path stroke-linecap="round" transform="matrix(1.53664 -1.6365 1.31801 1.23758 201 304)" fill="none" d="M1 0h58" stroke="#737373"/><path stroke-linecap="round" transform="matrix(1.53664 -1.6365 1.31801 1.23758 293 206)" fill="none" stroke-linejoin="round" d="m-3-2 3 2-2 1" stroke="#737373"/><path stroke-linecap="round" transform="matrix(2.24642 0 0 1.80797 202 307)" fill="none" d="M0 0h40" stroke="#737373"/><path stroke-linecap="round" transform="matrix(2.24642 0 0 1.80797 293 307)" fill="none" stroke-linejoin="round" d="m-3-2 3 2-3 2" stroke="#737373"/><path stroke-linecap="round" transform="matrix(2.24022 0 0 1.80797 508 204)" fill="none" d="M1 0h25" stroke="#737373"/><path stroke-linecap="round" transform="matrix(2.24022 0 0 1.80797 569 204)" fill="none" stroke-linejoin="round" d="m-3-2 2 2-2 2" stroke="#737373"/><path stroke-linecap="round" transform="matrix(2.24022 0 0 1.80797 508 308)" fill="none" d="M1 0h25" stroke="#737373"/><path stroke-linecap="round" transform="matrix(2.24022 0 0 1.80797 569 308)" fill="none" stroke-linejoin="round" d="m-3-1 2 1-2 1" stroke="#737373"/><path stroke-linecap="round" transform="matrix(2.24022 0 0 1.80797 508 411)" fill="none" d="M1 0h25" stroke="#737373"/><path stroke-linecap="round" transform="matrix(2.24022 0 0 1.80797 569 411)" fill="none" stroke-linejoin="round" d="m-3-1 2 1-2 1" stroke="#737373"/><path stroke-linecap="round" transform="matrix(1.68392 1.47816 -1.19272 1.35874 641 204)" fill="none" d="M0 0h65" stroke="#737373"/><path stroke-linecap="round" transform="matrix(1.68392 1.47816 -1.19272 1.35874 752 301)" fill="none" stroke-linejoin="round" d="m-3-1 2 1-2 1" stroke="#737373"/><path stroke-linecap="round" transform="matrix(2.2408 0 0 1.80797 641 307)" fill="none" d="M0 0h48" stroke="#737373"/><path stroke-linecap="round" transform="matrix(2.2408 0 0 1.80797 751 307)" fill="none" stroke-linejoin="round" d="m-2-2 1 2-1 2" stroke="#737373"/><path stroke-linecap="round" transform="matrix(1.76048 -1.40388 1.12723 1.41355 641 401)" fill="none" d="M0 0h63" stroke="#737373"/><path stroke-linecap="round" transform="matrix(1.76048 -1.40388 1.12723 1.41355 754 311)" fill="none" stroke-linejoin="round" d="m-2-1 2 1-3 1" stroke="#737373"/><path stroke-linecap="round" transform="matrix(2.24958 0 0 1.80797 366 208)" fill="none" d="M1 0h30" stroke="#737373"/><path stroke-linecap="round" transform="matrix(2.24958 0 0 1.80797 436 208)" fill="none" stroke-linejoin="round" d="m-2-1 2 1-2 1" stroke="#737373"/><path stroke-linecap="round" transform="matrix(1.32052 1.81276 -1.46135 1.06453 366 208)" fill="none" d="M0 0h52" stroke="#737373"/><path stroke-linecap="round" transform="matrix(1.32052 1.81276 -1.46135 1.06453 436 304)" fill="none" stroke-linejoin="round" d="m-2-1 2 1-3 1" stroke="#737373"/><path stroke-linecap="round" transform="matrix(2.2351 0 0 1.80797 365 307)" fill="none" d="M1 0h29" stroke="#737373"/><path stroke-linecap="round" transform="matrix(2.2351 0 0 1.80797 433 307)" fill="none" stroke-linejoin="round" d="m-3-2 3 2-3 2" stroke="#737373"/><path stroke-linecap="round" transform="matrix(2.24958 0 0 1.80797 366 412)" fill="none" d="M1 0h30" stroke="#737373"/><path stroke-linecap="round" transform="matrix(2.24958 0 0 1.80797 437 412)" fill="none" stroke-linejoin="round" d="m-2-1 2 1-2 1" stroke="#737373"/><path stroke-linecap="round" transform="matrix(1.34513 -1.79323 1.4463 1.08489 366 403)" fill="none" d="M1 0h49" stroke="#737373"/><path stroke-linecap="round" transform="matrix(1.34513 -1.79323 1.4463 1.08489 434 312)" fill="none" stroke-linejoin="round" d="m-3-2 2 2-1 1" stroke="#737373"/><path stroke-linecap="round" transform="matrix(1.31806 -1.81044 1.46164 1.06412 366 305)" fill="none" d="M1 0h51" stroke="#737373"/><path stroke-linecap="round" transform="matrix(1.31806 -1.81044 1.46164 1.06412 435 210)" fill="none" stroke-linejoin="round" d="m-3-2 3 2-2 1" stroke="#737373"/><path stroke-linecap="round" transform="matrix(1.53254 1.63848 -1.3204 1.23503 201 307)" fill="none" d="M1 0h58" stroke="#737373"/><path stroke-linecap="round" transform="matrix(1.53254 1.63848 -1.3204 1.23503 293 405)" fill="none" stroke-linejoin="round" d="m-3-2 2 2-1 2" stroke="#737373"/><path fill="#FFF" d="M819 351h-67v-82h48v19h19v63"/><g clip-path="url(#e)"><path fill="#292626" d="M819 351v-1h-66v-80h46v18l1 1h18v62h1v-1 1h1v-63a1 1 0 0 0-1-1h-18v-18h-1v-1h-48l-1 1v82a1 1 0 0 0 1 1h68v-1h-1"/></g><path fill="#FFF" d="M831 342h-67v-82h48v19h19v63"/><g clip-path="url(#f)"><path fill="#292626" d="M831 342v-1h-66v-80h46v18h1v1h19v62-1 1h1v-63a1 1 0 0 0-1-1h-18v-18l-1-1h-48v1h-1v82l1 1h67a1 1 0 0 0 1-1h-1"/></g><path fill="#FFF" d="m812 260 19 19h-19Zm0 0"/><g clip-path="url(#g)"><path fill="#292626" d="M812 260v1l17 17h-16v-18h-1v1-1h-1v19h1v1h19l1-1v-1l-19-18a1 1 0 0 0-2 0h1"/></g><path fill="#292626" d="M806 275h-34l-1 1 1 1h34l1-1-1-1M806 285h-34l-1 1 1 1h34a1 1 0 0 0 0-2M819 296h-47a1 1 0 0 0 0 2h47a1 1 0 0 0 0-2M819 306h-47a1 1 0 0 0 0 2h47a1 1 0 0 0 0-2M819 316h-47a1 1 0 0 0 0 2h47a1 1 0 0 0 0-2M819 327h-47a1 1 0 0 0 0 2h47a1 1 0 0 0 0-2"/></svg>