<svg xmlns="http://www.w3.org/2000/svg" width="1280" viewBox="0 0 960 540" height="720" version="1.0"><defs><clipPath id="a"><path d="M1 0h958v539H1Zm0 0"/></clipPath><clipPath id="b"><path d="M136 183h106v173H136Zm0 0"/></clipPath><clipPath id="c"><path d="M255 183h106v173H255Zm0 0"/></clipPath><clipPath id="d"><path d="M374 183h106v173H374Zm0 0"/></clipPath><clipPath id="e"><path d="M480 183h106v173H480Zm0 0"/></clipPath><clipPath id="f"><path d="M599 183h106v173H599Zm0 0"/></clipPath><clipPath id="g"><path d="M718 183h106v173H718Zm0 0"/></clipPath></defs><g clip-path="url(#a)" fill="#FFF"><path d="M1 0h958v539H1Zm0 0"/><path d="M1 0h958v539H1Zm0 0"/><path d="M1 0h958v539H1Zm0 0"/></g><g clip-path="url(#b)"><path fill="#545454" d="m155 356-18-19 68-68-68-67 18-19 87 86-87 87"/></g><g clip-path="url(#c)"><path fill="#545454" d="m274 356-18-19 67-68-67-67 18-19 87 86-87 87"/></g><g clip-path="url(#d)"><path fill="#545454" d="m393 356-19-19 68-68-68-67 19-19 87 86-87 87"/></g><g clip-path="url(#e)"><path fill="#545454" d="m499 356-19-19 68-68-68-67 19-19 86 86-86 87"/></g><g clip-path="url(#f)"><path fill="#545454" d="m618 356-19-19 68-68-68-67 19-19 86 86-86 87"/></g><g clip-path="url(#g)"><path fill="#545454" d="m737 356-19-19 68-68-68-67 19-19 86 86-86 87"/></g></svg>