<svg xmlns="http://www.w3.org/2000/svg" width="1280" viewBox="0 0 960 540" height="720" version="1.0"><defs><clipPath id="a"><path d="M1 0h958v539H1Zm0 0"/></clipPath><clipPath id="b"><path d="M133 96h62v44h-62Zm0 0"/></clipPath><clipPath id="c"><path d="M411 183h85v25h-85Zm0 0"/></clipPath><clipPath id="d"><path d="M442 183h54v40h-54Zm0 0"/></clipPath><clipPath id="e"><path d="M450 183h46v40h-46Zm0 0"/></clipPath><clipPath id="f"><path d="M458 183h38v40h-38Zm0 0"/></clipPath><clipPath id="g"><path d="M411 211h85v25h-85Zm0 0"/></clipPath><clipPath id="h"><path d="M442 196h54v56h-54Zm0 0"/></clipPath><clipPath id="i"><path d="M450 196h46v56h-46Zm0 0"/></clipPath><clipPath id="j"><path d="M458 196h38v56h-38Zm0 0"/></clipPath><clipPath id="k"><path d="M411 241h85v25h-85Zm0 0"/></clipPath><clipPath id="l"><path d="M442 226h54v56h-54Zm0 0"/></clipPath><clipPath id="m"><path d="M450 226h46v56h-46Zm0 0"/></clipPath><clipPath id="n"><path d="M458 226h38v56h-38Zm0 0"/></clipPath><clipPath id="o"><path d="M422 279h27v3h-27Zm0 0"/></clipPath><clipPath id="p"><path d="M458 279h28v3h-28Zm0 0"/></clipPath><clipPath id="q"><path d="M446 275h14v7h-14Zm0 0"/></clipPath><clipPath id="r"><path d="M715 189h62v93h-62Zm0 0"/></clipPath><clipPath id="s"><path d="M133 208h62v44h-62Zm0 0"/></clipPath><clipPath id="t"><path d="M133 319h62v44h-62Zm0 0"/></clipPath></defs><g clip-path="url(#a)" fill="#FFF"><path d="M1 0h958v539H1Zm0 0"/><path d="M1 0h958v539H1Zm0 0"/><path d="M1 0h958v539H1Zm0 0"/></g><g clip-path="url(#b)"><path fill="#737373" d="M185 135c2 0 5-3 5-5v-29c0-3-3-5-5-5h-42c-3 0-5 2-5 5v29c0 2 2 5 5 5h-10c0 3 2 5 5 5h52c3 0 5-2 5-5Zm-42-34h42v29h-42Zm21 36a3 3 0 0 1 0-5 3 3 0 0 1 0 5Zm0 0"/></g><path stroke-linecap="round" transform="matrix(1.24067 .83575 -.7186 1.06675 215 118)" fill="none" d="M3 0h127" stroke="#000"/><path stroke-linecap="round" transform="matrix(1.24067 .83575 -.7186 1.06675 215 118)" stroke-linejoin="round" d="M3-1 0 0l2 2Zm0 0" stroke="#000"/><path stroke-linecap="round" transform="matrix(1.24067 .83575 -.7186 1.06675 380 229)" stroke-linejoin="round" d="m-3-1 2 1-2 1Zm0 0" stroke="#000"/><path stroke-linecap="round" transform="matrix(1.49706 .02874 -.02468 1.28597 215 233)" fill="none" d="M3 0h104" stroke="#000"/><path stroke-linecap="round" transform="matrix(1.49706 .02874 -.02468 1.28597 215 233)" stroke-linejoin="round" d="M2-2 0 0l2 2Zm0 0" stroke="#000"/><path stroke-linecap="round" transform="matrix(1.49706 .02874 -.02468 1.28597 380 236)" stroke-linejoin="round" d="m-2-2 2 2-2 2Zm0 0" stroke="#000"/><path stroke-linecap="round" transform="matrix(1.2626 -.79955 .68813 1.08665 213 349)" fill="none" d="M3 0h126" stroke="#000"/><path stroke-linecap="round" transform="matrix(1.2626 -.79955 .68813 1.08665 213 349)" stroke-linejoin="round" d="M2-2 0 0l3 2Zm0 0" stroke="#000"/><path stroke-linecap="round" transform="matrix(1.2626 -.79955 .68813 1.08665 380 244)" stroke-linejoin="round" d="m-3-1 3 1-2 1Zm0 0" stroke="#000"/><g clip-path="url(#c)"><path fill="#737373" d="m496 206-1 1h-83l-1-1v-22l1-1h83l1 1v22"/></g><path transform="matrix(.0497 0 0 -.0498 348 339)" fill="none" d="M1441 2955v-150M1531 2955v-150M1621 2955v-150" stroke="#FFF" stroke-width="35.7" stroke-miterlimit="10"/><g clip-path="url(#d)"><path transform="matrix(.0497 0 0 -.0498 348 339)" fill="none" d="M2482 2870a39 39 0 1 0-78 0 39 39 0 0 0 78 0Zm0 0" stroke="#D7282F" stroke-width="35.7" stroke-miterlimit="10"/></g><g clip-path="url(#e)"><path transform="matrix(.0497 0 0 -.0498 348 339)" fill="none" d="M2648 2870a39 39 0 1 0-78 0 39 39 0 0 0 78 0Zm0 0" stroke="#7FCB27" stroke-width="35.7" stroke-miterlimit="10"/></g><g clip-path="url(#f)"><path transform="matrix(.0497 0 0 -.0498 348 339)" fill="none" d="M2811 2870a39 39 0 1 0-78 0 39 39 0 0 0 78 0Zm0 0" stroke="#3ABDC4" stroke-width="35.7" stroke-miterlimit="10"/></g><path transform="matrix(.0497 0 0 -.0498 348 339)" fill="none" d="M1782 2921h503M1782 2819h503" stroke="#3ABDC4" stroke-width="35.7" stroke-miterlimit="10"/><g clip-path="url(#g)"><path fill="#737373" d="M496 235h-85v-22l1-1h83l1 1v22"/></g><path transform="matrix(.0497 0 0 -.0498 348 339)" fill="none" d="M1441 2385v-149M1531 2385v-149M1621 2385v-149" stroke="#FFF" stroke-width="35.7" stroke-miterlimit="10"/><g clip-path="url(#h)"><path transform="matrix(.0497 0 0 -.0498 348 339)" fill="none" d="M2482 2300a39 39 0 1 0-78 0 39 39 0 0 0 78 0Zm0 0" stroke="#D7282F" stroke-width="35.7" stroke-miterlimit="10"/></g><g clip-path="url(#i)"><path transform="matrix(.0497 0 0 -.0498 348 339)" fill="none" d="M2648 2300a39 39 0 0 0-78 0 39 39 0 0 0 78 0Zm0 0" stroke="#7FCB27" stroke-width="35.7" stroke-miterlimit="10"/></g><g clip-path="url(#j)"><path transform="matrix(.0497 0 0 -.0498 348 339)" fill="none" d="M2811 2300a39 39 0 1 0-78 0 39 39 0 0 0 78 0Zm0 0" stroke="#3ABDC4" stroke-width="35.7" stroke-miterlimit="10"/></g><path transform="matrix(.0497 0 0 -.0498 348 339)" fill="none" d="M1782 2352h503M1782 2249h503" stroke="#3ABDC4" stroke-width="35.7" stroke-miterlimit="10"/><g clip-path="url(#k)"><path fill="#737373" d="M496 265h-85v-22l1-1h83l1 1v22"/></g><path transform="matrix(.0497 0 0 -.0498 348 339)" fill="none" d="M1441 1784v-149M1531 1784v-149M1621 1784v-149" stroke="#FFF" stroke-width="35.7" stroke-miterlimit="10"/><g clip-path="url(#l)"><path transform="matrix(.0497 0 0 -.0498 348 339)" fill="none" d="M2482 1699a39 39 0 1 0-78 0 39 39 0 0 0 78 0Zm0 0" stroke="#D7282F" stroke-width="35.7" stroke-miterlimit="10"/></g><g clip-path="url(#m)"><path transform="matrix(.0497 0 0 -.0498 348 339)" fill="none" d="M2648 1699a39 39 0 1 0-78 0 39 39 0 0 0 78 0Zm0 0" stroke="#7FCB27" stroke-width="35.7" stroke-miterlimit="10"/></g><g clip-path="url(#n)"><path transform="matrix(.0497 0 0 -.0498 348 339)" fill="none" d="M2811 1699a39 39 0 1 0-78 0 39 39 0 0 0 78 0Zm0 0" stroke="#3ABDC4" stroke-width="35.7" stroke-miterlimit="10"/></g><path transform="matrix(.0497 0 0 -.0498 348 339)" fill="none" d="M1782 1751h503M1782 1648h503" stroke="#3ABDC4" stroke-width="35.7" stroke-miterlimit="10"/><path transform="matrix(.0497 0 0 -.0498 348 339)" fill="none" d="M2126 1471v-208" stroke="#274169" stroke-width="35.7" stroke-miterlimit="10"/><g clip-path="url(#o)"><path transform="matrix(.0497 0 0 -.0498 348 339)" fill="none" d="M2017 1159h-498" stroke="#274169" stroke-width="44.2" stroke-miterlimit="10"/></g><g clip-path="url(#p)"><path transform="matrix(.0497 0 0 -.0498 348 339)" fill="none" d="M2756 1159h-498" stroke="#274169" stroke-width="44.2" stroke-miterlimit="10"/></g><g clip-path="url(#q)"><path fill="#F1521B" d="M460 282h-13v-6h13v6"/></g><path fill="#737373" d="M717 195c-1 1 0 60 1 62 0 2 25 23 27 24 17-1 28-7 30-10 1-4 0-67-1-68l-33-13c-1 0-23 3-24 5Zm0 0" fill-rule="evenodd"/><g clip-path="url(#r)"><path transform="matrix(.33587 0 0 .33474 595 132)" fill="none" d="M363 187c-2 4-2 181 1 188 2 5 77 67 81 69 50-1 84-19 90-29 2-12 0-200-2-204-2-3-97-37-100-38s-68 10-70 14Zm0 0" stroke="#000" stroke-width="6.1"/></g><path fill="#FFF" d="M718 196c9 3 18 9 27 14l28-6-27 7-1 68-1-69-26-14Zm0 0" fill-opacity=".5" fill-rule="evenodd"/><path fill="#1E9B6F" d="M770 259a1914 1914 0 0 0 0 0Zm0 0" fill-opacity=".2" fill-rule="evenodd"/><path fill="#FFF" d="m754 251 14-5c2 0 2 2 2 2l-3 1s-3 5-8 3c0 0-4 1-5-1Zm0 0" fill-opacity=".4" fill-rule="evenodd"/><path fill="#1E9B6F" d="m754 249 15-3-1 2-2 1c-2 2-4 2-8 2h-3l-1-2Zm0 0" fill-rule="evenodd"/><path fill="#FFF" d="m718 196 27 15v69l-27-23Zm0 0" fill-opacity=".4" fill-rule="evenodd"/><path fill="#1E9B6F" d="M768 264a1582 1582 0 0 0 0 0ZM766 268a801 801 0 0 0 0 0Zm0 0" fill-opacity=".2" fill-rule="evenodd"/><path fill="#FCFCFC" d="m771 208 1 1 1 32-22 6-1-1 21-6Zm0 0" fill-opacity=".4" fill-rule="evenodd"/><path fill="#1E9B6F" d="M751 220v1l20-5ZM750 227v1l21-6ZM751 233v1l20-6ZM751 239v1l20-5-20 4Zm0 0" fill-opacity=".2" fill-rule="evenodd"/><path transform="matrix(.33587 0 0 .33474 595 132)" fill="none" d="m523 230-61 15 1 99" stroke="#9E9E9E" stroke-width="2.6"/><path stroke-linecap="round" transform="matrix(1.50049 0 0 1.2862 541 236)" fill="none" d="M3 0h91" stroke="#000"/><path stroke-linecap="round" transform="matrix(1.50049 0 0 1.2862 541 236)" stroke-linejoin="round" d="M2-1 0 0l2 2Zm0 0" stroke="#000"/><path stroke-linecap="round" transform="matrix(1.50049 0 0 1.2862 686 236)" stroke-linejoin="round" d="m-2-1 1 1-1 2Zm0 0" stroke="#000"/><path d="m143 428-3 6-6 1-6-2c-2-2-3-5-3-8v-2l1-6a8 8 0 0 1 8-5l6 2c2 1 2 3 3 6h-3l-2-4-4-1c-2 0-3 0-4 2l-2 6v2l2 6 4 2 4-1 2-4ZM149 435h-2v-24h2ZM157 435h-3v-17h3Zm-3-21 1-1 1-1 1 1 1 1-1 1h-2l-1-1ZM169 435c-2 0-4 0-6-2l-2-6 1-5 3-3 3-1 6 2 1 6v2h-11l1 4 4 1 3-1 1-1 2 1c-1 2-3 3-6 3Zm-1-15-2 2-2 3h9l-2-3c0-1-1-2-3-2ZM181 418l1 2 5-2c3 0 5 2 5 6v11h-3v-11l-1-3-2-1-3 1-1 2v12h-3v-17ZM200 414v4h3v3h-3v10l1 1 1 1h2v2h-3l-3-1-1-3v-10h-3v-3h3v-4ZM370 344v8h-3v-22h8c3 0 5 0 6 2 2 1 2 3 2 5s0 4-2 5l-6 2Zm0-3h5l4-1 1-3-1-4-3-1h-6ZM395 338h-2l-3 2v12h-3v-16h3v2c1-2 2-3 4-3h1ZM397 344l1-5 2-3 4-1c3 0 5 1 6 3l2 6-1 5a7 7 0 0 1-7 4c-2 0-4-1-5-3-2-1-2-3-2-6Zm3 0 1 5 3 1 4-1 1-5-1-5-4-1-3 1-1 5ZM421 342l4-6h4l-6 8 6 8h-4l-4-6-3 6h-4l6-8-6-8h4ZM437 348l4-12h3l-7 19c-1 3-2 4-5 4h-1v-2h1l2-1 1-2 1-2-6-16h3ZM462 342l-6-2-2-4c0-2 1-4 3-5l5-2 4 1 3 3 1 3h-3l-1-3-4-1-3 1c-1 0-2 1-2 3l2 2 4 2 4 1 2 3 1 3-2 4-6 2-4-1-3-3-1-3h3l1 3 4 1 4-1 1-2-1-3-4-2ZM481 353c-3 0-5-1-6-3l-2-6 1-5 2-3 4-1 5 2c2 2 2 4 2 7v1h-11l1 4 4 1h2l2-2 2 1c-2 3-4 4-6 4Zm-1-15-3 1-1 3h8l-1-3-3-1ZM499 338h-2l-4 2v12h-3v-16h3v2l4-3h2ZM507 349l4-13h3l-6 16h-2l-6-16h3ZM524 353c-3 0-4-1-6-3l-2-6 1-5 3-3 3-1c3 0 4 1 5 2 2 2 2 4 2 7v1h-11l1 4 4 1h2l2-2 2 1c-1 3-3 4-6 4Zm-1-15-3 1-1 3h8l-1-3-3-1ZM542 338h-2c-2 0-3 1-3 2v12h-3v-16h2l1 2c0-2 2-3 4-3h1ZM673 345v3l1-2 5-16h2l4 16 1 2 1-3 3-15h3l-5 22h-3l-5-16v-2l-1 2-4 16h-3l-6-22h3ZM703 353l-6-3-2-6 1-5 3-3 4-1 5 2 2 7v1h-12l2 4 3 1h3l2-2 1 1c-1 3-3 4-6 4Zm0-15-3 1-2 3h9l-2-3-2-1ZM727 344c0 3 0 5-2 6-1 2-2 3-4 3-3 0-4-1-5-3v2h-3v-24h3v9l5-2c2 0 3 1 4 3 2 1 2 3 2 6Zm-3 0-1-5-3-1-4 2v8l4 2 3-1 1-5ZM746 342l-6-2-2-4c0-2 1-4 3-5l5-2 4 1 3 3 1 3h-3l-1-3-4-1-3 1-1 3 1 2 4 2 4 1 2 3 1 3c0 1 0 3-2 4l-6 2-4-1-3-3-1-3h3l1 3 4 1 4-1 1-2-1-3-4-2ZM765 353c-3 0-5-1-6-3l-2-6 1-5 3-3 3-1 5 2c2 2 2 4 2 7v1h-11l1 4 4 1h2l2-2 2 1c-1 3-4 4-6 4Zm-1-15-3 1-1 3h8l-1-3-3-1ZM783 338h-2l-4 2v12h-2v-16h2v2l4-3h2ZM791 349l4-13h3l-6 16h-2l-6-16h3ZM808 353l-6-3-2-6 1-5 3-3 3-1 6 2 1 7v1h-11l1 4 4 1h3l1-2 2 1c-1 3-3 4-6 4Zm-1-15-2 1-2 3h9l-2-3-3-1ZM826 338h-2l-3 2v12h-3v-16h3v2c1-2 2-3 4-3h1Zm0 0"/><g clip-path="url(#s)"><path fill="#737373" d="M185 247c2 0 5-2 5-5v-29c0-2-3-5-5-5h-42c-3 0-5 3-5 5v29c0 3 2 5 5 5h-10c0 3 2 5 5 5h52c3 0 5-2 5-5Zm-42-34h42v29h-42Zm21 37a3 3 0 0 1 0-5 3 3 0 0 1 0 5Zm0 0"/></g><g clip-path="url(#t)"><path fill="#737373" d="M185 358c2 0 5-2 5-5v-29c0-2-3-5-5-5h-42c-3 0-5 3-5 5v29c0 3 2 5 5 5h-10c0 3 2 5 5 5h52c3 0 5-2 5-5Zm-42-34h42v29h-42Zm21 37a3 3 0 0 1 0-5 3 3 0 0 1 0 5Zm0 0"/></g></svg>